Oswald-900-Pole.ufo
<glyph name="quotedbl" format="1">
  <advance width="707"/>
  <unicode hex="0022"/>
  <outline>
    <contour>
      <point x="12" y="1005" type="line"/>
      <point x="176" y="1005" type="line"/>
      <point x="326" y="1658" type="line"/>
      <point x="12" y="1658" type="line"/>
    </contour>
    <contour>
      <point x="420" y="1005" type="line"/>
      <point x="584" y="1005" type="line"/>
      <point x="734" y="1658" type="line"/>
      <point x="420" y="1658" type="line"/>
    </contour>
  </outline>
</glyph>
<glyph name="numbersign" format="1">
  <advance width="1086"/>
  <unicode hex="0023"/>
  <outline>
    <contour>
      <point x="164" y="-1" type="line"/>
      <point x="374" y="-1" type="line"/>
      <point x="433" y="537" type="line"/>
      <point x="548" y="537" type="line"/>
      <point x="491" y="-1" type="line"/>
      <point x="700" y="-1" type="line"/>
      <point x="760" y="537" type="line"/>
      <point x="958" y="537" type="line"/>
      <point x="965" y="758" type="line"/>
      <point x="792" y="758" type="line"/>
      <point x="819" y="1011" type="line"/>
      <point x="969" y="1011" type="line"/>
      <point x="976" y="1236" type="line"/>
      <point x="860" y="1236" type="line"/>
      <point x="905" y="1658" type="line"/>
      <point x="692" y="1658" type="line"/>
      <point x="649" y="1236" type="line"/>
      <point x="535" y="1236" type="line"/>
      <point x="579" y="1658" type="line"/>
      <point x="365" y="1658" type="line"/>
      <point x="322" y="1236" type="line"/>
      <point x="117" y="1236" type="line"/>
      <point x="110" y="1011" type="line"/>
      <point x="280" y="1011" type="line"/>
      <point x="254" y="758" type="line"/>
      <point x="107" y="758" type="line"/>
      <point x="100" y="537" type="line"/>
      <point x="222" y="537" type="line"/>
    </contour>
    <contour>
      <point x="463" y="758" type="line"/>
      <point x="493" y="1011" type="line"/>
      <point x="609" y="1011" type="line"/>
      <point x="580" y="758" type="line"/>
    </contour>
  </outline>
</glyph>
<glyph name="dollar" format="1">
  <advance width="989"/>
  <unicode hex="0024"/>
  <outline>
    <contour>
      <point x="464" y="-248" type="line"/>
      <point x="579" y="-248" type="line"/>
      <point x="579" y="-22.9623" type="line"/>
      <point x="820.16" y="2.37513"/>
      <point x="967" y="183.013"/>
      <point x="967" y="398" type="curve" smooth="yes"/>
      <point x="967" y="634"/>
      <point x="850" y="776"/>
      <point x="703" y="907" type="curve" smooth="yes"/>
      <point x="614" y="986" type="line" smooth="yes"/>
      <point x="533" y="1058"/>
      <point x="436" y="1131"/>
      <point x="436" y="1274" type="curve" smooth="yes"/>
      <point x="436" y="1311"/>
      <point x="454" y="1387"/>
      <point x="508" y="1387" type="curve" smooth="yes"/>
      <point x="576" y="1387"/>
      <point x="576" y="1307"/>
      <point x="576" y="1164" type="curve"/>
      <point x="934" y="1198" type="line"/>
      <point x="934" y="1352.13"/>
      <point x="920.08" y="1660.31"/>
      <point x="574" y="1682.71" type="curve"/>
      <point x="574" y="1895" type="line"/>
      <point x="457" y="1895" type="line"/>
      <point x="457" y="1680.45" type="line"/>
      <point x="198.06" y="1655.5"/>
      <point x="32" y="1499.74"/>
      <point x="32" y="1233" type="curve" smooth="yes"/>
      <point x="32" y="1004"/>
      <point x="147" y="889"/>
      <point x="277" y="778" type="curve" smooth="yes"/>
      <point x="374" y="695" type="line" smooth="yes"/>
      <point x="491" y="595"/>
      <point x="558" y="515"/>
      <point x="558" y="379" type="curve" smooth="yes"/>
      <point x="558" y="347"/>
      <point x="556" y="284"/>
      <point x="494" y="284" type="curve" smooth="yes"/>
      <point x="433" y="284"/>
      <point x="382" y="330"/>
      <point x="382" y="558" type="curve"/>
      <point x="32" y="514" type="line"/>
      <point x="41.4019" y="138.865"/>
      <point x="179.861" y="-8.2104"/>
      <point x="464" y="-24.4618" type="curve"/>
    </contour>
  </outline>
</glyph>
<glyph name="percent" format="1">
  <advance width="2136"/>
  <unicode hex="0025"/>
  <outline>
    <contour>
      <point x="508" y="924" type="curve" smooth="yes"/>
      <point x="402" y="924"/>
      <point x="398" y="1003"/>
      <point x="398" y="1173" type="curve" smooth="yes"/>
      <point x="398" y="1197" type="line" smooth="yes"/>
      <point x="398" y="1367"/>
      <point x="399" y="1427"/>
      <point x="508" y="1427" type="curve" smooth="yes"/>
      <point x="619" y="1427"/>
      <point x="618" y="1366"/>
      <point x="618" y="1195" type="curve" smooth="yes"/>
      <point x="618" y="1173" type="line" smooth="yes"/>
      <point x="618" y="1003"/>
      <point x="614" y="924"/>
    </contour>
    <contour>
      <point x="508" y="695" type="curve" smooth="yes"/>
      <point x="810" y="695"/>
      <point x="921" y="841"/>
      <point x="921" y="1154" type="curve" smooth="yes"/>
      <point x="921" y="1212" type="line" smooth="yes"/>
      <point x="921" y="1532"/>
      <point x="812" y="1658"/>
      <point x="508" y="1658" type="curve" smooth="yes"/>
      <point x="202" y="1658"/>
      <point x="99" y="1531"/>
      <point x="99" y="1211" type="curve" smooth="yes"/>
      <point x="99" y="1154" type="line" smooth="yes"/>
      <point x="99" y="841"/>
      <point x="206" y="695"/>
    </contour>
    <contour>
      <point x="1625" y="229" type="curve" smooth="yes"/>
      <point x="1519" y="229"/>
      <point x="1515" y="308"/>
      <point x="1515" y="478" type="curve" smooth="yes"/>
      <point x="1515" y="502" type="line" smooth="yes"/>
      <point x="1515" y="672"/>
      <point x="1516" y="732"/>
      <point x="1625" y="732" type="curve" smooth="yes"/>
      <point x="1736" y="732"/>
      <point x="1735" y="671"/>
      <point x="1735" y="500" type="curve" smooth="yes"/>
      <point x="1735" y="478" type="line" smooth="yes"/>
      <point x="1735" y="308"/>
      <point x="1731" y="229"/>
    </contour>
    <contour>
      <point x="1625" y="0" type="curve" smooth="yes"/>
      <point x="1927" y="0"/>
      <point x="2038" y="146"/>
      <point x="2038" y="459" type="curve" smooth="yes"/>
      <point x="2038" y="517" type="line" smooth="yes"/>
      <point x="2038" y="837"/>
      <point x="1929" y="963"/>
      <point x="1625" y="963" type="curve" smooth="yes"/>
      <point x="1319" y="963"/>
      <point x="1216" y="836"/>
      <point x="1216" y="516" type="curve" smooth="yes"/>
      <point x="1216" y="459" type="line" smooth="yes"/>
      <point x="1216" y="146"/>
      <point x="1323" y="0"/>
    </contour>
    <contour>
      <point x="709.0" y="0.0" type="line"/>
      <point x="892.0" y="0.0" type="line"/>
      <point x="1422.0" y="1658.0" type="line"/>
      <point x="1238.0" y="1658.0" type="line"/>
    </contour>
  </outline>
</glyph>
<glyph name="parenleft" format="1">
  <advance width="720"/>
  <unicode hex="0028"/>
  <outline>
    <contour>
      <point x="644" y="-90" type="line"/>
      <point x="514" y="-90"/>
      <point x="461" y="99"/>
      <point x="461" y="652" type="curve" smooth="yes"/>
      <point x="461" y="1196"/>
      <point x="502" y="1415"/>
      <point x="644" y="1415" type="curve"/>
      <point x="644" y="1678" type="line"/>
      <point x="173" y="1681"/>
      <point x="120" y="1239"/>
      <point x="120" y="652" type="curve" smooth="yes"/>
      <point x="120" y="116"/>
      <point x="173" y="-358"/>
      <point x="644" y="-354" type="curve"/>
    </contour>
  </outline>
</glyph>
<glyph name="plus" format="1">
  <advance width="942"/>
  <unicode hex="002B"/>
  <outline>
    <contour>
      <point x="351" y="422" type="line"/>
      <point x="590" y="422" type="line"/>
      <point x="590" y="747" type="line"/>
      <point x="888" y="747" type="line"/>
      <point x="888" y="951" type="line"/>
      <point x="590" y="951" type="line"/>
      <point x="590" y="1266" type="line"/>
      <point x="351" y="1266" type="line"/>
      <point x="351" y="951" type="line"/>
      <point x="54" y="951" type="line"/>
      <point x="54" y="747" type="line"/>
      <point x="351" y="747" type="line"/>
    </contour>
  </outline>
</glyph>
<glyph name="comma" format="1">
  <advance width="525"/>
  <unicode hex="002C"/>
  <outline>
    <contour>
      <point x="146" y="-291" type="line"/>
      <point x="339.384" y="-289.421"/>
      <point x="436" y="-167"/>
      <point x="436.665" y="55" type="curve" smooth="yes"/>
      <point x="437" y="341" type="line"/>
      <point x="92" y="341" type="line"/>
      <point x="92" y="0" type="line"/>
      <point x="286" y="0" type="line"/>
      <point x="286" y="-130"/>
      <point x="203" y="-164"/>
      <point x="131" y="-180" type="curve"/>
    </contour>
  </outline>
</glyph>
<glyph name="period" format="1">
  <advance width="519"/>
  <unicode hex="002E"/>
  <outline>
    <contour>
      <point x="83" y="0" type="line"/>
      <point x="431" y="0" type="line"/>
      <point x="431" y="340" type="line"/>
      <point x="83" y="340" type="line"/>
    </contour>
  </outline>
</glyph>
<glyph name="zero" format="1">
  <advance width="1128"/>
  <unicode hex="0030"/>
  <outline>
    <contour>
      <point x="565" y="312" type="curve" smooth="yes"/>
      <point x="490" y="312"/>
      <point x="493" y="415"/>
      <point x="493" y="447" type="curve" smooth="yes"/>
      <point x="493" y="1188" type="line" smooth="yes"/>
      <point x="493" y="1225"/>
      <point x="479" y="1337"/>
      <point x="565" y="1337" type="curve" smooth="yes"/>
      <point x="649" y="1337"/>
      <point x="638" y="1225"/>
      <point x="638" y="1188" type="curve" smooth="yes"/>
      <point x="638" y="447" type="line" smooth="yes"/>
      <point x="638" y="414"/>
      <point x="641" y="312"/>
    </contour>
    <contour>
      <point x="565" y="-35" type="curve" smooth="yes"/>
      <point x="864" y="-35"/>
      <point x="1030" y="158"/>
      <point x="1030" y="434" type="curve" smooth="yes"/>
      <point x="1030" y="1202" type="line" smooth="yes"/>
      <point x="1030" y="1489"/>
      <point x="883" y="1686"/>
      <point x="565" y="1686" type="curve" smooth="yes"/>
      <point x="245" y="1686"/>
      <point x="98" y="1491"/>
      <point x="98" y="1202" type="curve" smooth="yes"/>
      <point x="98" y="434" type="line" smooth="yes"/>
      <point x="98" y="154"/>
      <point x="259" y="-35"/>
    </contour>
  </outline>
</glyph>
<glyph name="one" format="1">
  <advance width="1112"/>
  <unicode hex="0031"/>
  <outline>
    <contour>
      <point x="388" y="0" type="line"/>
      <point x="774" y="0" type="line"/>
      <point x="774" y="1658" type="line"/>
      <point x="470" y="1658" type="line"/>
      <point x="410" y="1580"/>
      <point x="265" y="1500"/>
      <point x="209" y="1475" type="curve"/>
      <point x="209" y="1189" type="line"/>
      <point x="388" y="1264" type="line"/>
    </contour>
  </outline>
</glyph>
<glyph name="two" format="1">
  <advance width="1128"/>
  <unicode hex="0032"/>
  <outline>
    <contour>
      <point x="124" y="0" type="line"/>
      <point x="1019" y="0" type="line"/>
      <point x="1019" y="296" type="line"/>
      <point x="549" y="296" type="line"/>
      <point x="826" y="704" type="line" smooth="yes"/>
      <point x="940" y="869"/>
      <point x="1067" y="1034"/>
      <point x="1067" y="1244" type="curve" smooth="yes"/>
      <point x="1067" y="1521"/>
      <point x="907" y="1688"/>
      <point x="598" y="1688" type="curve" smooth="yes"/>
      <point x="252" y="1688"/>
      <point x="114" y="1455"/>
      <point x="114" y="1163" type="curve"/>
      <point x="114" y="1066" type="line"/>
      <point x="483" y="1066" type="line"/>
      <point x="483" y="1155" type="line" smooth="yes"/>
      <point x="483" y="1301"/>
      <point x="518" y="1342"/>
      <point x="571" y="1357" type="curve" smooth="yes"/>
      <point x="632" y="1374"/>
      <point x="689" y="1341"/>
      <point x="689" y="1250" type="curve" smooth="yes"/>
      <point x="689" y="1120"/>
      <point x="578" y="974"/>
      <point x="508" y="866" type="curve" smooth="yes"/>
      <point x="124" y="271" type="line"/>
    </contour>
  </outline>
</glyph>
<glyph name="four" format="1">
  <advance width="1128"/>
  <unicode hex="0034"/>
  <outline>
    <contour>
      <point x="581" y="0" type="line"/>
      <point x="915" y="0" type="line"/>
      <point x="915" y="364" type="line"/>
      <point x="1064" y="364" type="line"/>
      <point x="1064" y="623" type="line"/>
      <point x="915" y="623" type="line"/>
      <point x="915" y="1658" type="line"/>
      <point x="499" y="1658" type="line"/>
      <point x="64" y="618" type="line"/>
      <point x="64" y="364" type="line"/>
      <point x="581" y="364" type="line"/>
    </contour>
    <contour>
      <point x="330" y="623" type="line"/>
      <point x="581" y="1307" type="line"/>
      <point x="581" y="623" type="line"/>
    </contour>
  </outline>
</glyph>
<glyph name="five" format="1">
  <advance width="1112"/>
  <unicode hex="0035"/>
  <outline>
    <contour>
      <point x="553" y="-35" type="curve" smooth="yes"/>
      <point x="963" y="-35"/>
      <point x="1021" y="217"/>
      <point x="1021" y="577" type="curve" smooth="yes"/>
      <point x="1021" y="959"/>
      <point x="867" y="1155"/>
      <point x="619" y="1120" type="curve" smooth="yes"/>
      <point x="535" y="1108"/>
      <point x="450" y="1077"/>
      <point x="430" y="1047" type="curve"/>
      <point x="451" y="1351" type="line"/>
      <point x="945" y="1351" type="line"/>
      <point x="945" y="1658" type="line"/>
      <point x="150" y="1658" type="line"/>
      <point x="110" y="681" type="line"/>
      <point x="444" y="681" type="line"/>
      <point x="457" y="795"/>
      <point x="493" y="837"/>
      <point x="556" y="837" type="curve" smooth="yes"/>
      <point x="647" y="837"/>
      <point x="665" y="716"/>
      <point x="665" y="574" type="curve" smooth="yes"/>
      <point x="665" y="361"/>
      <point x="664" y="251"/>
      <point x="582" y="245" type="curve" smooth="yes"/>
      <point x="499" y="239"/>
      <point x="477" y="286"/>
      <point x="477" y="493" type="curve"/>
      <point x="109" y="493" type="line"/>
      <point x="109" y="182"/>
      <point x="168" y="-35"/>
    </contour>
  </outline>
</glyph>
<glyph name="six" format="1">
  <advance width="1112"/>
  <unicode hex="0036"/>
  <outline>
    <contour>
      <point x="562" y="-27" type="curve" smooth="yes"/>
      <point x="907" y="-27"/>
      <point x="1029" y="210"/>
      <point x="1029" y="573" type="curve" smooth="yes"/>
      <point x="1029" y="839"/>
      <point x="931" y="1059"/>
      <point x="669" y="1050" type="curve" smooth="yes"/>
      <point x="588" y="1047"/>
      <point x="509" y="1020"/>
      <point x="478" y="966" type="curve"/>
      <point x="478" y="1078" type="line" smooth="yes"/>
      <point x="478" y="1341"/>
      <point x="478" y="1400"/>
      <point x="563" y="1400" type="curve" smooth="yes"/>
      <point x="637" y="1400"/>
      <point x="633" y="1346"/>
      <point x="633" y="1220" type="curve"/>
      <point x="989" y="1220" type="line"/>
      <point x="989" y="1251" type="line" smooth="yes"/>
      <point x="989" y="1532"/>
      <point x="897" y="1684"/>
      <point x="560" y="1684" type="curve" smooth="yes"/>
      <point x="174" y="1684"/>
      <point x="87" y="1458"/>
      <point x="87" y="1133" type="curve" smooth="yes"/>
      <point x="87" y="518" type="line" smooth="yes"/>
      <point x="87" y="197"/>
      <point x="223" y="-27"/>
    </contour>
    <contour>
      <point x="569" y="249" type="curve" smooth="yes"/>
      <point x="493" y="249"/>
      <point x="478" y="333"/>
      <point x="478" y="428" type="curve" smooth="yes"/>
      <point x="478" y="706" type="line"/>
      <point x="488" y="725"/>
      <point x="525" y="757"/>
      <point x="564" y="757" type="curve" smooth="yes"/>
      <point x="643" y="757"/>
      <point x="645" y="670"/>
      <point x="645" y="522" type="curve" smooth="yes"/>
      <point x="645" y="328"/>
      <point x="642" y="249"/>
    </contour>
  </outline>
</glyph>
<glyph name="seven" format="1">
  <advance width="1112"/>
  <unicode hex="0037"/>
  <outline>
    <contour>
      <point x="227" y="0" type="line"/>
      <point x="603" y="0" type="line"/>
      <point x="983" y="1379" type="line"/>
      <point x="983" y="1658" type="line"/>
      <point x="154" y="1658" type="line"/>
      <point x="154" y="1370" type="line"/>
      <point x="610" y="1370" type="line"/>
    </contour>
  </outline>
</glyph>
<glyph name="eight" format="1">
  <advance width="1127.58716226"/>
  <unicode hex="0038"/>
  <outline>
    <contour>
      <point x="563.300999053" y="-30" type="curve" smooth="yes"/>
      <point x="916.300999053" y="-30"/>
      <point x="1042.13999905" y="193"/>
      <point x="1033.13999905" y="503" type="curve" smooth="yes"/>
      <point x="1029.13999905" y="650"/>
      <point x="976.142999053" y="813"/>
      <point x="844.142999053" y="873" type="curve"/>
      <point x="922.142999053" y="927"/>
      <point x="995.142999053" y="1045"/>
      <point x="1000.14299905" y="1229" type="curve" smooth="yes"/>
      <point x="1008.13999905" y="1512"/>
      <point x="854.142999053" y="1683"/>
      <point x="563.142999053" y="1683" type="curve" smooth="yes"/>
      <point x="274.142999053" y="1683"/>
      <point x="114.142999053" y="1515"/>
      <point x="122.142999053" y="1229" type="curve" smooth="yes"/>
      <point x="127.142999053" y="1045"/>
      <point x="203.142999053" y="929"/>
      <point x="280.142999053" y="873" type="curve"/>
      <point x="147.142999053" y="813"/>
      <point x="97.1433990526" y="649"/>
      <point x="94.1433990526" y="503" type="curve" smooth="yes"/>
      <point x="89.1433990526" y="195"/>
      <point x="214.300999053" y="-30"/>
    </contour>
    <contour>
      <point x="563.049999053" y="248" type="curve" smooth="yes"/>
      <point x="471.049999053" y="248"/>
      <point x="473.142999053" y="400"/>
      <point x="473.142999053" y="469" type="curve" smooth="yes"/>
      <point x="473.142999053" y="586"/>
      <point x="469.142999053" y="710"/>
      <point x="563.142999053" y="710" type="curve" smooth="yes"/>
      <point x="658.142999053" y="710"/>
      <point x="654.142999053" y="586"/>
      <point x="653.142999053" y="469" type="curve" smooth="yes"/>
      <point x="653.142999053" y="402"/>
      <point x="656.049999053" y="248"/>
    </contour>
    <contour>
      <point x="563.142999053" y="1002" type="curve" smooth="yes"/>
      <point x="511.142999053" y="1002"/>
      <point x="480.142999053" y="1064"/>
      <point x="480.142999053" y="1240" type="curve" smooth="yes"/>
      <point x="480.142999053" y="1343"/>
      <point x="511.142999053" y="1399"/>
      <point x="563.142999053" y="1399" type="curve" smooth="yes"/>
      <point x="611.142999053" y="1399"/>
      <point x="642.142999053" y="1343"/>
      <point x="642.142999053" y="1239" type="curve" smooth="yes"/>
      <point x="642.142999053" y="1064"/>
      <point x="609.142999053" y="1002"/>
    </contour>
  </outline>
</glyph>
<glyph name="nine" format="1">
  <advance width="1128"/>
  <unicode hex="0039"/>
  <outline>
    <contour>
      <point x="554" y="-27" type="curve" smooth="yes"/>
      <point x="940" y="-27"/>
      <point x="1031" y="199"/>
      <point x="1031" y="524" type="curve" smooth="yes"/>
      <point x="1031" y="1164" type="line" smooth="yes"/>
      <point x="1031" y="1485"/>
      <point x="895" y="1684"/>
      <point x="556" y="1684" type="curve" smooth="yes"/>
      <point x="211" y="1684"/>
      <point x="89" y="1472"/>
      <point x="89" y="1109" type="curve" smooth="yes"/>
      <point x="89" y="843"/>
      <point x="187" y="598"/>
      <point x="449" y="607" type="curve" smooth="yes"/>
      <point x="530" y="610"/>
      <point x="605" y="637"/>
      <point x="636" y="691" type="curve"/>
      <point x="636" y="579" type="line" smooth="yes"/>
      <point x="636" y="316"/>
      <point x="643" y="257"/>
      <point x="558" y="257" type="curve" smooth="yes"/>
      <point x="484" y="257"/>
      <point x="484" y="311"/>
      <point x="484" y="437" type="curve"/>
      <point x="128" y="437" type="line"/>
      <point x="128" y="406" type="line" smooth="yes"/>
      <point x="128" y="125"/>
      <point x="217" y="-27"/>
    </contour>
    <contour>
      <point x="561" y="900" type="curve" smooth="yes"/>
      <point x="482" y="900"/>
      <point x="482" y="987"/>
      <point x="482" y="1135" type="curve" smooth="yes"/>
      <point x="482" y="1329"/>
      <point x="483" y="1408"/>
      <point x="556" y="1408" type="curve" smooth="yes"/>
      <point x="632" y="1408"/>
      <point x="636" y="1324"/>
      <point x="636" y="1229" type="curve" smooth="yes"/>
      <point x="636" y="951" type="line"/>
      <point x="626" y="932"/>
      <point x="600" y="900"/>
    </contour>
  </outline>
</glyph>
<glyph name="colon" format="1">
  <advance width="502"/>
  <unicode hex="003A"/>
  <outline>
    <contour>
      <point x="79" y="86" type="line"/>
      <point x="421" y="86" type="line"/>
      <point x="421" y="424" type="line"/>
      <point x="79" y="424" type="line"/>
    </contour>
    <contour>
      <point x="79" y="841" type="line"/>
      <point x="421" y="841" type="line"/>
      <point x="421" y="1179" type="line"/>
      <point x="79" y="1179" type="line"/>
    </contour>
  </outline>
</glyph>
<glyph name="semicolon" format="1">
  <advance width="631"/>
  <unicode hex="003B"/>
  <outline>
    <contour>
      <point x="198" y="-291" type="line"/>
      <point x="391.384" y="-289.421"/>
      <point x="488" y="-167"/>
      <point x="488.665" y="55" type="curve" smooth="yes"/>
      <point x="489" y="341" type="line"/>
      <point x="144" y="341" type="line"/>
      <point x="144" y="0" type="line"/>
      <point x="338" y="0" type="line"/>
      <point x="338" y="-130"/>
      <point x="255" y="-164"/>
      <point x="183" y="-180" type="curve"/>
    </contour>
    <contour>
      <point x="142" y="846" type="line"/>
      <point x="486" y="846" type="line"/>
      <point x="486" y="1184" type="line"/>
      <point x="142" y="1184" type="line"/>
    </contour>
  </outline>
</glyph>
<glyph name="equal" format="1">
  <advance width="927"/>
  <unicode hex="003D"/>
  <outline>
    <contour>
      <point x="134" y="484" type="line"/>
      <point x="793" y="484" type="line"/>
      <point x="793" y="698" type="line"/>
      <point x="134" y="698" type="line"/>
    </contour>
    <contour>
      <point x="134" y="881" type="line"/>
      <point x="793" y="881" type="line"/>
      <point x="793" y="1095" type="line"/>
      <point x="134" y="1095" type="line"/>
    </contour>
  </outline>
</glyph>
<glyph name="greater" format="1">
  <advance width="833"/>
  <unicode hex="003E"/>
  <outline>
    <contour>
      <point x="109" y="252" type="line"/>
      <point x="760" y="705" type="line"/>
      <point x="760" y="975" type="line"/>
      <point x="109" y="1430" type="line"/>
      <point x="109" y="1116" type="line"/>
      <point x="495" y="842" type="line"/>
      <point x="109" y="564" type="line"/>
    </contour>
  </outline>
</glyph>
<glyph name="at" format="1">
  <advance width="1977.16228466"/>
  <unicode hex="0040"/>
  <outline>
    <contour>
      <point x="968.083919564" y="-253" type="curve" smooth="yes"/>
      <point x="1129.08391956" y="-253"/>
      <point x="1304.08391956" y="-221"/>
      <point x="1458.08391956" y="-188" type="curve"/>
      <point x="1421.08391956" y="32" type="line"/>
      <point x="1305.08391956" y="-9"/>
      <point x="1104.08391956" y="-39"/>
      <point x="1003.08391956" y="-39" type="curve" smooth="yes"/>
      <point x="439.083919564" y="-39"/>
      <point x="294.083919564" y="282"/>
      <point x="371.083919564" y="769" type="curve" smooth="yes"/>
      <point x="428.083919564" y="1121"/>
      <point x="620.083919564" y="1451"/>
      <point x="1105.08391956" y="1451" type="curve" smooth="yes"/>
      <point x="1568.08391956" y="1451"/>
      <point x="1720.08391956" y="1194"/>
      <point x="1667.08391956" y="761" type="curve" smooth="yes"/>
      <point x="1639.08391956" y="533"/>
      <point x="1501.08391956" y="375"/>
      <point x="1410.08391956" y="415" type="curve" smooth="yes"/>
      <point x="1370.08391956" y="432"/>
      <point x="1392.08391956" y="573"/>
      <point x="1397.08391956" y="611" type="curve" smooth="yes"/>
      <point x="1476.08391956" y="1251" type="line"/>
      <point x="1174.08391956" y="1251" type="line"/>
      <point x="1154.08391956" y="1088" type="line"/>
      <point x="1142.08391956" y="1133"/>
      <point x="1116.08391956" y="1261"/>
      <point x="995.083919564" y="1261" type="curve" smooth="yes"/>
      <point x="658.083919564" y="1261"/>
      <point x="549.083919564" y="883"/>
      <point x="537.083919564" y="667" type="curve" smooth="yes"/>
      <point x="523.083919564" y="407"/>
      <point x="668.083919564" y="207"/>
      <point x="905.083919564" y="227" type="curve" smooth="yes"/>
      <point x="984.083919564" y="234"/>
      <point x="1065.08391956" y="277"/>
      <point x="1102.08391956" y="345" type="curve"/>
      <point x="1146.08391956" y="243"/>
      <point x="1278.08391956" y="206"/>
      <point x="1389.08391956" y="206" type="curve" smooth="yes"/>
      <point x="1749.08391956" y="206"/>
      <point x="1891.08391956" y="538"/>
      <point x="1918.08391956" y="757" type="curve" smooth="yes"/>
      <point x="1983.08391956" y="1290"/>
      <point x="1735.08391956" y="1659"/>
      <point x="1133.08391956" y="1659" type="curve" smooth="yes"/>
      <point x="543.083919564" y="1659"/>
      <point x="191.083919564" y="1269"/>
      <point x="117.083919564" y="767" type="curve" smooth="yes"/>
      <point x="25.0839195635" y="151"/>
      <point x="304.083919564" y="-253"/>
    </contour>
    <contour>
      <point x="986.083919564" y="466" type="curve"/>
      <point x="884.083919564" y="466"/>
      <point x="850.083919564" y="559"/>
      <point x="851.083919564" y="666" type="curve" smooth="yes"/>
      <point x="853.083919564" y="800"/>
      <point x="913.083919564" y="990"/>
      <point x="1076.08391956" y="990" type="curve" smooth="yes"/>
      <point x="1093.08391956" y="990"/>
      <point x="1141.08391956" y="982"/>
      <point x="1137.08391956" y="954" type="curve" smooth="yes"/>
      <point x="1078.08391956" y="470" type="line"/>
      <point x="1059.08391956" y="456"/>
      <point x="978.083919564" y="466"/>
    </contour>
  </outline>
</glyph>
<glyph name="A" format="1">
  <advance width="1122"/>
  <unicode hex="0041"/>
  <outline>
    <contour>
      <point x="23" y="0" type="line"/>
      <point x="412" y="0" type="line"/>
      <point x="460" y="328" type="line"/>
      <point x="671" y="328" type="line"/>
      <point x="722" y="0" type="line"/>
      <point x="1099" y="0" type="line"/>
      <point x="803" y="1658" type="line"/>
      <point x="321" y="1658" type="line"/>
    </contour>
    <contour>
      <point x="492" y="564" type="line"/>
      <point x="564" y="1179" type="line"/>
      <point x="637" y="564" type="line"/>
    </contour>
  </outline>
</glyph>
<glyph name="B" format="1">
  <advance width="1251.12702443"/>
  <unicode hex="0042"/>
  <outline>
    <contour>
      <point x="120" y="0" type="line"/>
      <point x="654" y="0" type="line" smooth="yes"/>
      <point x="980" y="0"/>
      <point x="1187" y="136"/>
      <point x="1181" y="499" type="curve" smooth="yes"/>
      <point x="1177" y="733"/>
      <point x="1072" y="874"/>
      <point x="884" y="890" type="curve"/>
      <point x="1029" y="920"/>
      <point x="1122" y="1019"/>
      <point x="1127" y="1217" type="curve" smooth="yes"/>
      <point x="1137" y="1615"/>
      <point x="849" y="1658"/>
      <point x="571" y="1658" type="curve" smooth="yes"/>
      <point x="120" y="1658" type="line"/>
    </contour>
    <contour>
      <point x="532" y="287" type="line"/>
      <point x="532" y="742" type="line"/>
      <point x="587" y="742" type="line" smooth="yes"/>
      <point x="735" y="742"/>
      <point x="783" y="684"/>
      <point x="783" y="506" type="curve" smooth="yes"/>
      <point x="783" y="365"/>
      <point x="733" y="287"/>
      <point x="584" y="287" type="curve" smooth="yes"/>
    </contour>
    <contour>
      <point x="532" y="1004" type="line"/>
      <point x="532" y="1388" type="line"/>
      <point x="601" y="1388" type="line" smooth="yes"/>
      <point x="704" y="1388"/>
      <point x="767" y="1302"/>
      <point x="767" y="1206" type="curve" smooth="yes"/>
      <point x="767" y="1086"/>
      <point x="739" y="1004"/>
      <point x="584" y="1004" type="curve" smooth="yes"/>
    </contour>
  </outline>
</glyph>
<glyph name="C" format="1">
  <advance width="1144"/>
  <unicode hex="0043"/>
  <outline>
    <contour>
      <point x="594" y="-26" type="curve" smooth="yes"/>
      <point x="981" y="-26"/>
      <point x="1092" y="187"/>
      <point x="1092" y="462" type="curve" smooth="yes"/>
      <point x="1092" y="610" type="line"/>
      <point x="686" y="610" type="line"/>
      <point x="686" y="418" type="line" smooth="yes"/>
      <point x="686" y="352"/>
      <point x="684" y="258"/>
      <point x="594" y="258" type="curve" smooth="yes"/>
      <point x="504" y="258"/>
      <point x="498" y="352"/>
      <point x="498" y="418" type="curve" smooth="yes"/>
      <point x="498" y="1241" type="line" smooth="yes"/>
      <point x="498" y="1307"/>
      <point x="504" y="1400"/>
      <point x="594" y="1400" type="curve" smooth="yes"/>
      <point x="684" y="1400"/>
      <point x="686" y="1307"/>
      <point x="686" y="1241" type="curve" smooth="yes"/>
      <point x="686" y="1056" type="line"/>
      <point x="1092" y="1056" type="line"/>
      <point x="1092" y="1205" type="line" smooth="yes"/>
      <point x="1092" y="1480"/>
      <point x="981" y="1684"/>
      <point x="594" y="1684" type="curve" smooth="yes"/>
      <point x="207" y="1684"/>
      <point x="78" y="1476"/>
      <point x="78" y="1129" type="curve" smooth="yes"/>
      <point x="78" y="529" type="line" smooth="yes"/>
      <point x="78" y="182"/>
      <point x="207" y="-26"/>
    </contour>
  </outline>
</glyph>
<glyph name="D" format="1">
  <advance width="1240"/>
  <unicode hex="0044"/>
  <outline>
    <contour>
      <point x="532" y="284" type="line"/>
      <point x="532" y="1374" type="line"/>
      <point x="567" y="1374" type="line" smooth="yes"/>
      <point x="702" y="1374"/>
      <point x="716" y="1332"/>
      <point x="716" y="1224" type="curve" smooth="yes"/>
      <point x="716" y="435" type="line" smooth="yes"/>
      <point x="716" y="327"/>
      <point x="702" y="284"/>
      <point x="567" y="284" type="curve" smooth="yes"/>
    </contour>
    <contour>
      <point x="120" y="0" type="line"/>
      <point x="560" y="0" type="line" smooth="yes"/>
      <point x="1016" y="0"/>
      <point x="1140" y="149"/>
      <point x="1140" y="530" type="curve" smooth="yes"/>
      <point x="1140" y="1128" type="line" smooth="yes"/>
      <point x="1140" y="1509"/>
      <point x="1016" y="1658"/>
      <point x="560" y="1658" type="curve" smooth="yes"/>
      <point x="120" y="1658" type="line"/>
    </contour>
  </outline>
</glyph>
<glyph name="E" format="1">
  <advance width="934"/>
  <unicode hex="0045"/>
  <outline>
    <contour>
      <point x="120" y="0" type="line"/>
      <point x="885" y="0" type="line"/>
      <point x="885" y="275" type="line"/>
      <point x="532" y="275" type="line"/>
      <point x="532" y="733" type="line"/>
      <point x="786" y="733" type="line"/>
      <point x="786" y="1019" type="line"/>
      <point x="532" y="1019" type="line"/>
      <point x="532" y="1382" type="line"/>
      <point x="881" y="1382" type="line"/>
      <point x="881" y="1658" type="line"/>
      <point x="120" y="1658" type="line"/>
    </contour>
  </outline>
</glyph>
<glyph name="F" format="1">
  <advance width="835"/>
  <unicode hex="0046"/>
  <outline>
    <contour>
      <point x="98" y="0" type="line"/>
      <point x="510" y="0" type="line"/>
      <point x="510" y="723" type="line"/>
      <point x="784" y="723" type="line"/>
      <point x="784" y="1009" type="line"/>
      <point x="510" y="1009" type="line"/>
      <point x="510" y="1382" type="line"/>
      <point x="831" y="1382" type="line"/>
      <point x="831" y="1658" type="line"/>
      <point x="98" y="1658" type="line"/>
    </contour>
  </outline>
</glyph>
<glyph name="G" format="1">
  <advance width="1196"/>
  <unicode hex="0047"/>
  <outline>
    <contour>
      <point x="546" y="-26" type="curve" smooth="yes"/>
      <point x="685.327" y="-26"/>
      <point x="761.74" y="35.9416"/>
      <point x="803.315" y="117.905" type="curve"/>
      <point x="823" y="0" type="line"/>
      <point x="1099" y="0" type="line"/>
      <point x="1099" y="875" type="line"/>
      <point x="598" y="875" type="line"/>
      <point x="598" y="640" type="line"/>
      <point x="728" y="640" type="line"/>
      <point x="728" y="419" type="line" smooth="yes"/>
      <point x="728" y="353"/>
      <point x="703" y="259"/>
      <point x="613" y="259" type="curve" smooth="yes"/>
      <point x="523" y="259"/>
      <point x="504" y="353"/>
      <point x="504" y="419" type="curve" smooth="yes"/>
      <point x="504" y="1241" type="line" smooth="yes"/>
      <point x="504" y="1307"/>
      <point x="512" y="1400"/>
      <point x="602" y="1400" type="curve" smooth="yes"/>
      <point x="692" y="1400"/>
      <point x="693" y="1307"/>
      <point x="693" y="1241" type="curve" smooth="yes"/>
      <point x="693" y="1077" type="line"/>
      <point x="1099" y="1077" type="line"/>
      <point x="1099" y="1198" type="line" smooth="yes"/>
      <point x="1099" y="1473"/>
      <point x="984" y="1684"/>
      <point x="597" y="1684" type="curve" smooth="yes"/>
      <point x="210" y="1684"/>
      <point x="80" y="1456"/>
      <point x="80" y="1109" type="curve" smooth="yes"/>
      <point x="80" y="550" type="line" smooth="yes"/>
      <point x="80" y="215"/>
      <point x="191" y="-26"/>
    </contour>
  </outline>
</glyph>
<glyph name="H" format="1">
  <advance width="1253"/>
  <unicode hex="0048"/>
  <outline>
    <contour>
      <point x="130" y="0" type="line"/>
      <point x="542" y="0" type="line"/>
      <point x="542" y="709" type="line"/>
      <point x="721" y="709" type="line"/>
      <point x="721" y="0" type="line"/>
      <point x="1133" y="0" type="line"/>
      <point x="1133" y="1658" type="line"/>
      <point x="721" y="1658" type="line"/>
      <point x="721" y="1004" type="line"/>
      <point x="542" y="1004" type="line"/>
      <point x="542" y="1658" type="line"/>
      <point x="130" y="1658" type="line"/>
    </contour>
  </outline>
</glyph>
<glyph name="I" format="1">
  <advance width="652"/>
  <unicode hex="0049"/>
  <outline>
    <contour>
      <point x="120" y="0" type="line"/>
      <point x="532" y="0" type="line"/>
      <point x="532" y="1658" type="line"/>
      <point x="120" y="1658" type="line"/>
    </contour>
  </outline>
</glyph>
<glyph name="J" format="1">
  <advance width="748"/>
  <unicode hex="004A"/>
  <outline>
    <contour>
      <point x="31" y="-44" type="line"/>
      <point x="232" y="-44" type="line" smooth="yes"/>
      <point x="537.437" y="-44"/>
      <point x="620.577" y="95.3914"/>
      <point x="627.512" y="362" type="curve"/>
      <point x="627.512" y="362"/>
      <point x="628.0" y="1658.0"/>
      <point x="628" y="1658" type="curve"/>
      <point x="216" y="1658" type="line"/>
      <point x="216" y="381" type="line" smooth="yes"/>
      <point x="216" y="262"/>
      <point x="163" y="239"/>
      <point x="31" y="242" type="curve"/>
    </contour>
  </outline>
</glyph>
<glyph name="K" format="1">
  <advance width="1162"/>
  <unicode hex="004B"/>
  <outline>
    <contour>
      <point x="98" y="0" type="line"/>
      <point x="510" y="0" type="line"/>
      <point x="510" y="692.849" type="line"/>
      <point x="529" y="714" type="line"/>
      <point x="740" y="0" type="line"/>
      <point x="1165" y="0" type="line"/>
      <point x="863" y="904" type="line"/>
      <point x="1163" y="1658" type="line"/>
      <point x="757" y="1658" type="line"/>
      <point x="510" y="1016.92" type="line"/>
      <point x="510" y="1658" type="line"/>
      <point x="98" y="1658" type="line"/>
    </contour>
  </outline>
</glyph>
<glyph name="L" format="1">
  <advance width="911"/>
  <unicode hex="004C"/>
  <outline>
    <contour>
      <point x="98" y="0" type="line"/>
      <point x="877" y="0" type="line"/>
      <point x="877" y="275" type="line"/>
      <point x="510" y="275" type="line"/>
      <point x="510" y="1658" type="line"/>
      <point x="98" y="1658" type="line"/>
    </contour>
  </outline>
</glyph>
<glyph name="M" format="1">
  <advance width="1416"/>
  <unicode hex="004D"/>
  <outline>
    <contour>
      <point x="86" y="0" type="line"/>
      <point x="376" y="0" type="line"/>
      <point x="404" y="1081" type="line"/>
      <point x="583" y="0" type="line"/>
      <point x="847" y="0" type="line"/>
      <point x="1012" y="1071" type="line"/>
      <point x="1044" y="0" type="line"/>
      <point x="1330" y="0" type="line"/>
      <point x="1303" y="1658" type="line"/>
      <point x="871" y="1658" type="line"/>
      <point x="708" y="824" type="line"/>
      <point x="563" y="1658" type="line"/>
      <point x="113" y="1658" type="line"/>
    </contour>
  </outline>
</glyph>
<glyph name="N" format="1">
  <advance width="1170"/>
  <unicode hex="004E"/>
  <outline>
    <contour>
      <point x="120" y="0" type="line"/>
      <point x="474" y="0" type="line"/>
      <point x="474" y="767" type="line"/>
      <point x="768" y="0" type="line"/>
      <point x="1050" y="0" type="line"/>
      <point x="1050" y="1658" type="line"/>
      <point x="709" y="1658" type="line"/>
      <point x="709" y="962" type="line"/>
      <point x="413" y="1658" type="line"/>
      <point x="120" y="1658" type="line"/>
    </contour>
  </outline>
</glyph>
<glyph name="O" format="1">
  <advance width="1224"/>
  <unicode hex="004F"/>
  <outline>
    <contour>
      <point x="610" y="258" type="curve" smooth="yes"/>
      <point x="520" y="258"/>
      <point x="520" y="352"/>
      <point x="520" y="418" type="curve" smooth="yes"/>
      <point x="520" y="1241" type="line" smooth="yes"/>
      <point x="520" y="1307"/>
      <point x="520" y="1400"/>
      <point x="610" y="1400" type="curve" smooth="yes"/>
      <point x="700" y="1400"/>
      <point x="704" y="1307"/>
      <point x="704" y="1241" type="curve" smooth="yes"/>
      <point x="704" y="418" type="line" smooth="yes"/>
      <point x="704" y="352"/>
      <point x="700" y="258"/>
    </contour>
    <contour>
      <point x="610" y="-26" type="curve" smooth="yes"/>
      <point x="997" y="-26"/>
      <point x="1128" y="176"/>
      <point x="1128" y="523" type="curve" smooth="yes"/>
      <point x="1128" y="1135" type="line" smooth="yes"/>
      <point x="1128" y="1482"/>
      <point x="997" y="1684"/>
      <point x="610" y="1684" type="curve" smooth="yes"/>
      <point x="223" y="1684"/>
      <point x="96" y="1482"/>
      <point x="96" y="1135" type="curve" smooth="yes"/>
      <point x="96" y="523" type="line" smooth="yes"/>
      <point x="96" y="176"/>
      <point x="223" y="-26"/>
    </contour>
  </outline>
</glyph>
<glyph name="P" format="1">
  <advance width="1169"/>
  <unicode hex="0050"/>
  <outline>
    <contour>
      <point x="98" y="0" type="line"/>
      <point x="510" y="0" type="line"/>
      <point x="510" y="682" type="line"/>
      <point x="646" y="682" type="line" smooth="yes"/>
      <point x="915" y="682"/>
      <point x="1152" y="746"/>
      <point x="1152" y="1170" type="curve" smooth="yes"/>
      <point x="1152" y="1484"/>
      <point x="1003" y="1658"/>
      <point x="705" y="1658" type="curve" smooth="yes"/>
      <point x="98" y="1658" type="line"/>
    </contour>
    <contour>
      <point x="510" y="967" type="line"/>
      <point x="510" y="1370" type="line"/>
      <point x="637" y="1370" type="line" smooth="yes"/>
      <point x="756" y="1370"/>
      <point x="766" y="1266"/>
      <point x="766" y="1179" type="curve" smooth="yes"/>
      <point x="766" y="1046"/>
      <point x="756" y="967"/>
      <point x="641" y="967" type="curve" smooth="yes"/>
    </contour>
  </outline>
</glyph>
<glyph name="Q" format="1">
  <advance width="1224"/>
  <unicode hex="0051"/>
  <outline>
    <contour>
      <point x="998" y="-322" type="curve"/>
      <point x="1088" y="-94" type="line"/>
      <point x="1031" y="-66.4063"/>
      <point x="969.914" y="-13.0297"/>
      <point x="918.061" y="40.2119" type="curve"/>
      <point x="1070.22" y="126.061"/>
      <point x="1128" y="292.555"/>
      <point x="1128" y="523" type="curve" smooth="yes"/>
      <point x="1128" y="1135" type="line" smooth="yes"/>
      <point x="1128" y="1482"/>
      <point x="997" y="1684"/>
      <point x="610" y="1684" type="curve" smooth="yes"/>
      <point x="223" y="1684"/>
      <point x="96" y="1482"/>
      <point x="96" y="1135" type="curve" smooth="yes"/>
      <point x="96" y="523" type="line" smooth="yes"/>
      <point x="96" y="176"/>
      <point x="223" y="-26"/>
      <point x="610" y="-26" type="curve" smooth="yes"/>
      <point x="621.257" y="-26"/>
      <point x="632.297" y="-25.8291"/>
      <point x="643.123" y="-25.4887" type="curve"/>
      <point x="733.038" y="-163.569"/>
      <point x="913.014" y="-289.625"/>
    </contour>
    <contour>
      <point x="610" y="258" type="curve" smooth="yes"/>
      <point x="520" y="258"/>
      <point x="520" y="352"/>
      <point x="520" y="418" type="curve" smooth="yes"/>
      <point x="520" y="1241" type="line" smooth="yes"/>
      <point x="520" y="1307"/>
      <point x="520" y="1400"/>
      <point x="610" y="1400" type="curve" smooth="yes"/>
      <point x="700" y="1400"/>
      <point x="704" y="1307"/>
      <point x="704" y="1241" type="curve" smooth="yes"/>
      <point x="704" y="418" type="line" smooth="yes"/>
      <point x="704" y="352"/>
      <point x="700" y="258"/>
    </contour>
  </outline>
</glyph>
<glyph name="R" format="1">
  <advance width="1186"/>
  <unicode hex="0052"/>
  <outline>
    <contour>
      <point x="98" y="0" type="line"/>
      <point x="510" y="0" type="line"/>
      <point x="510" y="711" type="line"/>
      <point x="556" y="711" type="line"/>
      <point x="747" y="0" type="line"/>
      <point x="1188" y="0" type="line"/>
      <point x="937" y="803" type="line"/>
      <point x="1106" y="891"/>
      <point x="1146" y="1014"/>
      <point x="1146" y="1221" type="curve" smooth="yes"/>
      <point x="1146" y="1580"/>
      <point x="918" y="1658"/>
      <point x="585" y="1658" type="curve" smooth="yes"/>
      <point x="98" y="1658" type="line"/>
    </contour>
    <contour>
      <point x="510" y="949" type="line"/>
      <point x="510" y="1386" type="line"/>
      <point x="583" y="1386" type="line" smooth="yes"/>
      <point x="698" y="1386"/>
      <point x="747" y="1301"/>
      <point x="747" y="1175" type="curve" smooth="yes"/>
      <point x="747" y="1053"/>
      <point x="704" y="949"/>
      <point x="563" y="949" type="curve" smooth="yes"/>
    </contour>
  </outline>
</glyph>
<glyph name="S" format="1">
  <advance width="1003"/>
  <unicode hex="0053"/>
  <outline>
    <contour>
      <point x="534" y="-26" type="curve" smooth="yes"/>
      <point x="810" y="-26"/>
      <point x="981" y="166"/>
      <point x="981" y="398" type="curve" smooth="yes"/>
      <point x="981" y="634"/>
      <point x="864" y="776"/>
      <point x="717" y="907" type="curve" smooth="yes"/>
      <point x="628" y="986" type="line" smooth="yes"/>
      <point x="547" y="1058"/>
      <point x="450" y="1131"/>
      <point x="450" y="1274" type="curve" smooth="yes"/>
      <point x="450" y="1311"/>
      <point x="468" y="1387"/>
      <point x="522" y="1387" type="curve" smooth="yes"/>
      <point x="590" y="1387"/>
      <point x="590" y="1307"/>
      <point x="590" y="1164" type="curve"/>
      <point x="948" y="1198" type="line"/>
      <point x="948" y="1358"/>
      <point x="923" y="1684"/>
      <point x="537" y="1684" type="curve" smooth="yes"/>
      <point x="235" y="1684"/>
      <point x="46" y="1525"/>
      <point x="46" y="1233" type="curve" smooth="yes"/>
      <point x="46" y="1004"/>
      <point x="161" y="889"/>
      <point x="291" y="778" type="curve" smooth="yes"/>
      <point x="388" y="695" type="line" smooth="yes"/>
      <point x="505" y="595"/>
      <point x="572" y="515"/>
      <point x="572" y="379" type="curve" smooth="yes"/>
      <point x="572" y="347"/>
      <point x="570" y="284"/>
      <point x="508" y="284" type="curve" smooth="yes"/>
      <point x="447" y="284"/>
      <point x="396" y="330"/>
      <point x="396" y="558" type="curve"/>
      <point x="46" y="514" type="line"/>
      <point x="56" y="115"/>
      <point x="212" y="-26"/>
    </contour>
  </outline>
</glyph>
<glyph name="T" format="1">
  <advance width="914"/>
  <unicode hex="0054"/>
  <outline>
    <contour>
      <point x="251" y="0" type="line"/>
      <point x="663" y="0" type="line"/>
      <point x="663" y="1353" type="line"/>
      <point x="893" y="1353" type="line"/>
      <point x="893" y="1658" type="line"/>
      <point x="21" y="1658" type="line"/>
      <point x="21" y="1353" type="line"/>
      <point x="251" y="1353" type="line"/>
    </contour>
  </outline>
</glyph>
<glyph name="U" format="1">
  <advance width="1235"/>
  <unicode hex="0055"/>
  <outline>
    <contour>
      <point x="617" y="-26" type="curve" smooth="yes"/>
      <point x="1004" y="-26"/>
      <point x="1125" y="150"/>
      <point x="1125" y="497" type="curve" smooth="yes"/>
      <point x="1125" y="1658" type="line"/>
      <point x="713" y="1658" type="line"/>
      <point x="713" y="427" type="line" smooth="yes"/>
      <point x="713" y="361"/>
      <point x="707" y="267"/>
      <point x="617" y="267" type="curve" smooth="yes"/>
      <point x="527" y="267"/>
      <point x="521" y="361"/>
      <point x="521" y="427" type="curve" smooth="yes"/>
      <point x="521" y="1658" type="line"/>
      <point x="110" y="1658" type="line"/>
      <point x="110" y="497" type="line" smooth="yes"/>
      <point x="110" y="150"/>
      <point x="230" y="-26"/>
    </contour>
  </outline>
</glyph>
<glyph name="V" format="1">
  <advance width="1092"/>
  <unicode hex="0056"/>
  <outline>
    <contour>
      <point x="320" y="0" type="line"/>
      <point x="770" y="0" type="line"/>
      <point x="1050" y="1658" type="line"/>
      <point x="677" y="1658" type="line"/>
      <point x="540" y="565" type="line"/>
      <point x="390" y="1658" type="line"/>
      <point x="45" y="1658" type="line"/>
    </contour>
  </outline>
</glyph>
<glyph name="W" format="1">
  <advance width="1406"/>
  <unicode hex="0057"/>
  <outline>
    <contour>
      <point x="224" y="0" type="line"/>
      <point x="598" y="0" type="line"/>
      <point x="698" y="925" type="line"/>
      <point x="808" y="0" type="line"/>
      <point x="1180" y="0" type="line"/>
      <point x="1355" y="1658" type="line"/>
      <point x="1008" y="1658" type="line"/>
      <point x="1008" y="1658"/>
      <point x="934" y="778"/>
      <point x="934" y="778" type="curve"/>
      <point x="934" y="778"/>
      <point x="834" y="1658"/>
      <point x="834" y="1658" type="curve"/>
      <point x="564" y="1658" type="line"/>
      <point x="564" y="1658"/>
      <point x="473" y="769"/>
      <point x="473" y="769" type="curve"/>
      <point x="473" y="769"/>
      <point x="401" y="1658"/>
      <point x="401" y="1658" type="curve"/>
      <point x="51" y="1658" type="line"/>
    </contour>
  </outline>
</glyph>
<glyph name="X" format="1">
  <advance width="1077"/>
  <unicode hex="0058"/>
  <outline>
    <contour>
      <point x="9" y="0" type="line"/>
      <point x="342" y="0" type="line"/>
      <point x="503.423" y="451.342" type="line"/>
      <point x="682" y="0" type="line"/>
      <point x="1068" y="0" type="line"/>
      <point x="762.588" y="779.036" type="line"/>
      <point x="1032" y="1658" type="line"/>
      <point x="695" y="1658" type="line"/>
      <point x="575.986" y="1255.01" type="line"/>
      <point x="418" y="1658" type="line"/>
      <point x="26" y="1658" type="line"/>
      <point x="324.564" y="903.398" type="line"/>
    </contour>
  </outline>
</glyph>
<glyph name="Y" format="1">
  <advance width="1019"/>
  <unicode hex="0059"/>
  <unicode hex="04AE"/>
  <outline>
    <contour>
      <point x="314" y="0" type="line"/>
      <point x="710" y="0" type="line"/>
      <point x="710" y="710" type="line"/>
      <point x="1005" y="1658" type="line"/>
      <point x="633" y="1658" type="line"/>
      <point x="529" y="1227" type="line"/>
      <point x="403" y="1658" type="line"/>
      <point x="14" y="1658" type="line"/>
      <point x="314" y="710" type="line"/>
    </contour>
  </outline>
</glyph>
<glyph name="Z" format="1">
  <advance width="896"/>
  <unicode hex="005A"/>
  <outline>
    <contour>
      <point x="55" y="0" type="line"/>
      <point x="836" y="0" type="line"/>
      <point x="836" y="275" type="line"/>
      <point x="452" y="275" type="line"/>
      <point x="831" y="1417" type="line"/>
      <point x="831" y="1658" type="line"/>
      <point x="67" y="1658" type="line"/>
      <point x="67" y="1382" type="line"/>
      <point x="431" y="1382" type="line"/>
      <point x="55" y="239" type="line"/>
    </contour>
  </outline>
</glyph>
<glyph name="backslash" format="1">
  <advance width="578"/>
  <unicode hex="005C"/>
  <outline>
    <contour>
      <point x="220" y="0" type="line"/>
      <point x="536" y="0" type="line"/>
      <point x="358" y="1637" type="line"/>
      <point x="42" y="1637" type="line"/>
    </contour>
  </outline>
</glyph>
<glyph name="bracketright" format="1">
  <advance width="673"/>
  <unicode hex="005D"/>
  <outline>
    <contour>
      <point x="42" y="-378" type="line"/>
      <point x="575" y="-378" type="line"/>
      <point x="573" y="1658" type="line"/>
      <point x="40" y="1658" type="line"/>
      <point x="40" y="1524" type="line"/>
      <point x="301" y="1524" type="line"/>
      <point x="303" y="-244" type="line"/>
      <point x="42" y="-244" type="line"/>
    </contour>
  </outline>
</glyph>
<glyph name="asciicircum" format="1">
  <advance width="954"/>
  <unicode hex="005E"/>
  <outline>
    <contour>
      <point x="68" y="1005" type="line"/>
      <point x="373" y="1005" type="line"/>
      <point x="466" y="1332" type="line"/>
      <point x="561" y="1005" type="line"/>
      <point x="868" y="1005" type="line"/>
      <point x="606" y="1658" type="line"/>
      <point x="328" y="1658" type="line"/>
    </contour>
  </outline>
</glyph>
<glyph name="underscore" format="1">
  <advance width="769.0"/>
  <unicode hex="005F"/>
  <outline>
    <contour>
      <point x="0" y="-363" type="line"/>
      <point x="769" y="-363" type="line"/>
      <point x="769" y="-120" type="line"/>
      <point x="0" y="-120" type="line"/>
    </contour>
  </outline>
</glyph>
<glyph name="grave" format="1">
  <advance width="650"/>
  <unicode hex="0060"/>
  <outline>
    <contour>
      <point x="339" y="1243" type="line"/>
      <point x="582" y="1243" type="line"/>
      <point x="455" y="1658" type="line"/>
      <point x="71" y="1658" type="line"/>
    </contour>
  </outline>
</glyph>
<glyph name="a" format="1">
  <advance width="1011"/>
  <unicode hex="0061"/>
  <outline>
    <contour>
      <point x="358" y="-22" type="curve"/>
      <point x="478" y="-22"/>
      <point x="552" y="64"/>
      <point x="581" y="164" type="curve"/>
      <point x="608" y="0" type="line"/>
      <point x="937" y="0" type="line"/>
      <point x="931" y="52"/>
      <point x="916" y="138"/>
      <point x="916" y="298" type="curve" smooth="yes"/>
      <point x="916" y="856" type="line" smooth="yes"/>
      <point x="916" y="1052"/>
      <point x="788" y="1206"/>
      <point x="547" y="1206" type="curve" smooth="yes"/>
      <point x="274" y="1206"/>
      <point x="125" y="1084"/>
      <point x="103" y="815" type="curve" smooth="yes"/>
      <point x="100" y="779" type="line"/>
      <point x="443" y="765" type="line"/>
      <point x="454" y="861" type="line"/>
      <point x="457" y="897"/>
      <point x="466" y="930"/>
      <point x="510" y="930" type="curve" smooth="yes"/>
      <point x="550" y="930"/>
      <point x="563" y="896"/>
      <point x="563" y="861" type="curve" smooth="yes"/>
      <point x="563" y="731" type="line"/>
      <point x="399" y="663"/>
      <point x="68" y="593"/>
      <point x="68" y="271" type="curve" smooth="yes"/>
      <point x="68" y="133"/>
      <point x="163" y="-18"/>
    </contour>
    <contour>
      <point x="487" y="217" type="curve" smooth="yes"/>
      <point x="440" y="217"/>
      <point x="398" y="261"/>
      <point x="398" y="335" type="curve" smooth="yes"/>
      <point x="398" y="405"/>
      <point x="452" y="531"/>
      <point x="563" y="583" type="curve"/>
      <point x="563" y="261" type="line"/>
      <point x="541" y="231"/>
      <point x="513" y="217"/>
    </contour>
  </outline>
</glyph>
<glyph name="b" format="1">
  <advance width="1065"/>
  <unicode hex="0062"/>
  <outline>
    <contour>
      <point x="741" y="-22" type="curve" smooth="yes"/>
      <point x="886" y="-22"/>
      <point x="987" y="93"/>
      <point x="987" y="303" type="curve" smooth="yes"/>
      <point x="987" y="890" type="line" smooth="yes"/>
      <point x="987" y="1100"/>
      <point x="895" y="1199"/>
      <point x="741" y="1206" type="curve" smooth="yes"/>
      <point x="662.223" y="1209.53"/>
      <point x="566.857" y="1177.11"/>
      <point x="474" y="1099.4" type="curve"/>
      <point x="474" y="1658" type="line"/>
      <point x="102" y="1658" type="line"/>
      <point x="102" y="0" type="line"/>
      <point x="474" y="0" type="line"/>
      <point x="474" y="90.3824" type="line"/>
      <point x="560.994" y="18.6866"/>
      <point x="654.176" y="-22"/>
    </contour>
    <contour>
      <point x="541" y="207" type="curve" smooth="yes"/>
      <point x="521.462" y="207.55"/>
      <point x="498.441" y="216.96"/>
      <point x="474" y="231.583" type="curve"/>
      <point x="474" y="962.253" type="line"/>
      <point x="500.266" y="980.899"/>
      <point x="523.799" y="993.331"/>
      <point x="541" y="996" type="curve" smooth="yes"/>
      <point x="586" y="1003"/>
      <point x="614" y="966"/>
      <point x="614" y="925" type="curve" smooth="yes"/>
      <point x="614" y="279" type="line" smooth="yes"/>
      <point x="614" y="238"/>
      <point x="586" y="206"/>
    </contour>
  </outline>
</glyph>
<glyph name="c" format="1">
  <advance width="1000"/>
  <unicode hex="0063"/>
  <outline>
    <contour>
      <point x="509.0" y="-22.0" type="curve" smooth="yes"/>
      <point x="757.0" y="-22.0"/>
      <point x="935.0" y="94.0"/>
      <point x="935.0" y="331.0" type="curve" smooth="yes"/>
      <point x="935.0" y="496.0" type="line"/>
      <point x="571.0" y="496.0" type="line"/>
      <point x="571.0" y="329.0" type="line" smooth="yes"/>
      <point x="571.0" y="252.0"/>
      <point x="541.0" y="241.0"/>
      <point x="509.0" y="241.0" type="curve" smooth="yes"/>
      <point x="479.0" y="241.0"/>
      <point x="452.0" y="263.0"/>
      <point x="452.0" y="337.0" type="curve" smooth="yes"/>
      <point x="452.0" y="849.0" type="line" smooth="yes"/>
      <point x="452.0" y="923.0"/>
      <point x="479.0" y="945.0"/>
      <point x="509.0" y="945.0" type="curve" smooth="yes"/>
      <point x="541.0" y="945.0"/>
      <point x="571.0" y="934.0"/>
      <point x="571.0" y="857.0" type="curve" smooth="yes"/>
      <point x="571.0" y="710.0" type="line"/>
      <point x="935.0" y="710.0" type="line"/>
      <point x="935.0" y="855.0" type="line" smooth="yes"/>
      <point x="935.0" y="1092.0"/>
      <point x="757.0" y="1206.0"/>
      <point x="509.0" y="1206.0" type="curve" smooth="yes"/>
      <point x="261.0" y="1206.0"/>
      <point x="78.0" y="1073.0"/>
      <point x="78.0" y="837.0" type="curve" smooth="yes"/>
      <point x="78.0" y="349.0" type="line" smooth="yes"/>
      <point x="78.0" y="113.0"/>
      <point x="261.0" y="-22.0"/>
    </contour>
  </outline>
</glyph>
<glyph name="e" format="1">
  <advance width="996"/>
  <unicode hex="0065"/>
  <outline>
    <contour>
      <point x="509" y="-22" type="curve" smooth="yes"/>
      <point x="757" y="-22"/>
      <point x="923" y="94"/>
      <point x="923" y="331" type="curve" smooth="yes"/>
      <point x="923" y="474" type="line"/>
      <point x="583" y="474" type="line"/>
      <point x="583" y="329" type="line" smooth="yes"/>
      <point x="583" y="252"/>
      <point x="541" y="241"/>
      <point x="509" y="241" type="curve" smooth="yes"/>
      <point x="479" y="241"/>
      <point x="446" y="263"/>
      <point x="446" y="337" type="curve" smooth="yes"/>
      <point x="446" y="566" type="line"/>
      <point x="923" y="566" type="line"/>
      <point x="923" y="853" type="line" smooth="yes"/>
      <point x="923" y="1090"/>
      <point x="757" y="1206"/>
      <point x="509" y="1206" type="curve" smooth="yes"/>
      <point x="261" y="1206"/>
      <point x="78" y="1071"/>
      <point x="78" y="835" type="curve" smooth="yes"/>
      <point x="78" y="349" type="line" smooth="yes"/>
      <point x="78" y="113"/>
      <point x="261" y="-22"/>
    </contour>
    <contour>
      <point x="446" y="734" type="line"/>
      <point x="446" y="847" type="line" smooth="yes"/>
      <point x="446" y="921"/>
      <point x="479" y="943"/>
      <point x="509" y="943" type="curve" smooth="yes"/>
      <point x="541" y="943"/>
      <point x="583" y="932"/>
      <point x="583" y="855" type="curve" smooth="yes"/>
      <point x="583" y="734" type="line"/>
    </contour>
  </outline>
</glyph>
<glyph name="f" format="1">
  <advance width="679"/>
  <unicode hex="0066"/>
  <outline>
    <contour>
      <point x="136" y="0" type="line"/>
      <point x="508" y="0" type="line"/>
      <point x="508" y="938" type="line"/>
      <point x="648" y="938" type="line"/>
      <point x="648" y="1184" type="line"/>
      <point x="508" y="1184" type="line"/>
      <point x="508" y="1278" type="line" smooth="yes"/>
      <point x="508" y="1334"/>
      <point x="543" y="1348"/>
      <point x="581" y="1348" type="curve" smooth="yes"/>
      <point x="605" y="1348"/>
      <point x="630" y="1342"/>
      <point x="648" y="1339" type="curve"/>
      <point x="648" y="1615" type="line"/>
      <point x="586" y="1622"/>
      <point x="532" y="1625"/>
      <point x="484" y="1625" type="curve" smooth="yes"/>
      <point x="174" y="1625"/>
      <point x="136" y="1486"/>
      <point x="136" y="1282" type="curve" smooth="yes"/>
      <point x="136" y="1184" type="line"/>
      <point x="33" y="1184" type="line"/>
      <point x="33" y="938" type="line"/>
      <point x="136" y="938" type="line"/>
    </contour>
  </outline>
</glyph>
<glyph name="g" format="1">
  <advance width="1072"/>
  <unicode hex="0067"/>
  <outline>
    <contour>
      <point x="574" y="-352" type="curve" smooth="yes"/>
      <point x="930" y="-352"/>
      <point x="1028" y="-207"/>
      <point x="1028" y="-39" type="curve" smooth="yes"/>
      <point x="1028" y="118"/>
      <point x="959" y="205"/>
      <point x="702" y="243" type="curve" smooth="yes"/>
      <point x="583" y="260.5"/>
      <point x="485.5" y="272.75"/>
      <point x="416.625" y="285" type="curve" smooth="yes"/>
      <point x="347.75" y="297.25"/>
      <point x="307.5" y="309.5"/>
      <point x="303" y="327" type="curve" smooth="yes"/>
      <point x="297" y="350"/>
      <point x="314" y="379"/>
      <point x="341" y="411" type="curve"/>
      <point x="400" y="385"/>
      <point x="480" y="368"/>
      <point x="561" y="368" type="curve" smooth="yes"/>
      <point x="837" y="368"/>
      <point x="973" y="523"/>
      <point x="973" y="770" type="curve" smooth="yes"/>
      <point x="973" y="899"/>
      <point x="936" y="969"/>
      <point x="905" y="1007" type="curve"/>
      <point x="972" y="1046"/>
      <point x="1069" y="1094"/>
      <point x="1102" y="1106" type="curve"/>
      <point x="1017" y="1273" type="line"/>
      <point x="970" y="1249" type="line"/>
      <point x="914" y="1218"/>
      <point x="857" y="1166"/>
      <point x="809" y="1112" type="curve"/>
      <point x="750" y="1174"/>
      <point x="641" y="1206"/>
      <point x="529" y="1206" type="curve" smooth="yes"/>
      <point x="260" y="1206"/>
      <point x="86" y="1074"/>
      <point x="86" y="765" type="curve" smooth="yes"/>
      <point x="86" y="627"/>
      <point x="139" y="545"/>
      <point x="212" y="493" type="curve"/>
      <point x="122" y="423"/>
      <point x="38" y="349"/>
      <point x="62" y="246" type="curve" smooth="yes"/>
      <point x="74" y="194"/>
      <point x="114" y="157"/>
      <point x="225" y="113" type="curve"/>
      <point x="151" y="56"/>
      <point x="55" y="-22"/>
      <point x="55" y="-110" type="curve" smooth="yes"/>
      <point x="55" y="-335"/>
      <point x="400" y="-352"/>
    </contour>
    <contour>
      <point x="574" y="-135" type="curve" smooth="yes"/>
      <point x="459" y="-135"/>
      <point x="408" y="-106"/>
      <point x="408" y="-50" type="curve" smooth="yes"/>
      <point x="408" y="-16"/>
      <point x="427" y="24"/>
      <point x="447" y="57" type="curve"/>
      <point x="619" y="32" type="line" smooth="yes"/>
      <point x="709" y="19"/>
      <point x="745" y="-2"/>
      <point x="733" y="-74" type="curve" smooth="yes"/>
      <point x="726" y="-119"/>
      <point x="677" y="-135"/>
    </contour>
    <contour>
      <point x="538" y="581" type="curve" smooth="yes"/>
      <point x="470" y="581"/>
      <point x="464" y="651"/>
      <point x="464" y="787" type="curve" smooth="yes"/>
      <point x="464" y="916"/>
      <point x="460" y="992"/>
      <point x="536" y="992" type="curve" smooth="yes"/>
      <point x="612" y="992"/>
      <point x="615" y="937"/>
      <point x="615" y="787" type="curve" smooth="yes"/>
      <point x="615" y="641"/>
      <point x="606" y="581"/>
    </contour>
  </outline>
</glyph>
<glyph name="h" format="1">
  <advance width="1049"/>
  <unicode hex="0068"/>
  <outline>
    <contour>
      <point x="84" y="0" type="line"/>
      <point x="456" y="0" type="line"/>
      <point x="456" y="915.603" type="line"/>
      <point x="492.322" y="938.007"/>
      <point x="523.686" y="946.76"/>
      <point x="546" y="948" type="curve" smooth="yes"/>
      <point x="589" y="950"/>
      <point x="603" y="924"/>
      <point x="603" y="876" type="curve" smooth="yes"/>
      <point x="603" y="0" type="line"/>
      <point x="975" y="0" type="line"/>
      <point x="975" y="917" type="line" smooth="yes"/>
      <point x="975" y="1091"/>
      <point x="886" y="1206"/>
      <point x="741" y="1206" type="curve" smooth="yes"/>
      <point x="639.841" y="1206"/>
      <point x="547.814" y="1177.46"/>
      <point x="456" y="1084.72" type="curve"/>
      <point x="456" y="1658" type="line"/>
      <point x="84" y="1658" type="line"/>
    </contour>
  </outline>
</glyph>
<glyph name="i" format="1">
  <advance width="544"/>
  <unicode hex="0069"/>
  <outline>
    <contour>
      <point x="87" y="0" type="line"/>
      <point x="459" y="0" type="line"/>
      <point x="459" y="1184" type="line"/>
      <point x="87" y="1184" type="line"/>
    </contour>
    <contour>
      <point x="85" y="1391" type="line"/>
      <point x="459" y="1391" type="line"/>
      <point x="459" y="1626" type="line"/>
      <point x="85" y="1626" type="line"/>
    </contour>
  </outline>
</glyph>
<glyph name="j" format="1">
  <advance width="579"/>
  <unicode hex="006A"/>
  <outline>
    <contour>
      <point x="-17" y="-362" type="line"/>
      <point x="46" y="-379"/>
      <point x="111" y="-393"/>
      <point x="183" y="-393" type="curve" smooth="yes"/>
      <point x="392" y="-393"/>
      <point x="494" y="-253"/>
      <point x="494" y="-65" type="curve" smooth="yes"/>
      <point x="494" y="1184" type="line"/>
      <point x="122" y="1184" type="line"/>
      <point x="122" y="-19" type="line" smooth="yes"/>
      <point x="122" y="-86"/>
      <point x="85" y="-104"/>
      <point x="42" y="-104" type="curve" smooth="yes"/>
      <point x="23" y="-104"/>
      <point x="3" y="-99"/>
      <point x="-17" y="-95" type="curve"/>
    </contour>
    <contour>
      <point x="120" y="1391" type="line"/>
      <point x="494" y="1391" type="line"/>
      <point x="494" y="1626" type="line"/>
      <point x="120" y="1626" type="line"/>
    </contour>
  </outline>
</glyph>
<glyph name="k" format="1">
  <advance width="1175"/>
  <unicode hex="006B"/>
  <outline>
    <contour>
      <point x="86" y="0" type="line"/>
      <point x="458" y="0" type="line"/>
      <point x="458" y="455.694" type="line"/>
      <point x="544" y="555" type="line"/>
      <point x="738" y="0" type="line"/>
      <point x="1163" y="0" type="line"/>
      <point x="845" y="679" type="line"/>
      <point x="1164" y="1184" type="line"/>
      <point x="713" y="1184" type="line"/>
      <point x="458" y="773.1" type="line"/>
      <point x="458" y="1658" type="line"/>
      <point x="86" y="1658" type="line"/>
    </contour>
  </outline>
</glyph>
<glyph name="l" format="1">
  <advance width="541"/>
  <unicode hex="006C"/>
  <outline>
    <contour>
      <point x="88" y="0" type="line"/>
      <point x="460" y="0" type="line"/>
      <point x="460" y="1658" type="line"/>
      <point x="88" y="1658" type="line"/>
    </contour>
  </outline>
</glyph>
<glyph name="m" format="1">
  <advance width="1549"/>
  <unicode hex="006D"/>
  <outline>
    <contour>
      <point x="85" y="0" type="line"/>
      <point x="457" y="0" type="line"/>
      <point x="457" y="920.937" type="line"/>
      <point x="489.501" y="939.418"/>
      <point x="517.551" y="946.864"/>
      <point x="538" y="948" type="curve" smooth="yes"/>
      <point x="581" y="950"/>
      <point x="595" y="924"/>
      <point x="595" y="876" type="curve" smooth="yes"/>
      <point x="595" y="0" type="line"/>
      <point x="967" y="0" type="line"/>
      <point x="967" y="917" type="line" smooth="yes"/>
      <point x="967" y="919.24"/>
      <point x="966.985" y="921.469"/>
      <point x="966.956" y="923.689" type="curve"/>
      <point x="997.353" y="940.164"/>
      <point x="1023.6" y="946.922"/>
      <point x="1043" y="948" type="curve" smooth="yes"/>
      <point x="1086" y="950"/>
      <point x="1100" y="924"/>
      <point x="1100" y="876" type="curve" smooth="yes"/>
      <point x="1100" y="0" type="line"/>
      <point x="1472" y="0" type="line"/>
      <point x="1472" y="917" type="line" smooth="yes"/>
      <point x="1472" y="1091"/>
      <point x="1383" y="1206"/>
      <point x="1238" y="1206" type="curve" smooth="yes"/>
      <point x="1131.5" y="1206"/>
      <point x="1035.12" y="1174.37"/>
      <point x="938.456" y="1069.49" type="curve"/>
      <point x="901.316" y="1154.98"/>
      <point x="829.58" y="1206"/>
      <point x="733" y="1206" type="curve" smooth="yes"/>
      <point x="635.146" y="1206"/>
      <point x="545.837" y="1179.3"/>
      <point x="457" y="1093.61" type="curve"/>
      <point x="457" y="1184" type="line"/>
      <point x="85" y="1184" type="line"/>
    </contour>
  </outline>
</glyph>
<glyph name="n" format="1">
  <advance width="1053"/>
  <unicode hex="006E"/>
  <outline>
    <contour>
      <point x="85" y="0" type="line"/>
      <point x="457" y="0" type="line"/>
      <point x="457" y="915.603" type="line"/>
      <point x="493.322" y="938.007"/>
      <point x="524.686" y="946.76"/>
      <point x="547" y="948" type="curve" smooth="yes"/>
      <point x="590" y="950"/>
      <point x="604" y="924"/>
      <point x="604" y="876" type="curve" smooth="yes"/>
      <point x="604" y="0" type="line"/>
      <point x="976" y="0" type="line"/>
      <point x="976" y="917" type="line" smooth="yes"/>
      <point x="976" y="1091"/>
      <point x="887" y="1206"/>
      <point x="742" y="1206" type="curve" smooth="yes"/>
      <point x="640.841" y="1206"/>
      <point x="548.814" y="1177.46"/>
      <point x="457" y="1084.72" type="curve"/>
      <point x="457" y="1184" type="line"/>
      <point x="85" y="1184" type="line"/>
    </contour>
  </outline>
</glyph>
<glyph name="o" format="1">
  <advance width="1027"/>
  <unicode hex="006F"/>
  <outline>
    <contour>
      <point x="512" y="241" type="curve" smooth="yes"/>
      <point x="468" y="241"/>
      <point x="444" y="269"/>
      <point x="444" y="343" type="curve" smooth="yes"/>
      <point x="444" y="841" type="line" smooth="yes"/>
      <point x="444" y="915"/>
      <point x="468" y="943"/>
      <point x="512" y="943" type="curve" smooth="yes"/>
      <point x="559" y="943"/>
      <point x="583" y="918"/>
      <point x="583" y="841" type="curve" smooth="yes"/>
      <point x="583" y="343" type="line" smooth="yes"/>
      <point x="583" y="266"/>
      <point x="559" y="241"/>
    </contour>
    <contour>
      <point x="511" y="-22" type="curve" smooth="yes"/>
      <point x="759" y="-22"/>
      <point x="949" y="94"/>
      <point x="949" y="349" type="curve" smooth="yes"/>
      <point x="949" y="835" type="line" smooth="yes"/>
      <point x="949" y="1090"/>
      <point x="759" y="1206"/>
      <point x="511" y="1206" type="curve" smooth="yes"/>
      <point x="263" y="1206"/>
      <point x="78" y="1089"/>
      <point x="78" y="835" type="curve" smooth="yes"/>
      <point x="78" y="349" type="line" smooth="yes"/>
      <point x="78" y="95"/>
      <point x="263" y="-22"/>
    </contour>
  </outline>
</glyph>
<glyph name="p" format="1">
  <advance width="1075"/>
  <unicode hex="0070"/>
  <outline>
    <contour>
      <point x="102" y="-390" type="line"/>
      <point x="474" y="-390" type="line"/>
      <point x="474" y="90" type="line"/>
      <point x="561" y="18"/>
      <point x="656.508" y="-22"/>
      <point x="743" y="-22" type="curve" smooth="yes"/>
      <point x="888" y="-22"/>
      <point x="989" y="93"/>
      <point x="989" y="303" type="curve" smooth="yes"/>
      <point x="989" y="890" type="line" smooth="yes"/>
      <point x="989" y="1100"/>
      <point x="897" y="1199"/>
      <point x="743" y="1206" type="curve" smooth="yes"/>
      <point x="664.506" y="1209.51"/>
      <point x="567" y="1177"/>
      <point x="474" y="1100" type="curve"/>
      <point x="474" y="1184" type="line"/>
      <point x="102" y="1184" type="line"/>
    </contour>
    <contour>
      <point x="540" y="207" type="curve" smooth="yes"/>
      <point x="521" y="208"/>
      <point x="498" y="217"/>
      <point x="474" y="231" type="curve"/>
      <point x="474" y="963" type="line"/>
      <point x="500" y="981"/>
      <point x="523" y="993"/>
      <point x="540" y="996" type="curve" smooth="yes"/>
      <point x="585" y="1003"/>
      <point x="616" y="966"/>
      <point x="616" y="925" type="curve" smooth="yes"/>
      <point x="616" y="279" type="line" smooth="yes"/>
      <point x="616" y="238"/>
      <point x="585" y="206"/>
    </contour>
  </outline>
</glyph>
<glyph name="q" format="1">
  <advance width="1070"/>
  <unicode hex="0071"/>
  <outline>
    <contour>
      <point x="596" y="-390" type="line"/>
      <point x="968" y="-390" type="line"/>
      <point x="968" y="1184" type="line"/>
      <point x="596" y="1184" type="line"/>
      <point x="596" y="1102.88" type="line"/>
      <point x="522.182" y="1167.41"/>
      <point x="439.936" y="1206"/>
      <point x="347" y="1206" type="curve" smooth="yes"/>
      <point x="185" y="1206"/>
      <point x="78" y="1082"/>
      <point x="78" y="881" type="curve" smooth="yes"/>
      <point x="78" y="303" type="line" smooth="yes"/>
      <point x="78" y="97"/>
      <point x="177" y="-22"/>
      <point x="344" y="-22" type="curve" smooth="yes"/>
      <point x="429.361" y="-22"/>
      <point x="514.419" y="23.7967"/>
      <point x="596" y="105.368" type="curve"/>
    </contour>
    <contour>
      <point x="520" y="204" type="curve" smooth="yes"/>
      <point x="478" y="204"/>
      <point x="452" y="240"/>
      <point x="452" y="281" type="curve" smooth="yes"/>
      <point x="452" y="896" type="line" smooth="yes"/>
      <point x="452" y="950"/>
      <point x="476" y="986"/>
      <point x="524" y="986" type="curve" smooth="yes"/>
      <point x="545.597" y="986"/>
      <point x="570.257" y="977.406"/>
      <point x="596" y="963.67" type="curve"/>
      <point x="596" y="235.227" type="line"/>
      <point x="566.159" y="216.359"/>
      <point x="539.266" y="204"/>
    </contour>
  </outline>
</glyph>
<glyph name="r" format="1">
  <advance width="795"/>
  <unicode hex="0072"/>
  <outline>
    <contour>
      <point x="106" y="0" type="line"/>
      <point x="478" y="0" type="line"/>
      <point x="478" y="722.036" type="line"/>
      <point x="544.274543598" y="816.614996449"/>
      <point x="623.351646134" y="871.845497763"/>
      <point x="731.800458573" y="879.16508964" type="curve" smooth="yes"/>
      <point x="740.028808337" y="879.720449913"/>
      <point x="748.426243116" y="880.0"/>
      <point x="757" y="880" type="curve"/>
      <point x="757" y="1188" type="line"/>
      <point x="739" y="1195"/>
      <point x="722" y="1198"/>
      <point x="706" y="1198" type="curve" smooth="yes"/>
      <point x="617.859" y="1198"/>
      <point x="541.634" y="1110.32"/>
      <point x="478" y="976.806" type="curve"/>
      <point x="478" y="1184" type="line"/>
      <point x="106" y="1184" type="line"/>
    </contour>
  </outline>
</glyph>
<glyph name="s" format="1">
  <advance width="902"/>
  <unicode hex="0073"/>
  <outline>
    <contour>
      <point x="477" y="-22" type="curve" smooth="yes"/>
      <point x="673" y="-22"/>
      <point x="872" y="97"/>
      <point x="872" y="306" type="curve" smooth="yes"/>
      <point x="872" y="458"/>
      <point x="749" y="555"/>
      <point x="641" y="648" type="curve"/>
      <point x="603" y="680" type="line" smooth="yes"/>
      <point x="507" y="762"/>
      <point x="390" y="840"/>
      <point x="400" y="899" type="curve" smooth="yes"/>
      <point x="402" y="912"/>
      <point x="412" y="947"/>
      <point x="459" y="943" type="curve" smooth="yes"/>
      <point x="520" y="938"/>
      <point x="559" y="851"/>
      <point x="583" y="788" type="curve"/>
      <point x="842" y="905" type="line"/>
      <point x="787" y="1085"/>
      <point x="635" y="1206"/>
      <point x="437" y="1206" type="curve" smooth="yes"/>
      <point x="239" y="1206"/>
      <point x="63" y="1063"/>
      <point x="63" y="867" type="curve"/>
      <point x="62" y="740"/>
      <point x="180" y="603"/>
      <point x="287" y="513" type="curve" smooth="yes"/>
      <point x="332" y="475" type="line" smooth="yes"/>
      <point x="411" y="408"/>
      <point x="518" y="335"/>
      <point x="519" y="287" type="curve" smooth="yes"/>
      <point x="520" y="251"/>
      <point x="496" y="227"/>
      <point x="467" y="227" type="curve" smooth="yes"/>
      <point x="393" y="227"/>
      <point x="351" y="330"/>
      <point x="320" y="402" type="curve"/>
      <point x="45" y="315" type="line"/>
      <point x="111.652" y="82.247"/>
      <point x="276.241" y="-22"/>
    </contour>
  </outline>
</glyph>
<glyph name="t" format="1">
  <advance width="740"/>
  <unicode hex="0074"/>
  <outline>
    <contour>
      <point x="450" y="-13" type="curve" smooth="yes"/>
      <point x="521" y="-13"/>
      <point x="629" y="-14"/>
      <point x="695" y="7" type="curve"/>
      <point x="695" y="304" type="line"/>
      <point x="663" y="300"/>
      <point x="614" y="300"/>
      <point x="582" y="300" type="curve" smooth="yes"/>
      <point x="529" y="300"/>
      <point x="505" y="321"/>
      <point x="505" y="361" type="curve" smooth="yes"/>
      <point x="505" y="925" type="line"/>
      <point x="659" y="925" type="line"/>
      <point x="659" y="1184" type="line"/>
      <point x="505" y="1184" type="line"/>
      <point x="505" y="1550" type="line"/>
      <point x="128" y="1550" type="line"/>
      <point x="128" y="1184" type="line"/>
      <point x="18" y="1184" type="line"/>
      <point x="18" y="925" type="line"/>
      <point x="128" y="925" type="line"/>
      <point x="128" y="469" type="line" smooth="yes"/>
      <point x="128" y="234"/>
      <point x="158" y="-13"/>
    </contour>
  </outline>
</glyph>
<glyph name="u" format="1">
  <advance width="1042"/>
  <unicode hex="0075"/>
  <outline>
    <contour>
      <point x="312" y="-22" type="curve" smooth="yes"/>
      <point x="408.752" y="-22"/>
      <point x="497.151" y="4.1033"/>
      <point x="585" y="87.52" type="curve"/>
      <point x="585" y="0" type="line"/>
      <point x="957" y="0" type="line"/>
      <point x="957" y="1184" type="line"/>
      <point x="585" y="1184" type="line"/>
      <point x="585" y="261.381" type="line"/>
      <point x="553.773" y="244.128"/>
      <point x="526.817" y="237.101"/>
      <point x="507" y="236" type="curve" smooth="yes"/>
      <point x="464" y="234"/>
      <point x="450" y="260"/>
      <point x="450" y="308" type="curve" smooth="yes"/>
      <point x="450" y="1184" type="line"/>
      <point x="78" y="1184" type="line"/>
      <point x="78" y="267" type="line" smooth="yes"/>
      <point x="78" y="93"/>
      <point x="167" y="-22"/>
    </contour>
  </outline>
</glyph>
<glyph name="v" format="1">
  <advance width="888"/>
  <unicode hex="0076"/>
  <outline>
    <contour>
      <point x="256" y="0" type="line"/>
      <point x="628" y="0" type="line"/>
      <point x="878" y="1184" type="line"/>
      <point x="525" y="1184" type="line"/>
      <point x="452" y="496" type="line"/>
      <point x="370" y="1184" type="line"/>
      <point x="18" y="1184" type="line"/>
    </contour>
  </outline>
</glyph>
<glyph name="x" format="1">
  <advance width="945"/>
  <unicode hex="0078"/>
  <outline>
    <contour>
      <point x="13" y="0" type="line"/>
      <point x="314" y="0" type="line"/>
      <point x="465" y="433" type="line"/>
      <point x="644" y="544" type="line"/>
      <point x="889" y="1184" type="line"/>
      <point x="619" y="1184" type="line"/>
      <point x="455" y="759" type="line"/>
      <point x="282" y="714" type="line"/>
    </contour>
    <contour>
      <point x="551" y="0" type="line"/>
      <point x="932" y="0" type="line"/>
      <point x="408" y="1184" type="line"/>
      <point x="30" y="1184" type="line"/>
    </contour>
  </outline>
</glyph>
<glyph name="z" format="1">
  <advance width="812"/>
  <unicode hex="007A"/>
  <outline>
    <contour>
      <point x="67" y="0" type="line"/>
      <point x="762" y="0" type="line"/>
      <point x="762" y="271" type="line"/>
      <point x="451" y="271" type="line"/>
      <point x="752" y="952" type="line"/>
      <point x="752" y="1184" type="line"/>
      <point x="88" y="1184" type="line"/>
      <point x="88" y="914" type="line"/>
      <point x="370" y="914" type="line"/>
      <point x="67" y="238" type="line"/>
    </contour>
  </outline>
</glyph>
<glyph name="bar" format="1">
  <advance width="553"/>
  <unicode hex="007C"/>
  <outline>
    <contour>
      <point x="128" y="-390" type="line"/>
      <point x="425" y="-390" type="line"/>
      <point x="425" y="1658" type="line"/>
      <point x="128" y="1658" type="line"/>
    </contour>
  </outline>
</glyph>
<glyph name="braceright" format="1">
  <advance width="817"/>
  <unicode hex="007D"/>
  <outline>
    <contour>
      <point x="70" y="-396" type="line"/>
      <point x="531" y="-396"/>
      <point x="577" y="-258"/>
      <point x="577" y="52" type="curve" smooth="yes"/>
      <point x="577" y="172" type="line" smooth="yes"/>
      <point x="577" y="488"/>
      <point x="578" y="518"/>
      <point x="715" y="518" type="curve"/>
      <point x="715" y="788" type="line"/>
      <point x="578" y="788"/>
      <point x="577" y="818"/>
      <point x="577" y="1134" type="curve" smooth="yes"/>
      <point x="577" y="1254" type="line" smooth="yes"/>
      <point x="577" y="1564"/>
      <point x="531" y="1702"/>
      <point x="70" y="1702" type="curve"/>
      <point x="70" y="1459" type="line"/>
      <point x="216" y="1459"/>
      <point x="243" y="1430"/>
      <point x="243" y="1229" type="curve" smooth="yes"/>
      <point x="243" y="1092" type="line" smooth="yes"/>
      <point x="243" y="850"/>
      <point x="272" y="691"/>
      <point x="435" y="653" type="curve"/>
      <point x="272" y="615"/>
      <point x="243" y="456"/>
      <point x="243" y="214" type="curve" smooth="yes"/>
      <point x="243" y="77" type="line" smooth="yes"/>
      <point x="243" y="-124"/>
      <point x="216" y="-153"/>
      <point x="70" y="-153" type="curve"/>
    </contour>
  </outline>
</glyph>
<glyph name="cent" format="1">
  <advance width="984"/>
  <unicode hex="00A2"/>
  <outline>
    <component base="c"/>
    <contour>
      <point x="458" y="-308" type="line"/>
      <point x="549" y="-308" type="line"/>
      <point x="549" y="14" type="line"/>
      <point x="458" y="14" type="line"/>
    </contour>
    <contour>
      <point x="458" y="1169" type="line"/>
      <point x="549" y="1169" type="line"/>
      <point x="549" y="1488" type="line"/>
      <point x="458" y="1488" type="line"/>
    </contour>
  </outline>
</glyph>
<glyph name="yen" format="1">
  <advance width="986"/>
  <unicode hex="00A5"/>
  <outline>
    <component base="Y"/>
    <contour>
      <point x="129" y="247" type="line"/>
      <point x="859" y="247" type="line"/>
      <point x="859" y="418" type="line"/>
      <point x="649" y="418" type="line"/>
      <point x="649" y="558" type="line"/>
      <point x="859" y="558" type="line"/>
      <point x="859" y="737" type="line"/>
      <point x="129" y="737" type="line"/>
      <point x="129" y="558" type="line"/>
      <point x="338" y="558" type="line"/>
      <point x="338" y="418" type="line"/>
      <point x="129" y="418" type="line"/>
    </contour>
  </outline>
</glyph>
<glyph name="copyright" format="1">
  <advance width="1824"/>
  <unicode hex="00A9"/>
  <outline>
    <contour>
      <point x="909.5741" y="252.253142" type="curve" smooth="yes"/>
      <point x="1176.0997" y="252.253142"/>
      <point x="1367.3963" y="361.645666"/>
      <point x="1367.3963" y="585.145909" type="curve" smooth="yes"/>
      <point x="1367.3963" y="740.747344" type="line"/>
      <point x="976.2055" y="740.747344" type="line"/>
      <point x="976.2055" y="583.259831" type="line" smooth="yes"/>
      <point x="976.2055" y="510.645828"/>
      <point x="943.9645" y="500.272399"/>
      <point x="909.5741" y="500.272399" type="curve" smooth="yes"/>
      <point x="877.3331" y="500.272399"/>
      <point x="848.3162" y="521.019257"/>
      <point x="848.3162" y="590.804143" type="curve" smooth="yes"/>
      <point x="848.3162" y="1073.640111" type="line" smooth="yes"/>
      <point x="848.3162" y="1143.424997"/>
      <point x="877.3331" y="1164.171855"/>
      <point x="909.5741" y="1164.171855" type="curve" smooth="yes"/>
      <point x="943.9645" y="1164.171855"/>
      <point x="976.2055" y="1153.798426"/>
      <point x="976.2055" y="1081.184423" type="curve" smooth="yes"/>
      <point x="976.2055" y="942.55769" type="line"/>
      <point x="1367.3963" y="942.55769" type="line"/>
      <point x="1367.3963" y="1079.298345" type="line" smooth="yes"/>
      <point x="1367.3963" y="1302.798588"/>
      <point x="1176.0997" y="1410.305034"/>
      <point x="909.5741" y="1410.305034" type="curve" smooth="yes"/>
      <point x="643.0485" y="1410.305034"/>
      <point x="446.3784" y="1284.880847"/>
      <point x="446.3784" y="1062.323643" type="curve" smooth="yes"/>
      <point x="446.3784" y="602.120611" type="line" smooth="yes"/>
      <point x="446.3784" y="379.563407"/>
      <point x="643.0485" y="252.253142"/>
    </contour>
    <contour>
      <point x="915" y="51" type="curve" smooth="yes"/>
      <point x="411" y="51"/>
      <point x="192" y="435"/>
      <point x="192" y="826" type="curve" smooth="yes"/>
      <point x="192" y="1219"/>
      <point x="411" y="1597"/>
      <point x="915" y="1597" type="curve" smooth="yes"/>
      <point x="1416" y="1597"/>
      <point x="1636" y="1219"/>
      <point x="1636" y="826" type="curve" smooth="yes"/>
      <point x="1636" y="435"/>
      <point x="1416" y="51"/>
    </contour>
    <contour>
      <point x="913" y="-28" type="curve" smooth="yes"/>
      <point x="1493" y="-28"/>
      <point x="1726" y="415"/>
      <point x="1726" y="828" type="curve" smooth="yes"/>
      <point x="1726" y="1241"/>
      <point x="1491" y="1684"/>
      <point x="913" y="1684" type="curve" smooth="yes"/>
      <point x="333" y="1684"/>
      <point x="98" y="1241"/>
      <point x="98" y="828" type="curve" smooth="yes"/>
      <point x="98" y="417"/>
      <point x="333" y="-28"/>
    </contour>
  </outline>
</glyph>
<glyph name="guillemotleft" format="1">
  <advance width="1020"/>
  <unicode hex="00AB"/>
  <outline>
    <contour>
      <point x="506" y="74" type="line"/>
      <point x="506" y="409" type="line"/>
      <point x="284" y="615" type="line"/>
      <point x="506" y="823" type="line"/>
      <point x="506" y="1158" type="line"/>
      <point x="80" y="674" type="line"/>
      <point x="80" y="558" type="line"/>
    </contour>
    <contour>
      <point x="964" y="74" type="line"/>
      <point x="964" y="409" type="line"/>
      <point x="741" y="615" type="line"/>
      <point x="964" y="823" type="line"/>
      <point x="964" y="1158" type="line"/>
      <point x="537" y="674" type="line"/>
      <point x="537" y="558" type="line"/>
    </contour>
  </outline>
</glyph>
<glyph name="logicalnot" format="1">
  <advance width="1099"/>
  <unicode hex="00AC"/>
  <outline>
    <contour>
      <point x="805" y="384" type="line"/>
      <point x="987" y="384" type="line"/>
      <point x="987" y="983" type="line"/>
      <point x="100" y="983" type="line"/>
      <point x="100" y="740" type="line"/>
      <point x="805" y="740" type="line"/>
    </contour>
  </outline>
</glyph>
<glyph name="uni00AD" format="1">
  <advance width="781"/>
  <unicode hex="00AD"/>
  <outline>
    <contour>
      <point x="138" y="383" type="line"/>
      <point x="664" y="383" type="line"/>
      <point x="664" y="669" type="line"/>
      <point x="138" y="669" type="line"/>
    </contour>
  </outline>
</glyph>
<glyph name="macron" format="1">
  <advance width="278"/>
  <unicode hex="00AF"/>
  <outline>
    <contour>
      <point x="-138" y="1495" type="line"/>
      <point x="424" y="1495" type="line"/>
      <point x="424" y="1658" type="line"/>
      <point x="-138" y="1658" type="line"/>
    </contour>
  </outline>
</glyph>
<glyph name="plusminus" format="1">
  <advance width="1068"/>
  <unicode hex="00B1"/>
  <outline>
    <contour>
      <point x="423" y="386" type="line"/>
      <point x="646" y="386" type="line"/>
      <point x="646" y="683" type="line"/>
      <point x="930" y="683" type="line"/>
      <point x="930" y="887" type="line"/>
      <point x="646" y="887" type="line"/>
      <point x="646" y="1184" type="line"/>
      <point x="423" y="1184" type="line"/>
      <point x="423" y="887" type="line"/>
      <point x="138" y="887" type="line"/>
      <point x="138" y="683" type="line"/>
      <point x="423" y="683" type="line"/>
    </contour>
    <contour>
      <point x="138" y="0" type="line"/>
      <point x="930" y="0" type="line"/>
      <point x="930" y="213" type="line"/>
      <point x="138" y="213" type="line"/>
    </contour>
  </outline>
</glyph>
<glyph name="acute" format="1">
  <advance width="650"/>
  <unicode hex="00B4"/>
  <outline>
    <contour>
      <point x="108" y="1243" type="line"/>
      <point x="351" y="1243" type="line"/>
      <point x="619" y="1658" type="line"/>
      <point x="236" y="1658" type="line"/>
    </contour>
  </outline>
</glyph>
<glyph name="mu" format="1">
  <advance width="1042"/>
  <unicode hex="00B5"/>
  <outline>
    <contour>
      <point x="79" y="249" type="line"/>
      <point x="79" y="-391" type="line"/>
      <point x="450" y="-391" type="line"/>
      <point x="450" y="249" type="line"/>
    </contour>
    <component base="u"/>
  </outline>
</glyph>
<glyph name="paragraph" format="1">
  <advance width="1025"/>
  <unicode hex="00B6"/>
  <outline>
    <contour>
      <point x="314" y="0" type="line"/>
      <point x="519" y="0" type="line"/>
      <point x="519" y="1439" type="line"/>
      <point x="692" y="1439" type="line"/>
      <point x="692" y="0" type="line"/>
      <point x="881" y="0" type="line"/>
      <point x="881" y="1658" type="line"/>
      <point x="416" y="1658" type="line" smooth="yes"/>
      <point x="211" y="1658"/>
      <point x="9" y="1588"/>
      <point x="9" y="1321" type="curve" smooth="yes"/>
      <point x="9" y="1112"/>
      <point x="133" y="993"/>
      <point x="314" y="987" type="curve"/>
    </contour>
  </outline>
</glyph>
<glyph name="uni00B9" format="1">
  <advance width="731"/>
  <unicode hex="00B9"/>
  <outline>
    <contour>
      <point x="239" y="442" type="line"/>
      <point x="580" y="442" type="line"/>
      <point x="580" y="1658" type="line"/>
      <point x="239" y="1658" type="line"/>
      <point x="226" y="1646"/>
      <point x="115" y="1563"/>
      <point x="74" y="1550" type="curve"/>
      <point x="74" y="1317" type="line"/>
      <point x="239" y="1405" type="line"/>
    </contour>
  </outline>
</glyph>
<glyph name="onequarter" format="1">
  <advance width="1306"/>
  <unicode hex="00BC"/>
  <outline>
    <contour>
      <point x="938" y="0" type="line"/>
      <point x="1104" y="0" type="line"/>
      <point x="1104" y="226" type="line"/>
      <point x="1207" y="226" type="line"/>
      <point x="1207" y="391" type="line"/>
      <point x="1104" y="391" type="line"/>
      <point x="1104" y="847" type="line"/>
      <point x="954" y="847" type="line"/>
      <point x="673" y="380" type="line"/>
      <point x="673" y="226" type="line"/>
      <point x="938" y="226" type="line"/>
    </contour>
    <contour>
      <point x="222" y="827" type="line"/>
      <point x="428" y="827" type="line"/>
      <point x="428" y="1658" type="line"/>
      <point x="299" y="1658" type="line"/>
      <point x="260" y="1609"/>
      <point x="204" y="1552"/>
      <point x="99" y="1495" type="curve"/>
      <point x="99" y="1327" type="line"/>
      <point x="222" y="1405" type="line"/>
    </contour>
    <contour>
      <point x="144" y="0" type="line"/>
      <point x="300" y="0" type="line"/>
      <point x="1157" y="1658" type="line"/>
      <point x="1000" y="1658" type="line"/>
    </contour>
    <contour>
      <point x="791" y="391" type="line"/>
      <point x="938" y="644" type="line"/>
      <point x="938" y="391" type="line"/>
    </contour>
  </outline>
</glyph>
<glyph name="questiondown" format="1">
  <advance width="1068"/>
  <unicode hex="00BF"/>
  <outline>
    <contour>
      <point x="550" y="-363" type="curve" smooth="yes"/>
      <point x="866" y="-363"/>
      <point x="955" y="-181"/>
      <point x="955" y="24" type="curve" smooth="yes"/>
      <point x="955" y="110"/>
      <point x="942" y="145"/>
      <point x="918" y="239" type="curve"/>
      <point x="584" y="160" type="line"/>
      <point x="601" y="107"/>
      <point x="610" y="102"/>
      <point x="610" y="42" type="curve" smooth="yes"/>
      <point x="610" y="-14"/>
      <point x="573" y="-44"/>
      <point x="539" y="-44" type="curve" smooth="yes"/>
      <point x="506" y="-44"/>
      <point x="461" y="-41"/>
      <point x="454" y="39" type="curve" smooth="yes"/>
      <point x="434" y="256"/>
      <point x="587.63" y="473.611"/>
      <point x="764" y="613" type="curve"/>
      <point x="764" y="881" type="line"/>
      <point x="424" y="881" type="line"/>
      <point x="424" y="680" type="line"/>
      <point x="237" y="576"/>
      <point x="84" y="291"/>
      <point x="84" y="55" type="curve" smooth="yes"/>
      <point x="84" y="-207"/>
      <point x="247" y="-363"/>
    </contour>
    <contour>
      <point x="413" y="976" type="line"/>
      <point x="773" y="976" type="line"/>
      <point x="773" y="1324" type="line"/>
      <point x="413" y="1324" type="line"/>
    </contour>
  </outline>
</glyph>
<glyph name="Eth" format="1">
  <advance width="1185"/>
  <unicode hex="00D0"/>
  <outline>
    <contour>
      <point x="510" y="284" type="line"/>
      <point x="510" y="746" type="line"/>
      <point x="581" y="746" type="line"/>
      <point x="581" y="946" type="line"/>
      <point x="510" y="946" type="line"/>
      <point x="510" y="1374" type="line"/>
      <point x="545" y="1374" type="line" smooth="yes"/>
      <point x="680" y="1374"/>
      <point x="694" y="1332"/>
      <point x="694" y="1224" type="curve" smooth="yes"/>
      <point x="694" y="435" type="line" smooth="yes"/>
      <point x="694" y="327"/>
      <point x="680" y="284"/>
      <point x="545" y="284" type="curve" smooth="yes"/>
    </contour>
    <contour>
      <point x="98" y="0" type="line"/>
      <point x="538" y="0" type="line" smooth="yes"/>
      <point x="994" y="0"/>
      <point x="1118" y="149"/>
      <point x="1118" y="530" type="curve" smooth="yes"/>
      <point x="1118" y="1128" type="line" smooth="yes"/>
      <point x="1118" y="1509"/>
      <point x="994" y="1658"/>
      <point x="538" y="1658" type="curve" smooth="yes"/>
      <point x="98" y="1658" type="line"/>
      <point x="98" y="946" type="line"/>
      <point x="10" y="946" type="line"/>
      <point x="10" y="746" type="line"/>
      <point x="98" y="746" type="line"/>
    </contour>
  </outline>
</glyph>
<glyph name="Oslash" format="1">
  <advance width="1192"/>
  <unicode hex="00D8"/>
  <outline>
    <contour>
      <point x="216" y="-197" type="line"/>
      <point x="1028" y="1779" type="line"/>
      <point x="949" y="1814" type="line"/>
      <point x="137" y="-162" type="line"/>
    </contour>
    <component base="O"/>
  </outline>
</glyph>
<glyph name="germandbls" format="1">
  <advance width="1129"/>
  <unicode hex="00DF"/>
  <outline>
    <contour>
      <point x="541" y="-35" type="line"/>
      <point x="879" y="-35"/>
      <point x="1101" y="92"/>
      <point x="1101" y="459" type="curve" smooth="yes"/>
      <point x="1101" y="652"/>
      <point x="968" y="818"/>
      <point x="744" y="883" type="curve"/>
      <point x="933" y="954"/>
      <point x="1000" y="1084"/>
      <point x="1000" y="1232" type="curve" smooth="yes"/>
      <point x="1000" y="1515"/>
      <point x="863" y="1686"/>
      <point x="535" y="1686" type="curve" smooth="yes"/>
      <point x="215.738538504" y="1686.0"/>
      <point x="100.395582756" y="1469.00979516"/>
      <point x="86.4692791369" y="1259.55725533" type="curve" smooth="yes"/>
      <point x="85.4774156355" y="1244.63956179"/>
      <point x="85.0" y="1229.76010394"/>
      <point x="85" y="1215" type="curve"/>
      <point x="457" y="1215" type="line"/>
      <point x="456.670906514" y="1226.68281876"/>
      <point x="456.585074031" y="1237.94596524"/>
      <point x="456.749288946" y="1248.77941523" type="curve" smooth="yes"/>
      <point x="458.581040791" y="1369.62222683"/>
      <point x="491.52497067" y="1437.0"/>
      <point x="565" y="1437" type="curve" smooth="yes"/>
      <point x="629" y="1437"/>
      <point x="694" y="1376"/>
      <point x="694" y="1224" type="curve" smooth="yes"/>
      <point x="694" y="1051.93"/>
      <point x="639" y="986"/>
      <point x="560" y="986" type="curve" smooth="yes"/>
      <point x="560" y="986"/>
      <point x="564.0" y="704.0"/>
      <point x="564" y="704" type="curve" smooth="yes"/>
      <point x="641" y="704"/>
      <point x="721.65" y="623.602"/>
      <point x="731" y="514" type="curve" smooth="yes"/>
      <point x="749" y="303"/>
      <point x="657" y="243"/>
      <point x="541" y="243" type="curve"/>
    </contour>
    <component base="lc_xheight_stem" yScale="1.02676" xOffset="8"/>
  </outline>
</glyph>
<glyph name="ae" format="1">
  <advance width="1375"/>
  <unicode hex="00E6"/>
  <outline>
    <contour>
      <point x="381" y="-27" type="curve" smooth="yes"/>
      <point x="494" y="-27"/>
      <point x="633" y="25"/>
      <point x="682" y="135" type="curve"/>
      <point x="712" y="22"/>
      <point x="863" y="-27"/>
      <point x="958" y="-27" type="curve" smooth="yes"/>
      <point x="1176" y="-26"/>
      <point x="1300" y="92"/>
      <point x="1300" y="302" type="curve" smooth="yes"/>
      <point x="1300" y="414" type="line"/>
      <point x="963" y="414" type="line"/>
      <point x="963" y="345" type="line" smooth="yes"/>
      <point x="963" y="277"/>
      <point x="969" y="232"/>
      <point x="923" y="232" type="curve" smooth="yes"/>
      <point x="883" y="232"/>
      <point x="877" y="266"/>
      <point x="877" y="346" type="curve" smooth="yes"/>
      <point x="877" y="603" type="line"/>
      <point x="924.833707869" y="611.522097379"/>
      <point x="979.620178718" y="622.61369412"/>
      <point x="1033.92173369" y="639.411911752" type="curve" smooth="yes"/>
      <point x="1177.14763344" y="683.718927189"/>
      <point x="1317.0" y="767.726591766"/>
      <point x="1317" y="949" type="curve" smooth="yes"/>
      <point x="1317" y="1079"/>
      <point x="1202" y="1245"/>
      <point x="961" y="1245" type="curve" smooth="yes"/>
      <point x="832" y="1245"/>
      <point x="720" y="1176"/>
      <point x="688" y="1084" type="curve"/>
      <point x="666" y="1174"/>
      <point x="569" y="1246"/>
      <point x="439" y="1246" type="curve" smooth="yes"/>
      <point x="169" y="1246"/>
      <point x="48" y="1078"/>
      <point x="54" y="787" type="curve"/>
      <point x="412" y="787" type="line"/>
      <point x="412" y="913"/>
      <point x="444" y="926"/>
      <point x="473" y="926" type="curve" smooth="yes"/>
      <point x="502" y="926"/>
      <point x="529" y="914"/>
      <point x="529" y="844" type="curve" smooth="yes"/>
      <point x="529" y="699" type="line"/>
      <point x="483.181202173" y="691.020321727"/>
      <point x="429.212500458" y="683.106902835"/>
      <point x="374.325536883" y="669.699565726" type="curve" smooth="yes"/>
      <point x="215.983869858" y="631.021162513"/>
      <point x="50.0" y="546.619813323"/>
      <point x="50" y="283" type="curve" smooth="yes"/>
      <point x="50" y="71"/>
      <point x="205" y="-27"/>
    </contour>
    <contour>
      <point x="448" y="218" type="curve" smooth="yes"/>
      <point x="384" y="218"/>
      <point x="368" y="289"/>
      <point x="368" y="318" type="curve" smooth="yes"/>
      <point x="368.0" y="351.215344906"/>
      <point x="382.507023501" y="459.141860839"/>
      <point x="474.532981387" y="520.080072854" type="curve" smooth="yes"/>
      <point x="490.559863769" y="530.692834503"/>
      <point x="508.937922478" y="539.8804245"/>
      <point x="530" y="547" type="curve"/>
      <point x="532" y="317" type="line" smooth="yes"/>
      <point x="532" y="231"/>
      <point x="495" y="218"/>
    </contour>
    <contour>
      <point x="876" y="764" type="curve"/>
      <point x="876" y="902" type="line" smooth="yes"/>
      <point x="876" y="973"/>
      <point x="917" y="1016"/>
      <point x="955" y="1016" type="curve" smooth="yes"/>
      <point x="986" y="1016"/>
      <point x="1014" y="987"/>
      <point x="1014" y="921" type="curve" smooth="yes"/>
      <point x="1014.0" y="859.0"/>
      <point x="995.0" y="822.0"/>
      <point x="968.25" y="799.375" type="curve" smooth="yes"/>
      <point x="941.5" y="776.75"/>
      <point x="907.0" y="768.5"/>
    </contour>
  </outline>
</glyph>
<glyph name="eth" format="1">
  <advance width="1048"/>
  <unicode hex="00F0"/>
  <outline>
    <contour>
      <point x="515" y="-34" type="curve" smooth="yes"/>
      <point x="737" y="-34"/>
      <point x="960" y="73"/>
      <point x="960" y="367" type="curve" smooth="yes"/>
      <point x="960" y="1054" type="line" smooth="yes"/>
      <point x="960" y="1342"/>
      <point x="876" y="1483"/>
      <point x="826" y="1552" type="curve"/>
      <point x="971" y="1648" type="line"/>
      <point x="913" y="1731" type="line"/>
      <point x="758" y="1625" type="line"/>
      <point x="676" y="1700"/>
      <point x="519" y="1745"/>
      <point x="299" y="1745" type="curve"/>
      <point x="281" y="1486" type="line"/>
      <point x="424" y="1481"/>
      <point x="446" y="1457"/>
      <point x="457" y="1440" type="curve"/>
      <point x="336" y="1368" type="line"/>
      <point x="393" y="1291" type="line"/>
      <point x="515" y="1370" type="line"/>
      <point x="536" y="1346"/>
      <point x="588" y="1281"/>
      <point x="588" y="1105" type="curve"/>
      <point x="515" y="1168"/>
      <point x="433" y="1206"/>
      <point x="341" y="1206" type="curve" smooth="yes"/>
      <point x="179" y="1206"/>
      <point x="72" y="1082"/>
      <point x="72" y="881" type="curve" smooth="yes"/>
      <point x="72" y="323" type="line" smooth="yes"/>
      <point x="72" y="72"/>
      <point x="293" y="-34"/>
    </contour>
    <contour>
      <point x="514" y="204" type="curve" smooth="yes"/>
      <point x="436" y="204"/>
      <point x="436" y="289"/>
      <point x="436" y="594" type="curve" smooth="yes"/>
      <point x="436" y="949"/>
      <point x="436" y="986"/>
      <point x="518" y="986" type="curve" smooth="yes"/>
      <point x="539" y="986"/>
      <point x="563" y="978"/>
      <point x="588" y="965" type="curve"/>
      <point x="588" y="324" type="line" smooth="yes"/>
      <point x="588" y="247"/>
      <point x="569" y="204"/>
    </contour>
  </outline>
</glyph>
<glyph name="divide" format="1">
  <advance width="1068"/>
  <unicode hex="00F7"/>
  <outline>
    <contour>
      <point x="423" y="370" type="line"/>
      <point x="678" y="370" type="line"/>
      <point x="678" y="632" type="line"/>
      <point x="423" y="632" type="line"/>
    </contour>
    <contour>
      <point x="132" y="772" type="line"/>
      <point x="936" y="772" type="line"/>
      <point x="936" y="956" type="line"/>
      <point x="132" y="956" type="line"/>
    </contour>
    <contour>
      <point x="423" y="1095" type="line"/>
      <point x="678" y="1095" type="line"/>
      <point x="678" y="1357" type="line"/>
      <point x="423" y="1357" type="line"/>
    </contour>
  </outline>
</glyph>
<glyph name="oslash" format="1">
  <advance width="1015"/>
  <unicode hex="00F8"/>
  <outline>
    <contour>
      <point x="219" y="-177" type="line"/>
      <point x="857" y="1346" type="line"/>
      <point x="778" y="1381" type="line"/>
      <point x="140" y="-142" type="line"/>
    </contour>
    <component base="o"/>
  </outline>
</glyph>
<glyph name="thorn" format="1">
  <advance width="1044"/>
  <unicode hex="00FE"/>
  <outline>
    <contour>
      <point x="88" y="-390" type="line"/>
      <point x="460" y="-390" type="line"/>
      <point x="460" y="89.5598" type="line"/>
      <point x="546.708" y="18.3754"/>
      <point x="639.508" y="-22"/>
      <point x="726" y="-22" type="curve" smooth="yes"/>
      <point x="871" y="-22"/>
      <point x="972" y="93"/>
      <point x="972" y="303" type="curve" smooth="yes"/>
      <point x="972" y="890" type="line" smooth="yes"/>
      <point x="972" y="1100"/>
      <point x="880" y="1199"/>
      <point x="726" y="1206" type="curve" smooth="yes"/>
      <point x="647.506" y="1209.51"/>
      <point x="552.541" y="1177.34"/>
      <point x="460" y="1100.24" type="curve"/>
      <point x="460" y="1658" type="line"/>
      <point x="88" y="1658" type="line"/>
    </contour>
    <contour>
      <point x="526" y="207" type="curve" smooth="yes"/>
      <point x="506.729" y="207.543"/>
      <point x="484.069" y="216.705"/>
      <point x="460" y="230.988" type="curve"/>
      <point x="460" y="962.96" type="line"/>
      <point x="485.863" y="981.214"/>
      <point x="509.018" y="993.365"/>
      <point x="526" y="996" type="curve" smooth="yes"/>
      <point x="571" y="1003"/>
      <point x="599" y="966"/>
      <point x="599" y="925" type="curve" smooth="yes"/>
      <point x="599" y="279" type="line" smooth="yes"/>
      <point x="599" y="238"/>
      <point x="571" y="206"/>
    </contour>
  </outline>
</glyph>
<glyph name="Dcroat" format="1">
  <advance width="1251"/>
  <unicode hex="0110"/>
  <outline>
    <contour>
      <point x="531" y="284" type="line"/>
      <point x="531" y="756" type="line"/>
      <point x="624" y="756" type="line"/>
      <point x="624" y="936" type="line"/>
      <point x="531" y="936" type="line"/>
      <point x="531" y="1374" type="line"/>
      <point x="588" y="1374" type="line" smooth="yes"/>
      <point x="723" y="1374"/>
      <point x="737" y="1332"/>
      <point x="737" y="1224" type="curve" smooth="yes"/>
      <point x="737" y="435" type="line" smooth="yes"/>
      <point x="737" y="327"/>
      <point x="723" y="284"/>
      <point x="588" y="284" type="curve" smooth="yes"/>
    </contour>
    <contour>
      <point x="131" y="0" type="line"/>
      <point x="571" y="0" type="line" smooth="yes"/>
      <point x="1027" y="0"/>
      <point x="1151" y="149"/>
      <point x="1151" y="530" type="curve" smooth="yes"/>
      <point x="1151" y="1128" type="line" smooth="yes"/>
      <point x="1151" y="1509"/>
      <point x="1027" y="1658"/>
      <point x="571" y="1658" type="curve" smooth="yes"/>
      <point x="131" y="1658" type="line"/>
      <point x="131" y="936" type="line"/>
      <point x="23" y="936" type="line"/>
      <point x="23" y="756" type="line"/>
      <point x="131" y="756" type="line"/>
    </contour>
  </outline>
</glyph>
<glyph name="dcroat" format="1">
  <advance width="978"/>
  <unicode hex="0111"/>
  <outline>
    <contour>
      <point x="338" y="-22" type="curve" smooth="yes"/>
      <point x="420.227" y="-22"/>
      <point x="502.173" y="20.4954"/>
      <point x="581" y="96.5285" type="curve"/>
      <point x="581" y="0" type="line"/>
      <point x="953" y="0" type="line"/>
      <point x="953" y="1395" type="line"/>
      <point x="1045" y="1395" type="line"/>
      <point x="1045" y="1534" type="line"/>
      <point x="953" y="1534" type="line"/>
      <point x="953" y="1658" type="line"/>
      <point x="581" y="1658" type="line"/>
      <point x="581" y="1534" type="line"/>
      <point x="293" y="1534" type="line"/>
      <point x="293" y="1395" type="line"/>
      <point x="581" y="1395" type="line"/>
      <point x="581" y="1110.58" type="line"/>
      <point x="509.51" y="1170.47"/>
      <point x="430.177" y="1206"/>
      <point x="341" y="1206" type="curve" smooth="yes"/>
      <point x="179" y="1206"/>
      <point x="72" y="1082"/>
      <point x="72" y="881" type="curve" smooth="yes"/>
      <point x="72" y="303" type="line" smooth="yes"/>
      <point x="72" y="97"/>
      <point x="171" y="-22"/>
    </contour>
    <contour>
      <point x="514" y="204" type="curve" smooth="yes"/>
      <point x="472" y="204"/>
      <point x="446" y="240"/>
      <point x="446" y="281" type="curve" smooth="yes"/>
      <point x="446" y="896" type="line" smooth="yes"/>
      <point x="446" y="950"/>
      <point x="470" y="986"/>
      <point x="518" y="986" type="curve" smooth="yes"/>
      <point x="537.066" y="986"/>
      <point x="558.521" y="979.301"/>
      <point x="581" y="968.28" type="curve"/>
      <point x="581" y="229.683" type="line"/>
      <point x="554.773" y="213.975"/>
      <point x="531.308" y="204"/>
    </contour>
  </outline>
</glyph>
<glyph name="hbar" format="1">
  <advance width="1064"/>
  <unicode hex="0127"/>
  <outline>
    <component base="lc_ascender_stem" xOffset="26"/>
    <component base="lc_xheight_curve_stem" xOffset="36"/>
    <contour>
      <point x="12" y="1361" type="line"/>
      <point x="768" y="1361" type="line"/>
      <point x="768" y="1524" type="line"/>
      <point x="12" y="1524" type="line"/>
    </contour>
  </outline>
</glyph>
<glyph name="IJ" format="1">
  <advance width="1269"/>
  <unicode hex="0132"/>
  <outline>
    <contour>
      <point x="595" y="-44" type="line"/>
      <point x="796" y="-44" type="line" smooth="yes"/>
      <point x="1101.44" y="-44"/>
      <point x="1184.58" y="95.3914"/>
      <point x="1191.51" y="362" type="curve"/>
      <point x="1192" y="362" type="line"/>
      <point x="1192" y="1658" type="line"/>
      <point x="780" y="1658" type="line"/>
      <point x="780" y="381" type="line" smooth="yes"/>
      <point x="780" y="262"/>
      <point x="727" y="239"/>
      <point x="595" y="242" type="curve"/>
    </contour>
    <contour>
      <point x="98" y="0" type="line"/>
      <point x="510" y="0" type="line"/>
      <point x="510" y="1658" type="line"/>
      <point x="98" y="1658" type="line"/>
    </contour>
  </outline>
</glyph>
<glyph name="kgreenlandic" format="1">
  <advance width="1095"/>
  <unicode hex="0138"/>
  <outline>
    <contour>
      <point x="95" y="0" type="line"/>
      <point x="467" y="0" type="line"/>
      <point x="467" y="490.468" type="line"/>
      <point x="502" y="536" type="line"/>
      <point x="685" y="0" type="line"/>
      <point x="1081" y="0" type="line"/>
      <point x="842" y="630" type="line"/>
      <point x="1074" y="1184" type="line"/>
      <point x="668" y="1184" type="line"/>
      <point x="467" y="699.39" type="line"/>
      <point x="467" y="1184" type="line"/>
      <point x="95" y="1184" type="line"/>
    </contour>
  </outline>
</glyph>
<glyph name="Eng" format="1">
  <advance width="1126"/>
  <unicode hex="014A"/>
  <outline>
    <component base="N"/>
    <contour>
      <point x="455" y="-444" type="line"/>
      <point x="632" y="-444" type="line" smooth="yes"/>
      <point x="952" y="-444"/>
      <point x="1028" y="-291"/>
      <point x="1028" y="1" type="curve"/>
      <point x="677" y="432" type="line"/>
      <point x="677" y="-48" type="line" smooth="yes"/>
      <point x="677" y="-167"/>
      <point x="630" y="-210"/>
      <point x="455" y="-207" type="curve"/>
    </contour>
  </outline>
</glyph>
<glyph name="eng" format="1">
  <advance width="1039"/>
  <unicode hex="014B"/>
  <outline>
    <contour>
      <point x="382" y="-406" type="line"/>
      <point x="523" y="-406" type="line" smooth="yes"/>
      <point x="883" y="-406"/>
      <point x="976" y="-304"/>
      <point x="976" y="-12" type="curve" smooth="yes"/>
      <point x="976" y="917" type="line" smooth="yes"/>
      <point x="976" y="1091"/>
      <point x="887" y="1206"/>
      <point x="742" y="1206" type="curve" smooth="yes"/>
      <point x="640.841" y="1206"/>
      <point x="548.814" y="1177.46"/>
      <point x="457" y="1084.72" type="curve"/>
      <point x="457" y="1184" type="line"/>
      <point x="85" y="1184" type="line"/>
      <point x="85" y="0" type="line"/>
      <point x="457" y="0" type="line"/>
      <point x="457" y="915.603" type="line"/>
      <point x="493.322" y="938.007"/>
      <point x="524.686" y="946.76"/>
      <point x="547" y="948" type="curve" smooth="yes"/>
      <point x="590" y="950"/>
      <point x="604" y="924"/>
      <point x="604" y="876" type="curve" smooth="yes"/>
      <point x="604" y="-10" type="line" smooth="yes"/>
      <point x="604" y="-151"/>
      <point x="566" y="-182"/>
      <point x="382" y="-182" type="curve"/>
    </contour>
  </outline>
</glyph>
<glyph name="OE" format="1">
  <advance width="1493"/>
  <unicode hex="0152"/>
  <outline>
    <contour>
      <point x="609" y="0" type="curve" smooth="yes"/>
      <point x="1441" y="0" type="line"/>
      <point x="1441" y="275" type="line"/>
      <point x="1117" y="275" type="line"/>
      <point x="1117" y="713" type="line"/>
      <point x="1346" y="713" type="line"/>
      <point x="1346" y="999" type="line"/>
      <point x="1117" y="999" type="line"/>
      <point x="1117" y="1375" type="line"/>
      <point x="1441" y="1375" type="line"/>
      <point x="1441" y="1650" type="line"/>
      <point x="609" y="1650" type="line"/>
      <point x="221" y="1649"/>
      <point x="100" y="1376"/>
      <point x="100" y="1046" type="curve" smooth="yes"/>
      <point x="100" y="591" type="line" smooth="yes"/>
      <point x="100" y="242"/>
      <point x="229" y="0"/>
    </contour>
    <contour>
      <point x="609" y="280" type="line"/>
      <point x="517" y="279"/>
      <point x="512" y="413"/>
      <point x="512" y="487" type="curve" smooth="yes"/>
      <point x="512" y="1150" type="line" smooth="yes"/>
      <point x="512" y="1221"/>
      <point x="518" y="1359"/>
      <point x="609" y="1359" type="curve" smooth="yes"/>
      <point x="706" y="1359" type="line"/>
      <point x="706" y="280" type="line"/>
    </contour>
  </outline>
</glyph>
<glyph name="oe" format="1">
  <advance width="1459"/>
  <unicode hex="0153"/>
  <outline>
    <contour>
      <point x="420.943" y="-28.2423" type="curve" smooth="yes"/>
      <point x="590.899" y="-28.2423"/>
      <point x="688.588" y="34.286"/>
      <point x="738" y="120" type="curve"/>
      <point x="778.693" y="25.0502"/>
      <point x="895.447" y="-29.7543"/>
      <point x="1046.41" y="-29.7543" type="curve" smooth="yes"/>
      <point x="1274.27" y="-29.7543"/>
      <point x="1401" y="103.121"/>
      <point x="1401" y="302" type="curve" smooth="yes"/>
      <point x="1401" y="484" type="line"/>
      <point x="1056" y="484" type="line"/>
      <point x="1056" y="301" type="line" smooth="yes"/>
      <point x="1056" y="228"/>
      <point x="1045" y="186"/>
      <point x="1007" y="186" type="curve" smooth="yes"/>
      <point x="975" y="186"/>
      <point x="956" y="229"/>
      <point x="956" y="302" type="curve" smooth="yes"/>
      <point x="956" y="560" type="line"/>
      <point x="1400" y="560" type="line"/>
      <point x="1400" y="861" type="line" smooth="yes"/>
      <point x="1400" y="1081"/>
      <point x="1296" y="1244"/>
      <point x="1036" y="1244" type="curve" smooth="yes"/>
      <point x="941" y="1244"/>
      <point x="790" y="1196"/>
      <point x="748" y="1089" type="curve"/>
      <point x="711" y="1196"/>
      <point x="551" y="1244"/>
      <point x="450" y="1244" type="curve" smooth="yes"/>
      <point x="242" y="1244"/>
      <point x="72" y="1145"/>
      <point x="72" y="909" type="curve" smooth="yes"/>
      <point x="72" y="334" type="line" smooth="yes"/>
      <point x="72" y="78.0679"/>
      <point x="250.978" y="-28.2423"/>
    </contour>
    <contour>
      <point x="494" y="186" type="curve" smooth="yes"/>
      <point x="462" y="186"/>
      <point x="437" y="237"/>
      <point x="437" y="323" type="curve" smooth="yes"/>
      <point x="437" y="930" type="line" smooth="yes"/>
      <point x="437" y="1016"/>
      <point x="473" y="1032"/>
      <point x="500" y="1032" type="curve" smooth="yes"/>
      <point x="530" y="1032"/>
      <point x="564" y="1012"/>
      <point x="564" y="930" type="curve" smooth="yes"/>
      <point x="564" y="322" type="line" smooth="yes"/>
      <point x="564" y="197"/>
      <point x="523" y="186"/>
    </contour>
    <contour>
      <point x="956" y="760" type="line"/>
      <point x="956" y="961" type="line" smooth="yes"/>
      <point x="956" y="1018.46"/>
      <point x="990.922" y="1031.9"/>
      <point x="1006.78" y="1031.9" type="curve" smooth="yes"/>
      <point x="1024.79" y="1031.9"/>
      <point x="1061" y="1011.42"/>
      <point x="1061" y="961" type="curve" smooth="yes"/>
      <point x="1061" y="760" type="line"/>
    </contour>
  </outline>
</glyph>
<glyph name="tbar" format="1">
  <advance width="664"/>
  <unicode hex="0167"/>
  <outline>
    <contour>
      <point x="446" y="-13" type="curve" smooth="yes"/>
      <point x="517" y="-13"/>
      <point x="625" y="-14"/>
      <point x="691" y="7" type="curve"/>
      <point x="691" y="304" type="line"/>
      <point x="659" y="300"/>
      <point x="610" y="300"/>
      <point x="578" y="300" type="curve" smooth="yes"/>
      <point x="525" y="300"/>
      <point x="501" y="321"/>
      <point x="501" y="361" type="curve" smooth="yes"/>
      <point x="501" y="583" type="line"/>
      <point x="657" y="583" type="line"/>
      <point x="657" y="780" type="line"/>
      <point x="501" y="780" type="line"/>
      <point x="501" y="925" type="line"/>
      <point x="655" y="925" type="line"/>
      <point x="655" y="1184" type="line"/>
      <point x="501" y="1184" type="line"/>
      <point x="501" y="1550" type="line"/>
      <point x="124" y="1550" type="line"/>
      <point x="124" y="1184" type="line"/>
      <point x="14" y="1184" type="line"/>
      <point x="14" y="925" type="line"/>
      <point x="124" y="925" type="line"/>
      <point x="124" y="780" type="line"/>
      <point x="14" y="780" type="line"/>
      <point x="14" y="583" type="line"/>
      <point x="124" y="583" type="line"/>
      <point x="124" y="469" type="line" smooth="yes"/>
      <point x="124" y="234"/>
      <point x="154" y="-13"/>
    </contour>
  </outline>
</glyph>
<glyph name="circumflex" format="1">
  <advance width="876"/>
  <unicode hex="02C6"/>
  <outline>
    <contour>
      <point x="102" y="1253" type="line"/>
      <point x="372" y="1253" type="line"/>
      <point x="449" y="1497" type="line"/>
      <point x="527" y="1253" type="line"/>
      <point x="798" y="1253" type="line"/>
      <point x="591" y="1658" type="line"/>
      <point x="301" y="1658" type="line"/>
    </contour>
  </outline>
</glyph>
<glyph name="caron" format="1">
  <advance width="868"/>
  <unicode hex="02C7"/>
  <outline>
    <contour>
      <point x="252" y="1269" type="line"/>
      <point x="606" y="1269" type="line"/>
      <point x="790" y="1658" type="line"/>
      <point x="530" y="1658" type="line"/>
      <point x="430" y="1441" type="line"/>
      <point x="334" y="1658" type="line"/>
      <point x="75" y="1658" type="line"/>
    </contour>
  </outline>
</glyph>
<glyph name="dotaccent" format="1">
  <advance width="587"/>
  <unicode hex="02D9"/>
  <outline>
    <contour>
      <point x="145" y="1317" type="line"/>
      <point x="490" y="1317" type="line"/>
      <point x="490" y="1658" type="line"/>
      <point x="145" y="1658" type="line"/>
    </contour>
  </outline>
</glyph>
<glyph name="ring" format="1">
  <advance width="0"/>
  <unicode hex="02DA"/>
  <outline>
    <contour>
      <point x="-9" y="1237" type="curve" smooth="yes"/>
      <point x="118" y="1237"/>
      <point x="234" y="1310"/>
      <point x="234" y="1461" type="curve" smooth="yes"/>
      <point x="234" y="1611"/>
      <point x="117" y="1684"/>
      <point x="-9" y="1684" type="curve" smooth="yes"/>
      <point x="-135" y="1684"/>
      <point x="-250" y="1612"/>
      <point x="-250" y="1461" type="curve" smooth="yes"/>
      <point x="-250" y="1310"/>
      <point x="-135" y="1237"/>
    </contour>
    <contour>
      <point x="-9" y="1356" type="curve" smooth="yes"/>
      <point x="-74" y="1356"/>
      <point x="-106" y="1408"/>
      <point x="-106" y="1461" type="curve" smooth="yes"/>
      <point x="-106" y="1513"/>
      <point x="-74" y="1565"/>
      <point x="-9" y="1565" type="curve" smooth="yes"/>
      <point x="55" y="1565"/>
      <point x="86" y="1513"/>
      <point x="86" y="1461" type="curve" smooth="yes"/>
      <point x="86" y="1408"/>
      <point x="55" y="1356"/>
    </contour>
  </outline>
</glyph>
<glyph name="ogonek" format="1">
  <advance width="557"/>
  <unicode hex="02DB"/>
  <outline>
    <contour>
      <point x="450" y="-529" type="curve"/>
      <point x="478" y="-350" type="line"/>
      <point x="427" y="-350"/>
      <point x="302" y="-352"/>
      <point x="302" y="-230" type="curve" smooth="yes"/>
      <point x="302" y="-142"/>
      <point x="331" y="-66"/>
      <point x="343" y="21" type="curve"/>
      <point x="179" y="21" type="line"/>
      <point x="94" y="-68"/>
      <point x="44" y="-194"/>
      <point x="44" y="-295" type="curve" smooth="yes"/>
      <point x="44" y="-528"/>
      <point x="311" y="-534"/>
    </contour>
  </outline>
</glyph>
<glyph name="hungarumlaut" format="1">
  <advance width="1016"/>
  <unicode hex="02DD"/>
  <outline>
    <contour>
      <point x="57" y="1184" type="line"/>
      <point x="248" y="1184" type="line"/>
      <point x="495" y="1658" type="line"/>
      <point x="192" y="1658" type="line"/>
    </contour>
    <contour>
      <point x="455" y="1184" type="line"/>
      <point x="650" y="1184" type="line"/>
      <point x="903" y="1658" type="line"/>
      <point x="591" y="1658" type="line"/>
    </contour>
  </outline>
</glyph>
<glyph name="uni0304" format="1">
  <advance width="278"/>
  <unicode hex="0304"/>
  <outline>
    <contour>
      <point x="-165" y="1495" type="line"/>
      <point x="457" y="1495" type="line"/>
      <point x="457" y="1658" type="line"/>
      <point x="-165" y="1658" type="line"/>
    </contour>
  </outline>
</glyph>
<glyph name="uni0306" format="1">
  <advance width="650"/>
  <unicode hex="0306"/>
  <outline>
    <contour>
      <point x="305" y="1423" type="curve" smooth="yes"/>
      <point x="471" y="1423"/>
      <point x="594" y="1501"/>
      <point x="594" y="1658" type="curve"/>
      <point x="445" y="1658" type="line"/>
      <point x="445" y="1594"/>
      <point x="405" y="1561"/>
      <point x="305" y="1561" type="curve" smooth="yes"/>
      <point x="205" y="1561"/>
      <point x="166" y="1593"/>
      <point x="166" y="1658" type="curve"/>
      <point x="16" y="1658" type="line"/>
      <point x="16" y="1500"/>
      <point x="139" y="1423"/>
    </contour>
  </outline>
</glyph>
<glyph name="uni030A" format="1">
  <advance width="0"/>
  <unicode hex="030A"/>
  <outline>
    <contour>
      <point x="-9" y="1356" type="curve" smooth="yes"/>
      <point x="-74" y="1356"/>
      <point x="-106" y="1408"/>
      <point x="-106" y="1461" type="curve" smooth="yes"/>
      <point x="-106" y="1513"/>
      <point x="-74" y="1565"/>
      <point x="-9" y="1565" type="curve" smooth="yes"/>
      <point x="55" y="1565"/>
      <point x="86" y="1513"/>
      <point x="86" y="1461" type="curve" smooth="yes"/>
      <point x="86" y="1408"/>
      <point x="55" y="1356"/>
    </contour>
    <contour>
      <point x="-9" y="1237" type="curve" smooth="yes"/>
      <point x="118" y="1237"/>
      <point x="234" y="1310"/>
      <point x="234" y="1461" type="curve" smooth="yes"/>
      <point x="234" y="1611"/>
      <point x="117" y="1684"/>
      <point x="-9" y="1684" type="curve" smooth="yes"/>
      <point x="-135" y="1684"/>
      <point x="-250" y="1612"/>
      <point x="-250" y="1461" type="curve" smooth="yes"/>
      <point x="-250" y="1310"/>
      <point x="-135" y="1237"/>
    </contour>
  </outline>
</glyph>
<glyph name="uni030C" format="1">
  <advance width="868"/>
  <unicode hex="030C"/>
  <outline>
    <contour>
      <point x="252" y="1269" type="line"/>
      <point x="606" y="1269" type="line"/>
      <point x="790" y="1658" type="line"/>
      <point x="530" y="1658" type="line"/>
      <point x="430" y="1441" type="line"/>
      <point x="334" y="1658" type="line"/>
      <point x="75" y="1658" type="line"/>
    </contour>
  </outline>
</glyph>
<glyph name="uni0326" format="1">
  <advance width="457"/>
  <unicode hex="0326"/>
  <outline>
    <contour>
      <point x="101" y="-699" type="line"/>
      <point x="294.384" y="-697.421"/>
      <point x="391" y="-575"/>
      <point x="391.665" y="-353" type="curve" smooth="yes"/>
      <point x="392" y="-67" type="line"/>
      <point x="47" y="-67" type="line"/>
      <point x="47" y="-408" type="line"/>
      <point x="241" y="-408" type="line"/>
      <point x="241" y="-538"/>
      <point x="158" y="-572"/>
      <point x="86" y="-588" type="curve"/>
    </contour>
  </outline>
</glyph>
<glyph name="Delta" format="1">
  <advance width="1019"/>
  <unicode hex="0394"/>
  <outline>
    <contour>
      <point x="12" y="0" type="line"/>
      <point x="1007" y="0" type="line"/>
      <point x="746" y="1658" type="line"/>
      <point x="296" y="1658" type="line"/>
    </contour>
    <contour>
      <point x="408" y="243" type="line"/>
      <point x="447.456" y="536.544"/>
      <point x="483.474" y="833.526"/>
      <point x="519" y="1131" type="curve"/>
      <point x="552.678" y="833.678"/>
      <point x="586.694" y="536.694"/>
      <point x="624" y="243" type="curve"/>
    </contour>
  </outline>
</glyph>
<glyph name="Delta" format="1">
  <advance width="1019"/>
  <unicode hex="0394"/>
  <outline>
    <contour>
      <point x="458" y="626" type="line"/>
      <point x="519" y="1131" type="line"/>
      <point x="577" y="624" type="line"/>
      <point x="624" y="243" type="line"/>
      <point x="408" y="243" type="line"/>
    </contour>
    <contour>
      <point x="12" y="0" type="line"/>
      <point x="1007" y="0" type="line"/>
      <point x="746" y="1658" type="line"/>
      <point x="296" y="1658" type="line"/>
    </contour>
  </outline>
</glyph>
<glyph name="afii10051" format="1">
  <advance width="1173"/>
  <unicode hex="0402"/>
  <outline>
    <contour>
      <point x="500" y="-406" type="line"/>
      <point x="641" y="-406" type="line" smooth="yes"/>
      <point x="1001" y="-406"/>
      <point x="1094" y="-304"/>
      <point x="1094" y="-12" type="curve" smooth="yes"/>
      <point x="1094" y="753.168" type="line" smooth="yes"/>
      <point x="1094" y="896.081"/>
      <point x="1005" y="990.535"/>
      <point x="860" y="990.535" type="curve" smooth="yes"/>
      <point x="759.576" y="990.535"/>
      <point x="668.151" y="967.437"/>
      <point x="577" y="892.577" type="curve"/>
      <point x="577" y="1353" type="line"/>
      <point x="800" y="1353" type="line"/>
      <point x="800" y="1658" type="line"/>
      <point x="-55" y="1658" type="line"/>
      <point x="-55" y="1353" type="line"/>
      <point x="165" y="1353" type="line"/>
      <point x="165" y="0" type="line"/>
      <point x="577" y="0" type="line"/>
      <point x="577" y="753.024" type="line"/>
      <point x="612.473" y="770.684"/>
      <point x="643.096" y="777.63"/>
      <point x="665" y="778.629" type="curve" smooth="yes"/>
      <point x="708" y="780.272"/>
      <point x="722" y="758.917"/>
      <point x="722" y="719.493" type="curve" smooth="yes"/>
      <point x="722" y="-10" type="line" smooth="yes"/>
      <point x="722" y="-151"/>
      <point x="684" y="-182"/>
      <point x="500" y="-182" type="curve"/>
    </contour>
  </outline>
</glyph>
<glyph name="afii10053" format="1">
  <advance width="1129"/>
  <unicode hex="0404"/>
  <outline>
    <component base="C"/>
    <contour>
      <point x="278" y="723" type="line"/>
      <point x="712" y="723" type="line"/>
      <point x="712" y="932" type="line"/>
      <point x="278" y="932" type="line"/>
    </contour>
  </outline>
</glyph>
<glyph name="afii10055" format="1">
  <advance width="588"/>
  <unicode hex="0406"/>
  <outline>
    <contour>
      <point x="98" y="0" type="line"/>
      <point x="510" y="0" type="line"/>
      <point x="510" y="1658" type="line"/>
      <point x="98" y="1658" type="line"/>
    </contour>
  </outline>
</glyph>
<glyph name="afii10058" format="1">
  <advance width="1840"/>
  <unicode hex="0409"/>
  <outline>
    <contour>
      <point x="40" y="0" type="line"/>
      <point x="211" y="0" type="line" smooth="yes"/>
      <point x="531" y="0"/>
      <point x="603" y="253"/>
      <point x="618" y="545" type="curve" smooth="yes"/>
      <point x="658" y="1342" type="line"/>
      <point x="816" y="1342" type="line"/>
      <point x="816" y="0" type="line"/>
      <point x="1259" y="0" type="line" smooth="yes"/>
      <point x="1528" y="0"/>
      <point x="1783" y="54"/>
      <point x="1783" y="478" type="curve" smooth="yes"/>
      <point x="1783" y="792"/>
      <point x="1606" y="954"/>
      <point x="1308" y="954" type="curve" smooth="yes"/>
      <point x="1228" y="954" type="line"/>
      <point x="1228" y="1658" type="line"/>
      <point x="283" y="1658" type="line"/>
      <point x="214" y="545" type="line" smooth="yes"/>
      <point x="202" y="344"/>
      <point x="172" y="283"/>
      <point x="40" y="286" type="curve"/>
    </contour>
    <contour>
      <point x="1228" y="267" type="line"/>
      <point x="1228" y="671" type="line"/>
      <point x="1258" y="671" type="line" smooth="yes"/>
      <point x="1377" y="671"/>
      <point x="1399" y="574"/>
      <point x="1403" y="487" type="curve" smooth="yes"/>
      <point x="1409" y="354"/>
      <point x="1377" y="267"/>
      <point x="1262" y="267" type="curve" smooth="yes"/>
    </contour>
  </outline>
</glyph>
<glyph name="afii10145" format="1">
  <advance width="1263"/>
  <unicode hex="040F"/>
  <outline>
    <contour>
      <point x="489" y="-378" type="line"/>
      <point x="783" y="-378" type="line"/>
      <point x="796.796" y="0" type="line"/>
      <point x="1143" y="0" type="line"/>
      <point x="1143" y="1658" type="line"/>
      <point x="731" y="1658" type="line"/>
      <point x="731" y="316" type="line"/>
      <point x="532" y="316" type="line"/>
      <point x="532" y="1658" type="line"/>
      <point x="120" y="1658" type="line"/>
      <point x="120" y="0" type="line"/>
      <point x="475.204" y="0" type="line"/>
    </contour>
  </outline>
</glyph>
<glyph name="afii10018" format="1">
  <advance width="1142"/>
  <unicode hex="0411"/>
  <outline>
    <contour>
      <point x="120" y="0" type="line"/>
      <point x="571" y="0" type="line" smooth="yes"/>
      <point x="840" y="0"/>
      <point x="1095" y="54"/>
      <point x="1095" y="478" type="curve" smooth="yes"/>
      <point x="1095" y="792"/>
      <point x="918" y="954"/>
      <point x="620" y="954" type="curve" smooth="yes"/>
      <point x="532" y="954" type="line"/>
      <point x="532" y="1342" type="line"/>
      <point x="980.36" y="1342" type="line"/>
      <point x="980.36" y="1658" type="line"/>
      <point x="120" y="1658" type="line"/>
    </contour>
    <contour>
      <point x="532" y="267" type="line"/>
      <point x="532" y="671" type="line"/>
      <point x="570" y="671" type="line" smooth="yes"/>
      <point x="689" y="671"/>
      <point x="711" y="574"/>
      <point x="715" y="487" type="curve" smooth="yes"/>
      <point x="721" y="354"/>
      <point x="689" y="267"/>
      <point x="574" y="267" type="curve" smooth="yes"/>
    </contour>
  </outline>
</glyph>
<glyph name="afii10019" format="1">
  <advance width="1253.12702443"/>
  <unicode hex="0412"/>
  <outline>
    <contour>
      <point x="130" y="0" type="line"/>
      <point x="664" y="0" type="line" smooth="yes"/>
      <point x="990" y="0"/>
      <point x="1197" y="136"/>
      <point x="1191" y="499" type="curve" smooth="yes"/>
      <point x="1187" y="733"/>
      <point x="1082" y="874"/>
      <point x="894" y="890" type="curve"/>
      <point x="1039" y="920"/>
      <point x="1132" y="1019"/>
      <point x="1137" y="1217" type="curve" smooth="yes"/>
      <point x="1147" y="1615"/>
      <point x="859" y="1658"/>
      <point x="581" y="1658" type="curve" smooth="yes"/>
      <point x="130" y="1658" type="line"/>
    </contour>
    <contour>
      <point x="542" y="287" type="line"/>
      <point x="542" y="742" type="line"/>
      <point x="597" y="742" type="line" smooth="yes"/>
      <point x="745" y="742"/>
      <point x="793" y="684"/>
      <point x="793" y="506" type="curve" smooth="yes"/>
      <point x="793" y="365"/>
      <point x="743" y="287"/>
      <point x="594" y="287" type="curve" smooth="yes"/>
    </contour>
    <contour>
      <point x="542" y="1004" type="line"/>
      <point x="542" y="1388" type="line"/>
      <point x="611" y="1388" type="line" smooth="yes"/>
      <point x="714" y="1388"/>
      <point x="777" y="1302"/>
      <point x="777" y="1206" type="curve" smooth="yes"/>
      <point x="777" y="1086"/>
      <point x="749" y="1004"/>
      <point x="594" y="1004" type="curve" smooth="yes"/>
    </contour>
  </outline>
</glyph>
<glyph name="afii10020" format="1">
  <advance width="970"/>
  <unicode hex="0413"/>
  <outline>
    <contour>
      <point x="98" y="0" type="line"/>
      <point x="510" y="0" type="line"/>
      <point x="510" y="1353" type="line"/>
      <point x="910" y="1353" type="line"/>
      <point x="910" y="1658" type="line"/>
      <point x="98" y="1658" type="line"/>
    </contour>
  </outline>
</glyph>
<glyph name="afii10021" format="1">
  <advance width="1613"/>
  <unicode hex="0414"/>
  <outline>
    <contour>
      <point x="46" y="-378" type="line"/>
      <point x="325" y="-378" type="line"/>
      <point x="345" y="0" type="line"/>
      <point x="1244" y="0" type="line"/>
      <point x="1264" y="-378" type="line"/>
      <point x="1567" y="-378" type="line"/>
      <point x="1567" y="294" type="line"/>
      <point x="1294" y="294" type="line"/>
      <point x="1294" y="1658" type="line"/>
      <point x="450" y="1658" type="line"/>
      <point x="399" y="1048" type="line" smooth="yes"/>
      <point x="353" y="595"/>
      <point x="344" y="328"/>
      <point x="175" y="294" type="curve"/>
      <point x="46" y="294" type="line"/>
    </contour>
    <contour>
      <point x="634" y="294" type="line"/>
      <point x="694" y="450"/>
      <point x="707" y="631"/>
      <point x="746" y="1018" type="curve" smooth="yes"/>
      <point x="768" y="1339" type="line"/>
      <point x="894" y="1339" type="line"/>
      <point x="894" y="294" type="line"/>
    </contour>
  </outline>
</glyph>
<glyph name="afii10022" format="1">
  <advance width="949"/>
  <unicode hex="0415"/>
  <outline>
    <contour>
      <point x="120" y="0" type="line"/>
      <point x="885" y="0" type="line"/>
      <point x="885" y="275" type="line"/>
      <point x="532" y="275" type="line"/>
      <point x="532" y="733" type="line"/>
      <point x="786" y="733" type="line"/>
      <point x="786" y="1019" type="line"/>
      <point x="532" y="1019" type="line"/>
      <point x="532" y="1382" type="line"/>
      <point x="881" y="1382" type="line"/>
      <point x="881" y="1658" type="line"/>
      <point x="120" y="1658" type="line"/>
    </contour>
  </outline>
</glyph>
<glyph name="afii10024" format="1">
  <advance width="1672"/>
  <unicode hex="0416"/>
  <outline>
    <contour>
      <point x="41" y="0" type="line"/>
      <point x="402" y="0" type="line"/>
      <point x="643" y="597" type="line"/>
      <point x="653" y="597" type="line"/>
      <point x="653" y="2" type="line"/>
      <point x="1009" y="2" type="line"/>
      <point x="1009" y="620" type="line"/>
      <point x="1019" y="620" type="line"/>
      <point x="1270" y="0" type="line"/>
      <point x="1631" y="0" type="line"/>
      <point x="1234" y="829" type="line"/>
      <point x="1672" y="1658" type="line"/>
      <point x="1277" y="1658" type="line"/>
      <point x="1019" y="1089" type="line"/>
      <point x="1009" y="1089" type="line"/>
      <point x="1009" y="1660" type="line"/>
      <point x="653" y="1660" type="line"/>
      <point x="653" y="1111" type="line"/>
      <point x="643" y="1111" type="line"/>
      <point x="395" y="1658" type="line"/>
      <point x="0" y="1658" type="line"/>
      <point x="438" y="829" type="line"/>
    </contour>
  </outline>
</glyph>
<glyph name="afii10025" format="1">
  <advance width="1108"/>
  <unicode hex="0417"/>
  <outline>
    <contour>
      <point x="565" y="-35" type="curve" smooth="yes"/>
      <point x="909" y="-35"/>
      <point x="1034" y="187"/>
      <point x="1034" y="494" type="curve" smooth="yes"/>
      <point x="1034" y="735"/>
      <point x="946" y="824"/>
      <point x="843" y="865" type="curve"/>
      <point x="946" y="891"/>
      <point x="1034" y="1038"/>
      <point x="1034" y="1230" type="curve" smooth="yes"/>
      <point x="1034" y="1536"/>
      <point x="851" y="1688"/>
      <point x="558" y="1688" type="curve" smooth="yes"/>
      <point x="272" y="1688"/>
      <point x="78" y="1521"/>
      <point x="78" y="1211" type="curve" smooth="yes"/>
      <point x="78" y="1095" type="line"/>
      <point x="462" y="1095" type="line"/>
      <point x="462" y="1200" type="line" smooth="yes"/>
      <point x="462" y="1309"/>
      <point x="483" y="1382"/>
      <point x="554" y="1382" type="curve" smooth="yes"/>
      <point x="626" y="1382"/>
      <point x="656" y="1322"/>
      <point x="656" y="1200" type="curve" smooth="yes"/>
      <point x="656" y="1037"/>
      <point x="630" y="958"/>
      <point x="488" y="958" type="curve" smooth="yes"/>
      <point x="393" y="958" type="line"/>
      <point x="393" y="718" type="line"/>
      <point x="495" y="718" type="line" smooth="yes"/>
      <point x="631" y="718"/>
      <point x="656" y="643"/>
      <point x="656" y="481" type="curve" smooth="yes"/>
      <point x="656" y="343"/>
      <point x="641" y="289"/>
      <point x="571" y="289" type="curve" smooth="yes"/>
      <point x="498" y="289"/>
      <point x="474" y="339"/>
      <point x="474" y="511" type="curve" smooth="yes"/>
      <point x="474" y="577" type="line"/>
      <point x="90" y="577" type="line"/>
      <point x="90" y="518" type="line" smooth="yes"/>
      <point x="90" y="192"/>
      <point x="190" y="-35"/>
    </contour>
  </outline>
</glyph>
<glyph name="afii10026" format="1">
  <advance width="1170"/>
  <unicode hex="0418"/>
  <outline>
    <contour>
      <point x="120" y="0" type="line"/>
      <point x="402" y="0" type="line"/>
      <point x="696" y="767" type="line"/>
      <point x="696" y="0" type="line"/>
      <point x="1050" y="0" type="line"/>
      <point x="1050" y="1658" type="line"/>
      <point x="757" y="1658" type="line"/>
      <point x="461" y="962" type="line"/>
      <point x="461" y="1658" type="line"/>
      <point x="120" y="1658" type="line"/>
    </contour>
  </outline>
</glyph>
<glyph name="afii10028" format="1">
  <advance width="1146"/>
  <unicode hex="041A"/>
  <outline>
    <contour>
      <point x="98" y="0" type="line"/>
      <point x="510" y="0" type="line"/>
      <point x="510" y="692.849" type="line"/>
      <point x="529" y="714" type="line"/>
      <point x="740" y="0" type="line"/>
      <point x="1165" y="0" type="line"/>
      <point x="863" y="904" type="line"/>
      <point x="1163" y="1658" type="line"/>
      <point x="757" y="1658" type="line"/>
      <point x="510" y="1016.92" type="line"/>
      <point x="510" y="1658" type="line"/>
      <point x="98" y="1658" type="line"/>
    </contour>
  </outline>
</glyph>
<glyph name="afii10029" format="1">
  <advance width="1396"/>
  <unicode hex="041B"/>
  <outline>
    <contour>
      <point x="19" y="0" type="line"/>
      <point x="645" y="-30"/>
      <point x="630" y="138"/>
      <point x="680" y="874" type="curve" smooth="yes"/>
      <point x="712" y="1342" type="line"/>
      <point x="854" y="1342" type="line"/>
      <point x="854" y="0" type="line"/>
      <point x="1266" y="0" type="line"/>
      <point x="1266" y="1658" type="line"/>
      <point x="337" y="1658" type="line"/>
      <point x="284" y="968" type="line" smooth="yes"/>
      <point x="235" y="333"/>
      <point x="273" y="286"/>
      <point x="19" y="286" type="curve"/>
    </contour>
  </outline>
</glyph>
<glyph name="afii10031" format="1">
  <advance width="1168"/>
  <unicode hex="041D"/>
  <outline>
    <contour>
      <point x="98" y="0" type="line"/>
      <point x="510" y="0" type="line"/>
      <point x="510" y="709" type="line"/>
      <point x="689" y="709" type="line"/>
      <point x="689" y="0" type="line"/>
      <point x="1101" y="0" type="line"/>
      <point x="1101" y="1658" type="line"/>
      <point x="689" y="1658" type="line"/>
      <point x="689" y="1004" type="line"/>
      <point x="510" y="1004" type="line"/>
      <point x="510" y="1658" type="line"/>
      <point x="98" y="1658" type="line"/>
    </contour>
  </outline>
</glyph>
<glyph name="afii10032" format="1">
  <advance width="1147"/>
  <unicode hex="041E"/>
  <outline>
    <contour>
      <point x="594" y="258" type="curve" smooth="yes"/>
      <point x="504" y="258"/>
      <point x="504" y="352"/>
      <point x="504" y="418" type="curve" smooth="yes"/>
      <point x="504" y="1241" type="line" smooth="yes"/>
      <point x="504" y="1307"/>
      <point x="504" y="1400"/>
      <point x="594" y="1400" type="curve" smooth="yes"/>
      <point x="684" y="1400"/>
      <point x="688" y="1307"/>
      <point x="688" y="1241" type="curve" smooth="yes"/>
      <point x="688" y="418" type="line" smooth="yes"/>
      <point x="688" y="352"/>
      <point x="684" y="258"/>
    </contour>
    <contour>
      <point x="594" y="-26" type="curve" smooth="yes"/>
      <point x="981" y="-26"/>
      <point x="1112" y="176"/>
      <point x="1112" y="523" type="curve" smooth="yes"/>
      <point x="1112" y="1135" type="line" smooth="yes"/>
      <point x="1112" y="1482"/>
      <point x="981" y="1684"/>
      <point x="594" y="1684" type="curve" smooth="yes"/>
      <point x="207" y="1684"/>
      <point x="80" y="1482"/>
      <point x="80" y="1135" type="curve" smooth="yes"/>
      <point x="80" y="523" type="line" smooth="yes"/>
      <point x="80" y="176"/>
      <point x="207" y="-26"/>
    </contour>
  </outline>
</glyph>
<glyph name="afii10033" format="1">
  <advance width="1240"/>
  <unicode hex="041F"/>
  <outline>
    <contour>
      <point x="120" y="0" type="line"/>
      <point x="532" y="0" type="line"/>
      <point x="532" y="1363" type="line"/>
      <point x="708" y="1363" type="line"/>
      <point x="708" y="0" type="line"/>
      <point x="1120" y="0" type="line"/>
      <point x="1120" y="1658" type="line"/>
      <point x="120" y="1658" type="line"/>
    </contour>
  </outline>
</glyph>
<glyph name="afii10034" format="1">
  <advance width="1226"/>
  <unicode hex="0420"/>
  <outline>
    <contour>
      <point x="120" y="0" type="line"/>
      <point x="532" y="0" type="line"/>
      <point x="532" y="682" type="line"/>
      <point x="668" y="682" type="line" smooth="yes"/>
      <point x="937" y="682"/>
      <point x="1174" y="746"/>
      <point x="1174" y="1170" type="curve" smooth="yes"/>
      <point x="1174" y="1484"/>
      <point x="1025" y="1658"/>
      <point x="727" y="1658" type="curve" smooth="yes"/>
      <point x="120" y="1658" type="line"/>
    </contour>
    <contour>
      <point x="532" y="967" type="line"/>
      <point x="532" y="1370" type="line"/>
      <point x="659" y="1370" type="line" smooth="yes"/>
      <point x="778" y="1370"/>
      <point x="788" y="1266"/>
      <point x="788" y="1179" type="curve" smooth="yes"/>
      <point x="788" y="1046"/>
      <point x="778" y="967"/>
      <point x="663" y="967" type="curve" smooth="yes"/>
    </contour>
  </outline>
</glyph>
<glyph name="afii10036" format="1">
  <advance width="879"/>
  <unicode hex="0422"/>
  <outline>
    <contour>
      <point x="232" y="0" type="line"/>
      <point x="644" y="0" type="line"/>
      <point x="644" y="1353" type="line"/>
      <point x="867" y="1353" type="line"/>
      <point x="867" y="1658" type="line"/>
      <point x="12" y="1658" type="line"/>
      <point x="12" y="1353" type="line"/>
      <point x="232" y="1353" type="line"/>
    </contour>
  </outline>
</glyph>
<glyph name="afii10037" format="1">
  <advance width="1122"/>
  <unicode hex="0423"/>
  <outline>
    <contour>
      <point x="234" y="0" type="line"/>
      <point x="627" y="0" type="line"/>
      <point x="780" y="557" type="line"/>
      <point x="1128" y="1658" type="line"/>
      <point x="751" y="1658" type="line"/>
      <point x="588" y="1048" type="line"/>
      <point x="401" y="1658" type="line"/>
      <point x="14" y="1658" type="line"/>
      <point x="392" y="582" type="line"/>
    </contour>
  </outline>
</glyph>
<glyph name="afii10038" format="1">
  <advance width="1621"/>
  <unicode hex="0424"/>
  <outline>
    <contour>
      <point x="652.948" y="0" type="line"/>
      <point x="968.041" y="0" type="line"/>
      <point x="968.041" y="180.363" type="line"/>
      <point x="1008" y="178" type="line"/>
      <point x="1306" y="154"/>
      <point x="1526" y="349"/>
      <point x="1526" y="571" type="curve" smooth="yes"/>
      <point x="1526" y="1078" type="line" smooth="yes"/>
      <point x="1526" y="1300"/>
      <point x="1306" y="1496"/>
      <point x="992" y="1472" type="curve"/>
      <point x="968.041" y="1470.64" type="line"/>
      <point x="968.041" y="1658" type="line"/>
      <point x="652.948" y="1658" type="line"/>
      <point x="652.948" y="1469.62" type="line"/>
      <point x="613" y="1472" type="line"/>
      <point x="316" y="1496"/>
      <point x="95" y="1301"/>
      <point x="95" y="1079" type="curve" smooth="yes"/>
      <point x="95" y="572" type="line" smooth="yes"/>
      <point x="95" y="350"/>
      <point x="314" y="154"/>
      <point x="629" y="178" type="curve"/>
      <point x="652.948" y="179.365" type="line"/>
    </contour>
    <contour>
      <point x="621.516811261" y="434.421996808" type="curve" smooth="yes"/>
      <point x="507.079683976" y="435.318990272"/>
      <point x="455.0" y="513.67941613"/>
      <point x="455" y="566" type="curve" smooth="yes"/>
      <point x="455" y="1085" type="line" smooth="yes"/>
      <point x="455.0" y="1137.64516885"/>
      <point x="508.337076235" y="1225.30883931"/>
      <point x="617.852134545" y="1230.09753409" type="curve" smooth="yes"/>
      <point x="628.970714052" y="1230.5837091"/>
      <point x="640.668344897" y="1230.21565502"/>
      <point x="652.948" y="1228.87" type="curve"/>
      <point x="652.948" y="436.03" type="line"/>
      <point x="641.9903255" y="434.856612006"/>
      <point x="631.515547721" y="434.34362363"/>
    </contour>
    <contour>
      <point x="1001.98421274" y="435.231021746" type="curve" smooth="yes"/>
      <point x="991.187596561" y="435.183496276"/>
      <point x="979.871814656" y="435.868364086"/>
      <point x="968.041" y="437.377" type="curve"/>
      <point x="968.041" y="1229.95" type="line"/>
      <point x="978.113857712" y="1230.45182784"/>
      <point x="987.782116634" y="1230.38372683"/>
      <point x="997.050337766" y="1229.8046189" type="curve" smooth="yes"/>
      <point x="1112.63205427" y="1222.5827058"/>
      <point x="1166.0" y="1135.88913453"/>
      <point x="1166" y="1084" type="curve" smooth="yes"/>
      <point x="1166" y="565" type="line" smooth="yes"/>
      <point x="1166.0" y="509.420907435"/>
      <point x="1109.95040988" y="435.706276598"/>
    </contour>
  </outline>
</glyph>
<glyph name="afii10039" format="1">
  <advance width="1035"/>
  <unicode hex="0425"/>
  <outline>
    <contour>
      <point x="-12" y="0" type="line"/>
      <point x="321" y="0" type="line"/>
      <point x="482.423" y="451.342" type="line"/>
      <point x="661" y="0" type="line"/>
      <point x="1047" y="0" type="line"/>
      <point x="741.588" y="779.036" type="line"/>
      <point x="1003" y="1658" type="line"/>
      <point x="666" y="1658" type="line"/>
      <point x="554.986" y="1255.01" type="line"/>
      <point x="397" y="1658" type="line"/>
      <point x="5" y="1658" type="line"/>
      <point x="303.564" y="903.398" type="line"/>
    </contour>
  </outline>
</glyph>
<glyph name="afii10040" format="1">
  <advance width="1438"/>
  <unicode hex="0426"/>
  <outline>
    <contour>
      <point x="1108" y="-378" type="line"/>
      <point x="1406" y="-378" type="line"/>
      <point x="1406" y="275" type="line"/>
      <point x="1157" y="275" type="line"/>
      <point x="1157" y="1658" type="line"/>
      <point x="745" y="1658" type="line"/>
      <point x="745" y="275" type="line"/>
      <point x="532" y="275" type="line"/>
      <point x="532" y="1658" type="line"/>
      <point x="120" y="1658" type="line"/>
      <point x="120" y="0" type="line"/>
      <point x="1087" y="0" type="line"/>
    </contour>
  </outline>
</glyph>
<glyph name="afii10041" format="1">
  <advance width="1246"/>
  <unicode hex="0427"/>
  <outline>
    <component base="uc_main_stem" xOffset="655"/>
    <contour>
      <point x="564" y="684" type="curve" smooth="yes"/>
      <point x="649" y="684"/>
      <point x="853" y="700"/>
      <point x="952" y="734" type="curve"/>
      <point x="952" y="997" type="line"/>
      <point x="908" y="967"/>
      <point x="794" y="934"/>
      <point x="673" y="934" type="curve" smooth="yes"/>
      <point x="489" y="934"/>
      <point x="487" y="1006"/>
      <point x="487" y="1091" type="curve" smooth="yes"/>
      <point x="487" y="1658" type="line"/>
      <point x="75" y="1658" type="line"/>
      <point x="75" y="1090" type="line" smooth="yes"/>
      <point x="75" y="830"/>
      <point x="315" y="684"/>
    </contour>
  </outline>
</glyph>
<glyph name="afii10042" format="1">
  <advance width="1679"/>
  <unicode hex="0428"/>
  <outline>
    <contour>
      <point x="98" y="0" type="line"/>
      <point x="1581.26" y="0" type="line"/>
      <point x="1581.26" y="1658" type="line"/>
      <point x="1197.57" y="1658" type="line"/>
      <point x="1197.57" y="316" type="line"/>
      <point x="1033.25" y="316" type="line"/>
      <point x="1033.25" y="1658" type="line"/>
      <point x="649.565" y="1658" type="line"/>
      <point x="649.565" y="316" type="line"/>
      <point x="481.688" y="316" type="line"/>
      <point x="481.688" y="1658" type="line"/>
      <point x="98" y="1658" type="line"/>
    </contour>
  </outline>
</glyph>
<glyph name="afii10043" format="1">
  <advance width="1955"/>
  <unicode hex="0429"/>
  <outline>
    <contour>
      <point x="1625" y="-378" type="line"/>
      <point x="1923" y="-378" type="line"/>
      <point x="1923" y="275" type="line"/>
      <point x="1604.12" y="275" type="line"/>
      <point x="1604.12" y="1658" type="line"/>
      <point x="1220.43" y="1658" type="line"/>
      <point x="1220.43" y="275" type="line"/>
      <point x="1055.69" y="275" type="line"/>
      <point x="1055.69" y="1658" type="line"/>
      <point x="672" y="1658" type="line"/>
      <point x="672" y="275" type="line"/>
      <point x="503.688" y="275" type="line"/>
      <point x="503.688" y="1658" type="line"/>
      <point x="120" y="1658" type="line"/>
      <point x="120" y="0" type="line"/>
      <point x="1604" y="0" type="line"/>
    </contour>
  </outline>
</glyph>
<glyph name="afii10044" format="1">
  <advance width="1340"/>
  <unicode hex="042A"/>
  <outline>
    <contour>
      <point x="273" y="0" type="line"/>
      <point x="742" y="0" type="line" smooth="yes"/>
      <point x="1011" y="0"/>
      <point x="1266" y="54"/>
      <point x="1266" y="478" type="curve" smooth="yes"/>
      <point x="1266" y="792"/>
      <point x="1089" y="954"/>
      <point x="791" y="954" type="curve" smooth="yes"/>
      <point x="685" y="954" type="line"/>
      <point x="685" y="1658" type="line"/>
      <point x="24" y="1658" type="line"/>
      <point x="24" y="1383" type="line"/>
      <point x="273" y="1383" type="line"/>
    </contour>
    <contour>
      <point x="685" y="267" type="line"/>
      <point x="685" y="671" type="line"/>
      <point x="741" y="671" type="line" smooth="yes"/>
      <point x="860" y="671"/>
      <point x="882" y="574"/>
      <point x="886" y="487" type="curve" smooth="yes"/>
      <point x="892" y="354"/>
      <point x="860" y="267"/>
      <point x="745" y="267" type="curve" smooth="yes"/>
    </contour>
  </outline>
</glyph>
<glyph name="afii10045" format="1">
  <advance width="1774"/>
  <unicode hex="042B"/>
  <outline>
    <contour>
      <point x="130" y="0" type="line"/>
      <point x="582" y="0" type="line" smooth="yes"/>
      <point x="851" y="0"/>
      <point x="1106" y="54"/>
      <point x="1106" y="478" type="curve" smooth="yes"/>
      <point x="1106" y="792"/>
      <point x="929" y="954"/>
      <point x="631" y="954" type="curve" smooth="yes"/>
      <point x="542" y="954" type="line"/>
      <point x="542" y="1658" type="line"/>
      <point x="130" y="1658" type="line"/>
    </contour>
    <contour>
      <point x="542" y="267" type="line"/>
      <point x="542" y="671" type="line"/>
      <point x="581" y="671" type="line" smooth="yes"/>
      <point x="700" y="671"/>
      <point x="722" y="574"/>
      <point x="726" y="487" type="curve" smooth="yes"/>
      <point x="732" y="354"/>
      <point x="700" y="267"/>
      <point x="585" y="267" type="curve" smooth="yes"/>
    </contour>
    <contour>
      <point x="1232" y="0" type="line"/>
      <point x="1644" y="0" type="line"/>
      <point x="1644" y="1658" type="line"/>
      <point x="1232" y="1658" type="line"/>
    </contour>
  </outline>
</glyph>
<glyph name="afii10046" format="1">
  <advance width="1167"/>
  <unicode hex="042C"/>
  <outline>
    <contour>
      <point x="120" y="0" type="line"/>
      <point x="569" y="0" type="line" smooth="yes"/>
      <point x="838" y="0"/>
      <point x="1093" y="54"/>
      <point x="1093" y="478" type="curve" smooth="yes"/>
      <point x="1093" y="792"/>
      <point x="916" y="954"/>
      <point x="618" y="954" type="curve" smooth="yes"/>
      <point x="532" y="954" type="line"/>
      <point x="532" y="1658" type="line"/>
      <point x="120" y="1658" type="line"/>
    </contour>
    <contour>
      <point x="532" y="267" type="line"/>
      <point x="532" y="671" type="line"/>
      <point x="568" y="671" type="line" smooth="yes"/>
      <point x="687" y="671"/>
      <point x="709" y="574"/>
      <point x="713" y="487" type="curve" smooth="yes"/>
      <point x="719" y="354"/>
      <point x="687" y="267"/>
      <point x="572" y="267" type="curve" smooth="yes"/>
    </contour>
  </outline>
</glyph>
<glyph name="afii10047" format="1">
  <advance width="1187"/>
  <unicode hex="042D"/>
  <outline>
    <contour>
      <point x="591.0" y="-27.0" type="curve" smooth="yes"/>
      <point x="978.0" y="-27.0"/>
      <point x="1107.0" y="181.0"/>
      <point x="1107.0" y="528.0" type="curve" smooth="yes"/>
      <point x="1107.0" y="1128.0" type="line" smooth="yes"/>
      <point x="1107.0" y="1475.0"/>
      <point x="978.0" y="1683.0"/>
      <point x="591.0" y="1683.0" type="curve" smooth="yes"/>
      <point x="204.0" y="1683.0"/>
      <point x="93.0" y="1470.0"/>
      <point x="93.0" y="1195.0" type="curve" smooth="yes"/>
      <point x="93" y="1111" type="line"/>
      <point x="499" y="1111" type="line"/>
      <point x="499.0" y="1239.0" type="line" smooth="yes"/>
      <point x="499.0" y="1305.0"/>
      <point x="501.0" y="1399.0"/>
      <point x="591.0" y="1399.0" type="curve" smooth="yes"/>
      <point x="681.0" y="1399.0"/>
      <point x="687.0" y="1305.0"/>
      <point x="687.0" y="1239.0" type="curve" smooth="yes"/>
      <point x="687.0" y="416.0" type="line" smooth="yes"/>
      <point x="687.0" y="350.0"/>
      <point x="681.0" y="257.0"/>
      <point x="591.0" y="257.0" type="curve" smooth="yes"/>
      <point x="501.0" y="257.0"/>
      <point x="499.0" y="350.0"/>
      <point x="499.0" y="416.0" type="curve" smooth="yes"/>
      <point x="499" y="541" type="line"/>
      <point x="93" y="541" type="line"/>
      <point x="93.0" y="452.0" type="line" smooth="yes"/>
      <point x="93.0" y="177.0"/>
      <point x="204.0" y="-27.0"/>
    </contour>
    <contour>
      <point x="458" y="720" type="line"/>
      <point x="923" y="720" type="line"/>
      <point x="923" y="914" type="line"/>
      <point x="458" y="914" type="line"/>
    </contour>
  </outline>
</glyph>
<glyph name="afii10048" format="1">
  <advance width="1764"/>
  <unicode hex="042E"/>
  <outline>
    <contour>
      <point x="1190" y="-26" type="curve" smooth="yes"/>
      <point x="1556" y="-26"/>
      <point x="1664" y="202"/>
      <point x="1664" y="549" type="curve" smooth="yes"/>
      <point x="1664" y="1109" type="line" smooth="yes"/>
      <point x="1664" y="1456"/>
      <point x="1556" y="1684"/>
      <point x="1190" y="1684" type="curve" smooth="yes"/>
      <point x="825" y="1684"/>
      <point x="717" y="1456"/>
      <point x="717" y="1109" type="curve" smooth="yes"/>
      <point x="717" y="987" type="line"/>
      <point x="542" y="987" type="line"/>
      <point x="542" y="1658" type="line"/>
      <point x="130" y="1658" type="line"/>
      <point x="130" y="0" type="line"/>
      <point x="542" y="0" type="line"/>
      <point x="542" y="685" type="line"/>
      <point x="717" y="685" type="line"/>
      <point x="717" y="549" type="line" smooth="yes"/>
      <point x="717" y="202"/>
      <point x="825" y="-26"/>
    </contour>
    <contour>
      <point x="1190" y="258" type="curve" smooth="yes"/>
      <point x="1105" y="258"/>
      <point x="1105" y="352"/>
      <point x="1105" y="418" type="curve" smooth="yes"/>
      <point x="1105" y="1241" type="line" smooth="yes"/>
      <point x="1105" y="1307"/>
      <point x="1105" y="1400"/>
      <point x="1190" y="1400" type="curve" smooth="yes"/>
      <point x="1275" y="1400"/>
      <point x="1275" y="1307"/>
      <point x="1275" y="1241" type="curve" smooth="yes"/>
      <point x="1275" y="418" type="line" smooth="yes"/>
      <point x="1275" y="352"/>
      <point x="1275" y="258"/>
    </contour>
  </outline>
</glyph>
<glyph name="afii10049" format="1">
  <advance width="1250"/>
  <unicode hex="042F"/>
  <outline>
    <contour>
      <point x="96" y="0" type="line"/>
      <point x="517" y="0" type="line"/>
      <point x="633.748" y="704" type="line"/>
      <point x="675.874" y="704.0" type="line"/>
      <point x="718" y="704" type="line"/>
      <point x="718" y="0" type="line"/>
      <point x="1130" y="0" type="line"/>
      <point x="1130" y="1658" type="line"/>
      <point x="648" y="1658" type="line" smooth="yes"/>
      <point x="379" y="1658"/>
      <point x="64" y="1604"/>
      <point x="64" y="1180" type="curve" smooth="yes"/>
      <point x="64" y="997.443"/>
      <point x="135.998" y="866.264"/>
      <point x="254.838" y="788.43" type="curve"/>
    </contour>
    <contour>
      <point x="644" y="995" type="line" smooth="yes"/>
      <point x="489" y="995"/>
      <point x="445" y="1070"/>
      <point x="445" y="1176" type="curve" smooth="yes"/>
      <point x="445" y="1325"/>
      <point x="511" y="1378"/>
      <point x="640" y="1378" type="curve" smooth="yes"/>
      <point x="718" y="1378" type="line"/>
      <point x="718" y="995" type="line"/>
    </contour>
  </outline>
</glyph>
<glyph name="afii10066" format="1">
  <advance width="1020"/>
  <unicode hex="0431"/>
  <outline>
    <contour>
      <point x="508" y="-20" type="curve" smooth="yes"/>
      <point x="767" y="-24"/>
      <point x="938" y="57"/>
      <point x="938" y="420" type="curve" smooth="yes"/>
      <point x="938" y="732" type="line" smooth="yes"/>
      <point x="938" y="1056"/>
      <point x="860" y="1182"/>
      <point x="620" y="1182" type="curve" smooth="yes"/>
      <point x="554" y="1182"/>
      <point x="473" y="1161"/>
      <point x="420" y="1135" type="curve"/>
      <point x="421" y="1191" type="line" smooth="yes"/>
      <point x="425" y="1498"/>
      <point x="545" y="1345"/>
      <point x="847" y="1488" type="curve"/>
      <point x="847" y="1768" type="line"/>
      <point x="465" y="1604"/>
      <point x="88" y="1723"/>
      <point x="88" y="1127" type="curve" smooth="yes"/>
      <point x="88" y="471" type="line" smooth="yes"/>
      <point x="88" y="167"/>
      <point x="138" y="-15"/>
    </contour>
    <contour>
      <point x="521" y="210" type="curve" smooth="yes"/>
      <point x="447" y="210"/>
      <point x="445" y="252"/>
      <point x="445" y="488" type="curve" smooth="yes"/>
      <point x="445" y="806" type="line" smooth="yes"/>
      <point x="445" y="934"/>
      <point x="465" y="974"/>
      <point x="519" y="974" type="curve" smooth="yes"/>
      <point x="583" y="974"/>
      <point x="592" y="932"/>
      <point x="592" y="804" type="curve" smooth="yes"/>
      <point x="592" y="490" type="line" smooth="yes"/>
      <point x="592" y="248"/>
      <point x="591" y="210"/>
    </contour>
  </outline>
</glyph>
<glyph name="afii10067" format="1">
  <advance width="1096"/>
  <unicode hex="0432"/>
  <outline>
    <contour>
      <point x="102" y="0" type="line"/>
      <point x="525" y="0" type="line" smooth="yes"/>
      <point x="906" y="0"/>
      <point x="1036" y="100"/>
      <point x="1036" y="343" type="curve" smooth="yes"/>
      <point x="1036" y="502"/>
      <point x="994" y="593"/>
      <point x="814" y="642" type="curve"/>
      <point x="919" y="667"/>
      <point x="1007" y="715"/>
      <point x="1007" y="884" type="curve" smooth="yes"/>
      <point x="1007" y="1068"/>
      <point x="949" y="1184"/>
      <point x="551" y="1184" type="curve" smooth="yes"/>
      <point x="102" y="1184" type="line"/>
    </contour>
    <contour>
      <point x="474" y="191" type="line"/>
      <point x="474" y="533" type="line"/>
      <point x="520" y="533" type="line" smooth="yes"/>
      <point x="613" y="533"/>
      <point x="674" y="533"/>
      <point x="674" y="353" type="curve" smooth="yes"/>
      <point x="674" y="191"/>
      <point x="610" y="191"/>
      <point x="521" y="191" type="curve" smooth="yes"/>
    </contour>
    <contour>
      <point x="474" y="720" type="line"/>
      <point x="474" y="1007" type="line"/>
      <point x="525" y="1007" type="line" smooth="yes"/>
      <point x="638" y="1007"/>
      <point x="644" y="936"/>
      <point x="644" y="856" type="curve" smooth="yes"/>
      <point x="644" y="778"/>
      <point x="627" y="720"/>
      <point x="548" y="720" type="curve" smooth="yes"/>
    </contour>
  </outline>
</glyph>
<glyph name="afii10068" format="1">
  <advance width="738"/>
  <unicode hex="0433"/>
  <outline>
    <contour>
      <point x="85" y="0" type="line"/>
      <point x="457" y="0" type="line"/>
      <point x="457" y="948" type="line"/>
      <point x="713" y="948" type="line"/>
      <point x="713" y="1184" type="line"/>
      <point x="85" y="1184" type="line"/>
    </contour>
  </outline>
</glyph>
<glyph name="afii10069" format="1">
  <advance width="1321"/>
  <unicode hex="0434"/>
  <outline>
    <contour>
      <point x="88" y="-328" type="line"/>
      <point x="357" y="-328" type="line"/>
      <point x="377" y="0" type="line"/>
      <point x="998" y="0" type="line"/>
      <point x="1021" y="-328" type="line"/>
      <point x="1287" y="-328" type="line"/>
      <point x="1287" y="222" type="line"/>
      <point x="1106" y="222" type="line"/>
      <point x="1106" y="1184" type="line"/>
      <point x="415" y="1184" type="line"/>
      <point x="370" y="717" type="line" smooth="yes"/>
      <point x="345" y="460"/>
      <point x="270" y="292"/>
      <point x="88" y="222" type="curve"/>
    </contour>
    <contour>
      <point x="499" y="222" type="line"/>
      <point x="581" y="298"/>
      <point x="637" y="424"/>
      <point x="656" y="629" type="curve" smooth="yes"/>
      <point x="687" y="970" type="line"/>
      <point x="770" y="970" type="line"/>
      <point x="770" y="222" type="line"/>
    </contour>
  </outline>
</glyph>
<glyph name="afii10072" format="1">
  <advance width="1374"/>
  <unicode hex="0436"/>
  <outline>
    <contour>
      <point x="9" y="0" type="line"/>
      <point x="341" y="0" type="line"/>
      <point x="498" y="489" type="line"/>
      <point x="521.692" y="489" type="line"/>
      <point x="521.692" y="0" type="line"/>
      <point x="834.231" y="0" type="line"/>
      <point x="834.231" y="489" type="line"/>
      <point x="858" y="489" type="line"/>
      <point x="1033" y="0" type="line"/>
      <point x="1365" y="0" type="line"/>
      <point x="1113" y="603" type="line"/>
      <point x="1343" y="1184" type="line"/>
      <point x="1024" y="1184" type="line"/>
      <point x="855" y="685" type="line"/>
      <point x="834.231" y="685" type="line"/>
      <point x="834.231" y="1184" type="line"/>
      <point x="521.692" y="1184" type="line"/>
      <point x="521.692" y="685" type="line"/>
      <point x="497" y="685" type="line"/>
      <point x="350" y="1184" type="line"/>
      <point x="31" y="1184" type="line"/>
      <point x="243" y="603" type="line"/>
    </contour>
  </outline>
</glyph>
<glyph name="afii10073" format="1">
  <advance width="975"/>
  <unicode hex="0437"/>
  <outline>
    <contour>
      <point x="478" y="-22" type="curve" smooth="yes"/>
      <point x="795" y="-22"/>
      <point x="921" y="134"/>
      <point x="921" y="325" type="curve" smooth="yes"/>
      <point x="921" y="498"/>
      <point x="854" y="570"/>
      <point x="749" y="615" type="curve"/>
      <point x="843" y="649"/>
      <point x="913" y="727"/>
      <point x="913" y="868" type="curve" smooth="yes"/>
      <point x="913" y="1063"/>
      <point x="791" y="1206"/>
      <point x="494" y="1206" type="curve" smooth="yes"/>
      <point x="140" y="1206"/>
      <point x="78" y="998"/>
      <point x="78" y="804" type="curve"/>
      <point x="367" y="804" type="line"/>
      <point x="367" y="911"/>
      <point x="391" y="953"/>
      <point x="476" y="953" type="curve" smooth="yes"/>
      <point x="554" y="953"/>
      <point x="575" y="905"/>
      <point x="575" y="836" type="curve" smooth="yes"/>
      <point x="575" y="738"/>
      <point x="555" y="703"/>
      <point x="427" y="703" type="curve"/>
      <point x="427" y="525" type="line"/>
      <point x="556" y="525"/>
      <point x="605" y="475"/>
      <point x="605" y="371" type="curve" smooth="yes"/>
      <point x="605" y="290"/>
      <point x="576" y="230"/>
      <point x="490" y="230" type="curve" smooth="yes"/>
      <point x="405" y="230"/>
      <point x="371" y="288"/>
      <point x="371" y="402" type="curve"/>
      <point x="78" y="402" type="line"/>
      <point x="78" y="200"/>
      <point x="115" y="-22"/>
    </contour>
  </outline>
</glyph>
<glyph name="afii10074" format="1">
  <advance width="1042"/>
  <unicode hex="0438"/>
  <outline>
    <contour>
      <point x="84.4492" y="0" type="line"/>
      <point x="405.474" y="0" type="line"/>
      <point x="629" y="535.572" type="line"/>
      <point x="629" y="0" type="line"/>
      <point x="957.52" y="0" type="line"/>
      <point x="957.52" y="1184" type="line"/>
      <point x="629" y="1184" type="line"/>
      <point x="405.474" y="603.925" type="line"/>
      <point x="405.474" y="1184" type="line"/>
      <point x="84.4492" y="1184" type="line"/>
    </contour>
  </outline>
</glyph>
<glyph name="afii10076" format="1">
  <advance width="1111"/>
  <unicode hex="043A"/>
  <outline>
    <contour>
      <point x="102" y="0" type="line"/>
      <point x="474" y="0" type="line"/>
      <point x="474" y="490.468" type="line"/>
      <point x="509" y="536" type="line"/>
      <point x="692" y="0" type="line"/>
      <point x="1088" y="0" type="line"/>
      <point x="849" y="630" type="line"/>
      <point x="1081" y="1184" type="line"/>
      <point x="675" y="1184" type="line"/>
      <point x="474" y="699.39" type="line"/>
      <point x="474" y="1184" type="line"/>
      <point x="102" y="1184" type="line"/>
    </contour>
  </outline>
</glyph>
<glyph name="afii10077" format="1">
  <advance width="1187"/>
  <unicode hex="043B"/>
  <outline>
    <contour>
      <point x="35" y="0" type="line"/>
      <point x="112" y="-9"/>
      <point x="179" y="-14"/>
      <point x="236" y="-14" type="curve" smooth="yes"/>
      <point x="469" y="-14"/>
      <point x="557" y="150"/>
      <point x="586" y="487" type="curve"/>
      <point x="618.634" y="933" type="line"/>
      <point x="730" y="933" type="line"/>
      <point x="730" y="0" type="line"/>
      <point x="1102" y="0" type="line"/>
      <point x="1102" y="1184" type="line"/>
      <point x="305" y="1184" type="line"/>
      <point x="254" y="533" type="line"/>
      <point x="233" y="307"/>
      <point x="164" y="246"/>
      <point x="35" y="246" type="curve"/>
    </contour>
  </outline>
</glyph>
<glyph name="afii10078" format="1">
  <advance width="1160"/>
  <unicode hex="043C"/>
  <outline>
    <contour>
      <point x="85" y="0" type="line"/>
      <point x="385" y="0" type="line"/>
      <point x="385" y="519" type="line"/>
      <point x="526" y="208" type="line"/>
      <point x="636" y="208" type="line"/>
      <point x="776" y="516" type="line"/>
      <point x="776" y="0" type="line"/>
      <point x="1076" y="0" type="line"/>
      <point x="1076" y="1184" type="line"/>
      <point x="776" y="1184" type="line"/>
      <point x="581" y="672" type="line"/>
      <point x="385" y="1184" type="line"/>
      <point x="85" y="1184" type="line"/>
    </contour>
  </outline>
</glyph>
<glyph name="afii10079" format="1">
  <advance width="1088"/>
  <unicode hex="043D"/>
  <outline>
    <component base="lc_xheight_stem" xOffset="554"/>
    <component base="lc_xheight_stem" xOffset="8"/>
    <contour>
      <point x="272" y="487" type="line"/>
      <point x="815" y="487" type="line"/>
      <point x="815" y="739" type="line"/>
      <point x="272" y="739" type="line"/>
    </contour>
  </outline>
</glyph>
<glyph name="afii10081" format="1">
  <advance width="1043"/>
  <unicode hex="043F"/>
  <outline>
    <contour>
      <point x="76" y="0" type="line"/>
      <point x="448" y="0" type="line"/>
      <point x="448" y="936" type="line"/>
      <point x="595" y="936" type="line"/>
      <point x="595" y="0" type="line"/>
      <point x="967" y="0" type="line"/>
      <point x="967" y="1184" type="line"/>
      <point x="76" y="1184" type="line"/>
    </contour>
  </outline>
</glyph>
<glyph name="afii10082" format="1">
  <advance width="1044"/>
  <unicode hex="0440"/>
  <outline>
    <contour>
      <point x="85" y="-390" type="line"/>
      <point x="457" y="-390" type="line"/>
      <point x="457" y="89.5598" type="line"/>
      <point x="543.708" y="18.3754"/>
      <point x="636.508" y="-22"/>
      <point x="723" y="-22" type="curve" smooth="yes"/>
      <point x="868" y="-22"/>
      <point x="969" y="93"/>
      <point x="969" y="303" type="curve" smooth="yes"/>
      <point x="969" y="890" type="line" smooth="yes"/>
      <point x="969" y="1100"/>
      <point x="877" y="1199"/>
      <point x="723" y="1206" type="curve" smooth="yes"/>
      <point x="644.506" y="1209.51"/>
      <point x="549.541" y="1177.34"/>
      <point x="457" y="1100.24" type="curve"/>
      <point x="457" y="1184" type="line"/>
      <point x="85" y="1184" type="line"/>
    </contour>
    <contour>
      <point x="523" y="207" type="curve" smooth="yes"/>
      <point x="503.729" y="207.543"/>
      <point x="481.069" y="216.705"/>
      <point x="457" y="230.988" type="curve"/>
      <point x="457" y="962.96" type="line"/>
      <point x="482.863" y="981.214"/>
      <point x="506.018" y="993.365"/>
      <point x="523" y="996" type="curve" smooth="yes"/>
      <point x="568" y="1003"/>
      <point x="596" y="966"/>
      <point x="596" y="925" type="curve" smooth="yes"/>
      <point x="596" y="279" type="line" smooth="yes"/>
      <point x="596" y="238"/>
      <point x="568" y="206"/>
    </contour>
  </outline>
</glyph>
<glyph name="afii10084" format="1">
  <advance width="917"/>
  <unicode hex="0442"/>
  <outline>
    <contour>
      <point x="267" y="0" type="line"/>
      <point x="639" y="0" type="line"/>
      <point x="639" y="936" type="line"/>
      <point x="841" y="936" type="line"/>
      <point x="841" y="1183.96" type="line"/>
      <point x="78" y="1183.96" type="line"/>
      <point x="78" y="936" type="line"/>
      <point x="267" y="936" type="line"/>
    </contour>
  </outline>
</glyph>
<glyph name="afii10085" format="1">
  <advance width="872"/>
  <unicode hex="0443"/>
  <outline>
    <contour>
      <point x="50" y="-426" type="line"/>
      <point x="496" y="-426"/>
      <point x="572" y="-312"/>
      <point x="632" y="0" type="curve" smooth="yes"/>
      <point x="868" y="1184" type="line"/>
      <point x="535" y="1184" type="line"/>
      <point x="450" y="336" type="line"/>
      <point x="348" y="1184" type="line"/>
      <point x="16" y="1184" type="line"/>
      <point x="244" y="91" type="line" smooth="yes"/>
      <point x="279" y="-81"/>
      <point x="245" y="-137"/>
      <point x="15" y="-137" type="curve"/>
    </contour>
  </outline>
</glyph>
<glyph name="afii10086" format="1">
  <advance width="1465"/>
  <unicode hex="0444"/>
  <outline>
    <contour>
      <point x="572.323" y="-390" type="line"/>
      <point x="889.322" y="-390" type="line"/>
      <point x="889.322" y="-1.17836" type="line"/>
      <point x="1145" y="-17" type="line" smooth="yes"/>
      <point x="1300" y="-27"/>
      <point x="1393" y="72"/>
      <point x="1393" y="278" type="curve" smooth="yes"/>
      <point x="1393" y="915" type="line" smooth="yes"/>
      <point x="1393" y="1116"/>
      <point x="1291" y="1223"/>
      <point x="1142" y="1210" type="curve" smooth="yes"/>
      <point x="889.322" y="1188.79" type="line"/>
      <point x="889.322" y="1657.23" type="line"/>
      <point x="572.323" y="1657.23" type="line"/>
      <point x="572.323" y="1189.52" type="line"/>
      <point x="323" y="1210" type="line" smooth="yes"/>
      <point x="174" y="1222"/>
      <point x="72" y="1116"/>
      <point x="72" y="915" type="curve" smooth="yes"/>
      <point x="72" y="278" type="line" smooth="yes"/>
      <point x="72" y="72"/>
      <point x="166" y="-26"/>
      <point x="320" y="-17" type="curve" smooth="yes"/>
      <point x="572.323" y="-2.01643" type="line"/>
    </contour>
    <contour>
      <point x="484" y="209" type="line" smooth="yes"/>
      <point x="445" y="208"/>
      <point x="421" y="245"/>
      <point x="421" y="286" type="curve" smooth="yes"/>
      <point x="421" y="900" type="line" smooth="yes"/>
      <point x="421" y="954"/>
      <point x="443" y="993"/>
      <point x="488" y="990" type="curve" smooth="yes"/>
      <point x="572.323" y="984.837" type="line"/>
      <point x="572.323" y="211.896" type="line"/>
    </contour>
    <contour>
      <point x="981" y="209" type="curve" smooth="yes"/>
      <point x="889.322" y="211.899" type="line"/>
      <point x="889.322" y="984.61" type="line"/>
      <point x="977" y="990" type="line" smooth="yes"/>
      <point x="1022" y="993"/>
      <point x="1044" y="954"/>
      <point x="1044" y="900" type="curve" smooth="yes"/>
      <point x="1044" y="286" type="line" smooth="yes"/>
      <point x="1044" y="245"/>
      <point x="1020" y="208"/>
    </contour>
  </outline>
</glyph>
<glyph name="afii10087" format="1">
  <advance width="883"/>
  <unicode hex="0445"/>
  <outline>
    <contour>
      <point x="13" y="0" type="line"/>
      <point x="314" y="0" type="line"/>
      <point x="418.783" y="300.47" type="line"/>
      <point x="551" y="0" type="line"/>
      <point x="932" y="0" type="line"/>
      <point x="665.911" y="601.238" type="line"/>
      <point x="889" y="1184" type="line"/>
      <point x="619" y="1184" type="line"/>
      <point x="520.719" y="929.307" type="line"/>
      <point x="408" y="1184" type="line"/>
      <point x="30" y="1184" type="line"/>
      <point x="261.158" y="658.68" type="line"/>
    </contour>
  </outline>
</glyph>
<glyph name="afii10088" format="1">
  <advance width="1202"/>
  <unicode hex="0446"/>
  <outline>
    <component base="lc_xheight_stem" xOffset="8"/>
    <component base="lc_xheight_stem" xOffset="523"/>
    <contour>
      <point x="922" y="-378" type="line"/>
      <point x="1182" y="-378" type="line"/>
      <point x="1182" y="248" type="line"/>
      <point x="277" y="248" type="line"/>
      <point x="277" y="0" type="line"/>
      <point x="902" y="0" type="line"/>
    </contour>
  </outline>
</glyph>
<glyph name="afii10089" format="1">
  <advance width="1006"/>
  <unicode hex="0447"/>
  <outline>
    <contour>
      <point x="549" y="0" type="line"/>
      <point x="921" y="0" type="line"/>
      <point x="921" y="1184" type="line"/>
      <point x="549" y="1184" type="line"/>
      <point x="549" y="676" type="line"/>
      <point x="542.533719599" y="676.0"/>
      <point x="536.372864927" y="676.111989434"/>
      <point x="530.50379506" y="676.340910665" type="curve" smooth="yes"/>
      <point x="435.624565311" y="680.041645287"/>
      <point x="417.0" y="714.301184833"/>
      <point x="417" y="800" type="curve" smooth="yes"/>
      <point x="417" y="1184" type="line"/>
      <point x="45" y="1184" type="line"/>
      <point x="45" y="773" type="line" smooth="yes"/>
      <point x="45" y="608"/>
      <point x="108" y="477"/>
      <point x="458" y="477" type="curve" smooth="yes"/>
      <point x="486.455" y="477"/>
      <point x="516.726" y="478.297"/>
      <point x="549" y="480.985" type="curve"/>
    </contour>
  </outline>
</glyph>
<glyph name="afii10090" format="1">
  <advance width="1483"/>
  <unicode hex="0448"/>
  <outline>
    <component base="lc_xheight_stem" xScale="0.929711" xOffset="497"/>
    <component base="lc_xheight_stem" xScale="0.929711" xOffset="13"/>
    <component base="lc_xheight_stem" xScale="0.929711" xOffset="981"/>
    <contour>
      <point x="264.094" y="0" type="line"/>
      <point x="1231" y="0" type="line"/>
      <point x="1231" y="248" type="line"/>
      <point x="264.094" y="248" type="line"/>
    </contour>
  </outline>
</glyph>
<glyph name="afii10091" format="1">
  <advance width="1649"/>
  <unicode hex="0449"/>
  <outline>
    <contour>
      <point x="1349.83" y="-378" type="line"/>
      <point x="1629.83" y="-378" type="line"/>
      <point x="1629.83" y="248" type="line"/>
      <point x="1399.68" y="248" type="line"/>
      <point x="1399.68" y="1184" type="line"/>
      <point x="1051" y="1184" type="line"/>
      <point x="1051" y="248" type="line"/>
      <point x="915.683" y="248" type="line"/>
      <point x="915.683" y="1184" type="line"/>
      <point x="567" y="1184" type="line"/>
      <point x="567" y="248" type="line"/>
      <point x="433.683" y="248" type="line"/>
      <point x="433.683" y="1184" type="line"/>
      <point x="85" y="1184" type="line"/>
      <point x="85" y="0" type="line"/>
      <point x="1319.83" y="0" type="line"/>
    </contour>
  </outline>
</glyph>
<glyph name="afii10092" format="1">
  <advance width="1186"/>
  <unicode hex="044A"/>
  <outline>
    <contour>
      <point x="237" y="0" type="line"/>
      <point x="622" y="0" type="line" smooth="yes"/>
      <point x="982" y="0"/>
      <point x="1133" y="102"/>
      <point x="1133" y="346" type="curve" smooth="yes"/>
      <point x="1133" y="627"/>
      <point x="941" y="713"/>
      <point x="613" y="713" type="curve" smooth="yes"/>
      <point x="609" y="713" type="line"/>
      <point x="609" y="1184" type="line"/>
      <point x="19" y="1184" type="line"/>
      <point x="19" y="950" type="line"/>
      <point x="237" y="950" type="line"/>
    </contour>
    <contour>
      <point x="609" y="211" type="line"/>
      <point x="609" y="493" type="line"/>
      <point x="617" y="493" type="line" smooth="yes"/>
      <point x="736" y="491"/>
      <point x="795" y="462"/>
      <point x="795" y="343" type="curve" smooth="yes"/>
      <point x="795" y="249"/>
      <point x="745" y="214"/>
      <point x="617" y="211" type="curve" smooth="yes"/>
    </contour>
  </outline>
</glyph>
<glyph name="afii10093" format="1">
  <advance width="1571"/>
  <unicode hex="044B"/>
  <outline>
    <contour>
      <point x="76.0" y="0.0" type="line"/>
      <point x="461.0" y="0.0" type="line" smooth="yes"/>
      <point x="821.0" y="0.0"/>
      <point x="972.0" y="102.0"/>
      <point x="972.0" y="346.0" type="curve" smooth="yes"/>
      <point x="972.0" y="627.0"/>
      <point x="780.0" y="713.0"/>
      <point x="452.0" y="713.0" type="curve" smooth="yes"/>
      <point x="448.0" y="713.0" type="line"/>
      <point x="448.0" y="1184.0" type="line"/>
      <point x="76.0" y="1184.0" type="line"/>
    </contour>
    <contour>
      <point x="448.0" y="211.029" type="curve"/>
      <point x="448.0" y="492.974" type="line"/>
      <point x="450.815307727" y="492.952349884"/>
      <point x="453.598494599" y="492.917198034"/>
      <point x="456.349571593" y="492.867753165" type="curve" smooth="yes"/>
      <point x="575.077270528" y="490.733870497"/>
      <point x="634.0" y="461.979097764"/>
      <point x="634.0" y="343.0" type="curve" smooth="yes"/>
      <point x="634.0" y="248.563819821"/>
      <point x="583.856004281" y="213.557845208"/>
      <point x="455.829820028" y="211.135898713" type="curve" smooth="yes"/>
      <point x="453.251541932" y="211.087123913"/>
      <point x="450.64167744" y="211.051564098"/>
    </contour>
    <contour>
      <point x="1114" y="0" type="line"/>
      <point x="1486" y="0" type="line"/>
      <point x="1486" y="1184" type="line"/>
      <point x="1114" y="1184" type="line"/>
    </contour>
  </outline>
</glyph>
<glyph name="afii10094" format="1">
  <advance width="1025"/>
  <unicode hex="044C"/>
  <outline>
    <contour>
      <point x="76" y="0" type="line"/>
      <point x="461" y="0" type="line" smooth="yes"/>
      <point x="821" y="0"/>
      <point x="972" y="102"/>
      <point x="972" y="346" type="curve" smooth="yes"/>
      <point x="972" y="627"/>
      <point x="780" y="713"/>
      <point x="452" y="713" type="curve" smooth="yes"/>
      <point x="448" y="713" type="line"/>
      <point x="448" y="1184" type="line"/>
      <point x="76" y="1184" type="line"/>
    </contour>
    <contour>
      <point x="448" y="211.029" type="curve"/>
      <point x="448" y="492.974" type="line"/>
      <point x="450.815307727" y="492.952349884"/>
      <point x="453.598494599" y="492.917198034"/>
      <point x="456.349571593" y="492.867753165" type="curve" smooth="yes"/>
      <point x="575.077270528" y="490.733870497"/>
      <point x="634.0" y="461.979097764"/>
      <point x="634" y="343" type="curve" smooth="yes"/>
      <point x="634.0" y="248.563819821"/>
      <point x="583.856004281" y="213.557845208"/>
      <point x="455.829820028" y="211.135898713" type="curve" smooth="yes"/>
      <point x="453.251541932" y="211.087123913"/>
      <point x="450.64167744" y="211.051564098"/>
    </contour>
  </outline>
</glyph>
<glyph name="afii10095" format="1">
  <advance width="1021"/>
  <unicode hex="044D"/>
  <outline>
    <contour>
      <point x="512" y="-22" type="curve" smooth="yes"/>
      <point x="760" y="-22"/>
      <point x="943" y="111"/>
      <point x="943" y="347" type="curve" smooth="yes"/>
      <point x="943" y="835" type="line" smooth="yes"/>
      <point x="943" y="1071"/>
      <point x="760" y="1206"/>
      <point x="512" y="1206" type="curve" smooth="yes"/>
      <point x="264" y="1206"/>
      <point x="86" y="1090"/>
      <point x="86" y="853" type="curve" smooth="yes"/>
      <point x="86" y="761" type="line"/>
      <point x="450" y="761" type="line"/>
      <point x="450" y="855" type="line" smooth="yes"/>
      <point x="450" y="932"/>
      <point x="480" y="943"/>
      <point x="512" y="943" type="curve" smooth="yes"/>
      <point x="542" y="943"/>
      <point x="569" y="921"/>
      <point x="569" y="847" type="curve" smooth="yes"/>
      <point x="569" y="655" type="line"/>
      <point x="302" y="655" type="line"/>
      <point x="302" y="508" type="line"/>
      <point x="569" y="508" type="line"/>
      <point x="569" y="335" type="line" smooth="yes"/>
      <point x="569" y="261"/>
      <point x="542" y="239"/>
      <point x="512" y="239" type="curve" smooth="yes"/>
      <point x="480" y="239"/>
      <point x="450" y="250"/>
      <point x="450" y="327" type="curve" smooth="yes"/>
      <point x="450" y="399" type="line"/>
      <point x="86" y="399" type="line"/>
      <point x="86" y="329" type="line" smooth="yes"/>
      <point x="86" y="92"/>
      <point x="264" y="-22"/>
    </contour>
  </outline>
</glyph>
<glyph name="afii10096" format="1">
  <advance width="1525.85"/>
  <unicode hex="044E"/>
  <outline>
    <contour>
      <point x="1026.64" y="-22" type="curve" smooth="yes"/>
      <point x="1265.13" y="-22"/>
      <point x="1447.85" y="94"/>
      <point x="1447.85" y="349" type="curve" smooth="yes"/>
      <point x="1447.85" y="835" type="line" smooth="yes"/>
      <point x="1447.85" y="1090"/>
      <point x="1265.13" y="1206"/>
      <point x="1026.64" y="1206" type="curve" smooth="yes"/>
      <point x="788.147" y="1206"/>
      <point x="610.24" y="1089"/>
      <point x="610.24" y="835" type="curve" smooth="yes"/>
      <point x="610.24" y="727" type="line"/>
      <point x="474" y="727" type="line"/>
      <point x="474" y="1184" type="line"/>
      <point x="102" y="1184" type="line"/>
      <point x="102" y="0" type="line"/>
      <point x="474" y="0" type="line"/>
      <point x="474" y="461.608" type="line"/>
      <point x="610.24" y="461.325" type="line"/>
      <point x="610.24" y="349" type="line" smooth="yes"/>
      <point x="610.24" y="95"/>
      <point x="788.147" y="-22"/>
    </contour>
    <contour>
      <point x="1027.6" y="241" type="curve" smooth="yes"/>
      <point x="985.289" y="241"/>
      <point x="962.209" y="269"/>
      <point x="962.209" y="343" type="curve" smooth="yes"/>
      <point x="962.209" y="841" type="line" smooth="yes"/>
      <point x="962.209" y="915"/>
      <point x="985.289" y="943"/>
      <point x="1027.6" y="943" type="curve" smooth="yes"/>
      <point x="1072.8" y="943"/>
      <point x="1095.88" y="918"/>
      <point x="1095.88" y="841" type="curve" smooth="yes"/>
      <point x="1095.88" y="343" type="line" smooth="yes"/>
      <point x="1095.88" y="266"/>
      <point x="1072.8" y="241"/>
    </contour>
  </outline>
</glyph>
<glyph name="afii10097" format="1">
  <advance width="1050"/>
  <unicode hex="044F"/>
  <outline>
    <contour>
      <point x="71" y="0" type="line"/>
      <point x="434" y="0" type="line"/>
      <point x="503.268" y="472.421" type="line"/>
      <point x="525.77" y="471.46"/>
      <point x="593" y="471"/>
      <point x="593" y="471" type="curve"/>
      <point x="593" y="0" type="line"/>
      <point x="965" y="0" type="line"/>
      <point x="965" y="1184" type="line"/>
      <point x="564" y="1184" type="line" smooth="yes"/>
      <point x="204" y="1184"/>
      <point x="53" y="1082"/>
      <point x="53" y="838" type="curve" smooth="yes"/>
      <point x="53" y="697.478"/>
      <point x="101.015" y="605.722"/>
      <point x="190.041" y="549.099" type="curve"/>
    </contour>
    <contour>
      <point x="584" y="691" type="line" smooth="yes"/>
      <point x="455" y="691"/>
      <point x="391" y="717"/>
      <point x="391" y="841" type="curve" smooth="yes"/>
      <point x="391" y="939"/>
      <point x="445" y="973"/>
      <point x="584" y="973" type="curve" smooth="yes"/>
      <point x="593" y="973" type="line"/>
      <point x="593" y="691" type="line"/>
    </contour>
  </outline>
</glyph>
<glyph name="afii10099" format="1">
  <advance width="1051"/>
  <unicode hex="0452"/>
  <outline>
    <contour>
      <point x="356.088" y="-338" type="line"/>
      <point x="397.088" y="-338" type="line" smooth="yes"/>
      <point x="820.088" y="-338"/>
      <point x="974.088" y="-246"/>
      <point x="974.088" y="210" type="curve" smooth="yes"/>
      <point x="974.088" y="972.201" type="line" smooth="yes"/>
      <point x="974.088" y="1116.83"/>
      <point x="885.088" y="1212.42"/>
      <point x="740.088" y="1212.42" type="curve" smooth="yes"/>
      <point x="638.929" y="1212.42"/>
      <point x="546.902" y="1188.7"/>
      <point x="455.088" y="1111.61" type="curve"/>
      <point x="455.088" y="1370" type="line"/>
      <point x="809" y="1370" type="line"/>
      <point x="809" y="1487" type="line"/>
      <point x="455.088" y="1487" type="line"/>
      <point x="455.088" y="1658" type="line"/>
      <point x="83.0879" y="1658" type="line"/>
      <point x="83.0879" y="1487" type="line"/>
      <point x="-25" y="1487" type="line"/>
      <point x="-25" y="1370" type="line"/>
      <point x="83.0879" y="1370" type="line"/>
      <point x="83.0879" y="0" type="line"/>
      <point x="455.088" y="0" type="line"/>
      <point x="455.088" y="971.04" type="line"/>
      <point x="491.41" y="989.662"/>
      <point x="522.774" y="996.938"/>
      <point x="545.088" y="997.968" type="curve" smooth="yes"/>
      <point x="588.088" y="999.631"/>
      <point x="602.088" y="978.02"/>
      <point x="602.088" y="938.122" type="curve" smooth="yes"/>
      <point x="602.088" y="210" type="line" smooth="yes"/>
      <point x="602.088" y="-0.0703125"/>
      <point x="595.088" y="-166"/>
      <point x="398.088" y="-166" type="curve" smooth="yes"/>
      <point x="356.088" y="-166" type="line"/>
    </contour>
  </outline>
</glyph>
<glyph name="afii10101" format="1">
  <advance width="989"/>
  <unicode hex="0454"/>
  <outline>
    <contour>
      <point x="509" y="-22" type="curve" smooth="yes"/>
      <point x="757" y="-22"/>
      <point x="935" y="94"/>
      <point x="935" y="331" type="curve" smooth="yes"/>
      <point x="935" y="453" type="line"/>
      <point x="571" y="453" type="line"/>
      <point x="571" y="329" type="line" smooth="yes"/>
      <point x="571" y="252"/>
      <point x="541" y="241"/>
      <point x="509" y="241" type="curve" smooth="yes"/>
      <point x="479" y="241"/>
      <point x="452" y="263"/>
      <point x="452" y="337" type="curve" smooth="yes"/>
      <point x="452" y="529" type="line"/>
      <point x="719" y="529" type="line"/>
      <point x="719" y="676" type="line"/>
      <point x="452" y="676" type="line"/>
      <point x="452" y="849" type="line" smooth="yes"/>
      <point x="452" y="923"/>
      <point x="479" y="945"/>
      <point x="509" y="945" type="curve" smooth="yes"/>
      <point x="541" y="945"/>
      <point x="571" y="934"/>
      <point x="571" y="857" type="curve" smooth="yes"/>
      <point x="571" y="755" type="line"/>
      <point x="935" y="755" type="line"/>
      <point x="935" y="855" type="line" smooth="yes"/>
      <point x="935" y="1092"/>
      <point x="757" y="1206"/>
      <point x="509" y="1206" type="curve" smooth="yes"/>
      <point x="261" y="1206"/>
      <point x="78" y="1073"/>
      <point x="78" y="837" type="curve" smooth="yes"/>
      <point x="78" y="349" type="line" smooth="yes"/>
      <point x="78" y="113"/>
      <point x="261" y="-22"/>
    </contour>
  </outline>
</glyph>
<glyph name="afii10106" format="1">
  <advance width="1655"/>
  <unicode hex="0459"/>
  <outline>
    <contour>
      <point x="46" y="0" type="line"/>
      <point x="110" y="0" type="line" smooth="yes"/>
      <point x="370" y="0"/>
      <point x="553" y="36"/>
      <point x="586" y="598" type="curve" smooth="yes"/>
      <point x="601.608" y="867" type="line"/>
      <point x="793" y="867" type="line"/>
      <point x="793" y="0" type="line"/>
      <point x="1181" y="0" type="line" smooth="yes"/>
      <point x="1541" y="0"/>
      <point x="1692" y="102"/>
      <point x="1692" y="346" type="curve" smooth="yes"/>
      <point x="1692" y="627"/>
      <point x="1500" y="713"/>
      <point x="1172" y="713" type="curve" smooth="yes"/>
      <point x="1165" y="713" type="line"/>
      <point x="1165" y="1184" type="line"/>
      <point x="297" y="1184" type="line"/>
      <point x="268" y="723" type="line" smooth="yes"/>
      <point x="241" y="288"/>
      <point x="212" y="236"/>
      <point x="46" y="236" type="curve"/>
    </contour>
    <contour>
      <point x="1165" y="211.01" type="curve"/>
      <point x="1165" y="492.991" type="line"/>
      <point x="1167.06958288" y="492.982120061"/>
      <point x="1169.12208325" y="492.966208754"/>
      <point x="1171.15750533" y="492.942959203" type="curve" smooth="yes"/>
      <point x="1293.35702975" y="491.547138615"/>
      <point x="1354.0" y="463.701529339"/>
      <point x="1354" y="343" type="curve" smooth="yes"/>
      <point x="1354.0" y="247.982580554"/>
      <point x="1303.23930487" y="213.12846989"/>
      <point x="1173.45451859" y="211.095741257" type="curve" smooth="yes"/>
      <point x="1170.67274264" y="211.05217224"/>
      <point x="1167.85466254" y="211.023681564"/>
    </contour>
  </outline>
</glyph>
<glyph name="afii10107" format="1">
  <advance width="1515"/>
  <unicode hex="045A"/>
  <outline>
    <contour>
      <point x="85" y="0" type="line"/>
      <point x="457" y="0" type="line"/>
      <point x="457" y="399" type="line"/>
      <point x="603" y="399" type="line"/>
      <point x="603" y="2" type="line"/>
      <point x="975" y="2.0066" type="line" smooth="yes"/>
      <point x="1331.4" y="2.95006"/>
      <point x="1481" y="105.133"/>
      <point x="1481" y="348" type="curve" smooth="yes"/>
      <point x="1481.0" y="618.727758305"/>
      <point x="1302.78387483" y="708.451599799"/>
      <point x="996.422979747" y="714.650050407" type="curve" smooth="yes"/>
      <point x="989.350082411" y="714.79315289"/>
      <point x="982.208883781" y="714.891736254"/>
      <point x="975" y="714.947" type="curve"/>
      <point x="975" y="1186" type="line"/>
      <point x="603" y="1186" type="line"/>
      <point x="603" y="715" type="line"/>
      <point x="457" y="715" type="line"/>
      <point x="457" y="1184" type="line"/>
      <point x="85" y="1184" type="line"/>
    </contour>
    <contour>
      <point x="975" y="213.403" type="curve"/>
      <point x="975" y="494.63" type="line"/>
      <point x="977.709253038" y="494.544477663"/>
      <point x="980.385580946" y="494.443330739"/>
      <point x="983.028995107" y="494.325737079" type="curve" smooth="yes"/>
      <point x="1089.92725301" y="489.570312214"/>
      <point x="1143.0" y="457.918710178"/>
      <point x="1143" y="345" type="curve" smooth="yes"/>
      <point x="1143.0" y="255.378431529"/>
      <point x="1097.83921539" y="219.281143435"/>
      <point x="983.807348744" y="213.764063077" type="curve" smooth="yes"/>
      <point x="980.915973224" y="213.624172786"/>
      <point x="977.980319149" y="213.503943103"/>
    </contour>
  </outline>
</glyph>
<glyph name="afii10108" format="1">
  <advance width="1103"/>
  <unicode hex="045B"/>
  <outline>
    <contour>
      <point x="1009" y="0" type="curve"/>
      <point x="1009" y="656" type="line" smooth="yes"/>
      <point x="1009" y="933"/>
      <point x="931" y="1190"/>
      <point x="482" y="1023" type="curve"/>
      <point x="482" y="1658" type="line"/>
      <point x="110" y="1658" type="line"/>
      <point x="110.0" y="0.0" type="line"/>
      <point x="482" y="0" type="line" smooth="yes"/>
      <point x="482" y="803" type="line"/>
      <point x="604" y="859"/>
      <point x="637" y="809"/>
      <point x="637" y="693" type="curve" smooth="yes"/>
      <point x="637" y="0" type="line"/>
      <point x="637" y="0"/>
      <point x="1009" y="0"/>
    </contour>
    <contour>
      <point x="-15" y="1260" type="line"/>
      <point x="730" y="1260" type="line"/>
      <point x="730" y="1473" type="line"/>
      <point x="-15" y="1473" type="line"/>
    </contour>
  </outline>
</glyph>
<glyph name="afii10193" format="1">
  <advance width="1076"/>
  <unicode hex="045F"/>
  <outline>
    <component base="lc_xheight_stem" xOffset="542"/>
    <component base="lc_xheight_stem" xOffset="8"/>
    <component base="uc_horiz_bar" xScale="0.69278" yScale="0.988889" xOffset="225"/>
    <contour>
      <point x="411" y="-378" type="line"/>
      <point x="686" y="-378" type="line"/>
      <point x="709" y="175" type="line"/>
      <point x="384" y="175" type="line"/>
    </contour>
  </outline>
</glyph>
<glyph name="uni0490" format="1">
  <advance width="970"/>
  <unicode hex="0490"/>
  <outline>
    <contour>
      <point x="98" y="0" type="line"/>
      <point x="510" y="0" type="line"/>
      <point x="510" y="1353" type="line"/>
      <point x="910" y="1353" type="line"/>
      <point x="910" y="1943" type="line"/>
      <point x="672" y="1943" type="line"/>
      <point x="672" y="1658" type="line"/>
      <point x="98" y="1658" type="line"/>
    </contour>
  </outline>
</glyph>
<glyph name="uni04AF" format="1">
  <advance width="957"/>
  <unicode hex="04AF"/>
  <outline>
    <contour>
      <point x="329" y="-359" type="line"/>
      <point x="652" y="-361" type="line"/>
      <point x="651" y="126" type="line"/>
      <point x="935" y="1184" type="line"/>
      <point x="590" y="1184" type="line"/>
      <point x="485" y="628" type="line"/>
      <point x="344" y="1184" type="line"/>
      <point x="-1" y="1184" type="line"/>
      <point x="330" y="125" type="line" smooth="yes"/>
    </contour>
  </outline>
</glyph>
<glyph name="uni04B0" format="1">
  <advance width="986"/>
  <unicode hex="04B0"/>
  <outline>
    <contour>
      <point x="2" y="663" type="line"/>
      <point x="986" y="663" type="line"/>
      <point x="986" y="912" type="line"/>
      <point x="2" y="912" type="line"/>
    </contour>
    <component base="Y"/>
  </outline>
</glyph>
<glyph name="uni04B1" format="1">
  <advance width="957"/>
  <unicode hex="04B1"/>
  <outline>
    <contour>
      <point x="76" y="-197" type="line"/>
      <point x="896" y="-197" type="line"/>
      <point x="896" y="52" type="line"/>
      <point x="76" y="52" type="line"/>
    </contour>
    <component base="uni04AF"/>
  </outline>
</glyph>
<glyph name="uni04E8" format="1">
  <advance width="1192"/>
  <unicode hex="04E8"/>
  <outline>
    <contour>
      <point x="309" y="743" type="line"/>
      <point x="906" y="743" type="line"/>
      <point x="906" y="992" type="line"/>
      <point x="309" y="992" type="line"/>
    </contour>
    <component base="O"/>
  </outline>
</glyph>
